<mxfile host="app.diagrams.net" modified="2020-09-07T05:52:36.112Z" agent="5.0 (Macintosh; Intel Mac OS X 10_15_6) AppleWebKit/537.36 (KHTML, like Gecko) Chrome/85.0.4183.83 Safari/537.36" etag="fYiuzmMr7wtPtuUqDguq" version="13.6.6" type="github">
  <diagram id="prtHgNgQTEPvFCAcTncT" name="Page-1">
    <mxGraphModel dx="3667" dy="3030" grid="1" gridSize="10" guides="1" tooltips="1" connect="1" arrows="1" fold="1" page="1" pageScale="1" pageWidth="827" pageHeight="1169" math="0" shadow="0">
      <root>
        <mxCell id="0" />
        <mxCell id="1" parent="0" />
        <mxCell id="nzV5PfegUvqKvhblKaPk-87" style="edgeStyle=orthogonalEdgeStyle;rounded=0;orthogonalLoop=1;jettySize=auto;html=1;fontSize=16;" edge="1" parent="1" source="nzV5PfegUvqKvhblKaPk-20" target="nzV5PfegUvqKvhblKaPk-24">
          <mxGeometry relative="1" as="geometry" />
        </mxCell>
        <mxCell id="nzV5PfegUvqKvhblKaPk-20" value="배포 담당자" style="shape=umlActor;verticalLabelPosition=bottom;verticalAlign=top;html=1;outlineConnect=0;fontSize=15;" vertex="1" parent="1">
          <mxGeometry x="-2410" y="-1975" width="80" height="115" as="geometry" />
        </mxCell>
        <mxCell id="nzV5PfegUvqKvhblKaPk-85" style="edgeStyle=orthogonalEdgeStyle;rounded=0;orthogonalLoop=1;jettySize=auto;html=1;entryX=0.5;entryY=0;entryDx=0;entryDy=0;fontSize=16;" edge="1" parent="1" source="nzV5PfegUvqKvhblKaPk-24" target="nzV5PfegUvqKvhblKaPk-44">
          <mxGeometry relative="1" as="geometry" />
        </mxCell>
        <mxCell id="nzV5PfegUvqKvhblKaPk-24" value="Jenkins Admin" style="shape=image;verticalLabelPosition=bottom;labelBackgroundColor=#ffffff;verticalAlign=top;aspect=fixed;imageAspect=0;image=data:image/png,iVBORw0KGgoAAAANSUhEUgAAASwAAAEsCAYAAAB5fY51AAAgAElEQVR4XuxdCXhTRdd+b7rvpUBbljZpK7iyuKDijop+fq64iwvu4q6AnwsooKK/iriLgp8KKqIiooDLp4grIAii4MLSNklb6E6XdMt2/+fcNO3Nzdzk3uSmTUrmefqgzcyZmTOTtzNnznkPh2iJaiCqgagGIkQDXISMMzrMqAaiGohqAFHAim6CqAaiGogYDUQBK2KWKjrQqAaiGogCVnQPhEwDhqGGk6XCdTqcIv2d04nvxL8zlhu/D9mgooIjWgNRwIro5evdwRsMhkzYMaoThDI5DqM7R+QFSoGMlNPpmnincwvPwwjAKAAbj0ZjhXFrIPKibSJfA1HAivw17LEZ0IlJpxNAaTQ4nMIBhh7rXNQRDzRwwFaex3cCiMXid6PR2NAbY4n22bMaiAJWz+o74noz5BnO13G4ABwu4IDMMJ7ACgHArPjUWGmkE1m09EENRAGrDy5qMFOia16ME+cTQAHCT8QVHtgKHm87dVgUPXlF3PL5HHAUsPrWegY8mwg6SamaI0/A5cQiY7nRw7CvSki0cthoIApYYbMUPT8QQ67BoIvHJHC4trfsUT046+8cDsyOAlcPajwEXUUBKwRKDXeRdJqK0eEewNvFQIuxDz/AgDGHH4r01BSMOeIw4d+Dhvu2z1fsrUbF3hpYLC34e2cpmiwt2LGrFL9u/UuLIYllRIFLa432oLwoYPWgsnuzK7JN6ZzCaeqeUJymxp0wBqedfAxOO+lopKWmaDrVf3Ya8c/uUmzash0bf/sTeytrtJC/wsHhuqiNSwtV9pyMKGD1nK57raeifMMknsPzWr/yDcodiAvOGocLzh6HIYOye2x+dBrb9NufAoB988NGtLS0BtS34B7hxHXFZcYVAQmINupxDUQBq8dV3nMddgLVLK1PVCkpybjm0nNw+42X9dxkfPT07Q8bseaHXwIGLzLMl5iN14XFZKKD8KmBKGD1wQ1iGGo4JSYGM7W2UbmB6prLz9H82qfVMqz4fC3WfP8L1v60SZVIcoVwchgXvSKqUluPV44CVo+rPHQddr76zeQ4XOuvl+zsbIw97jicecYZqKqqwjNz56K1pUW22ZWXnI07brwsbIFKOnC6Ni7+YBUIwJReGemK6LRjXDT0x9/u6b3Po4DVe7rXrOdOg/rdnQZ1WW/0AQMH4PjjTxBAquiAQo/+p029D9u2bfMa01GjD8GcGXf2qI1KM8UAaLa0YMXqtVj84SpFxvpOu9a9xWXGt7UcR1SWNhqIApY2euw1KUrsVCNGjMCZZ56B8WeM9xonuRGs+GQF3nnnHY/PyKA+Z/qdOPqIQ0M2N553gnfYwTsd4J1OAO5/0fk7h+K+dTFxAMdBp4sFDw5cTAw4XSx0MbGCDAKuxUtXCcCl6MTlMsZHQUvxCvRMxShg9YyeNe+F7FS6GDzHUSCyTBk//nRcffXVyMnNYQLV3Geewfr1G7w+0/r65wYmp9MOOAmgnHDarZrrRE6gLjYenC5OALHWDocAXPPf+tB//1HQ8q+jHq4RBaweVniw3SmxU/kCKurfaDTi4YdnorqqymM45PD5xPQ7/Tp5+psDAZQASA47nA6b8BMuhdPpQAC2o3iP8+GnF+p27vYdJx19QQyXlXONIwpY4bUePkdTmG+Y6ctO5Quo7HY7/tmxE9+t/QHfffctmpuaPPq69bpLg3JToGudw94B3m7t0dNTMMtH4PWfOW80fPPDJp8sFFHQCkbL2raNApa2+gyJNMMQw2hdLN6Su/6Rjeq++6Yxr37Nzc34/Y9t2L79LxTv3o2//voTdlv3iSdYW5XD1g7e3gGHrSMkc+8JoctW/1j75MtLBvjqKwpaPbES/vuIApZ/HfVqDTpVcRxmsQZBrgm33norjjt+rNfHLS0t+HndBvz99z/CZ79v3YqK8jKPehRO88TDd6p2VaArn6OjDU57u2Ac7wvls6/WO594ZYnNZrMnyM0nClq9v9JRwOr9NWCOQLBVJeATuVPVlVddiQsvvBCpkrg9uvpt2bIVv27eApvNJvxsWL/O6wp4/13X4erLzlE1+26gaut81VPVPOwr7ygux/XT5trb2ztcT4uMwvOYXWI2Mv+AhP0E+8AAo4AVhovYeQVcy4r9S05JwaxZMzFq1EivkVdU7MFX//sazc2Wrs9+/OF7D7Aib/UnZ9yJU086WtXMHdY2OKytfeZEJTd5Aq2Jd8zxrZvo66GqvaNl5ShgaalNDWQV5RmuhQ5vsUSNHTsW0+6b5nWq6rBa8cP3P+Gvv//2aPbn9u0wGUu7fkf2qpeefEDVK6DTYYejvTmsXvo0ULNPESu/Xo9Z8xb7A60J0aDpUK+Et/woYPW8zmV7LMw3zOI4IQbQq0yePBkTLvRmLK6qrsbq1V+CjOviUldbh182rOv6FbksLHrlUVX2Knt7CxxW+XCdMFKd5kPxB1rRMB7NVa5IYBSwFKkp9JV8naymTZvK9FLfsuU3/PhTNyiJR7l2zRq0tbloV9SCFRnS7XSq6kHnztBrWH0PM+cuwqo13o61bkkCaHEoiAZMq9dtoC2igBWo5jRsJwdWZK8ib3Rp3J/T6cT/vl6DHTt2Mkexc8cO7N7l+kwtWBFI2dub+qRRPZAlu+k/87Bl2y7ZpsTyUGIyHh6I7Ggb9RqIApZ6nWnaQs7ALgdW9Ar42WerUVZezhxHa2srfvrxB8HXSi1YkWGdTlbR0q2B5pY2XH7b46isrpcHLR4vlJiNRDkdLSHWQBSwQqxgX+IFlgUev0kJ9nyB1fLln2JvZaWs2M2bNqGqqhL0Grjo5ccUG9gd7RbYrYExd/aiCkPaNQVUU/zhP8UVuOHeJ3wHTTsRNcKHdDVcwqOA1QNKlutCzsg+c+ZML2dQugau+HQlysrYJyvqo6qyEpt/dRHXvfjk/YpdF+gK6LC296Imwqvr2PhkcHEJEBggOgvxas2Y87L8KStqz+qRRYwCVo+o2bsTcgyNSUC3z0FnFTkD+zdr1uLPP+UzyNBV8Mcfvnc67HYdsS08eM/1imYWBatuNVFQdGxiGjhdDFN30x9/CZ9+4TO94XfFJuM4RYqPVgpIA1HACkhtwTcq0hvWSimMKXiZ/KykZctvv+HHH9mvgVRX8GZft87Z3NykI8K9t195TNEAo2DlCVZxyT5joAVOrUm3PwJfDA8OB8ZFcx8q2n4BVYoCVkBqC64RGdpjYvGbWArZrd55Z7GXU6jRZMKnn65CU2MTbHZX0HJcbBzSM9KF/64oK8fOnTu6XBjefOlRRaR7Wtus6PoUTjQyalaIxh6blAFib/BXKOXYpDtmoKWljVmVB4wlJmOBPznRzwPTQBSwAtNbUK0K8w3PcxzuFguRXgWrKquwdu1aLF++Ao2NDYr6U3q60uI1kK5NMfEp0MXGeVyhBP4rG4XxRI5NLC4lE7qYeC8dEy/8jt0m/LPLdXOnhLAHDitARUUlZjz5ivyaREN3FO3XQCpFASsQrQXZplBvKBW/DBYUFuK1114FgdT69euFeMCS4mLVvXy1bL5f7nUKtbG3NQTsZ0VAFZuUxvyCiwfsdFhhbwt/fy6yW0mvghu3/In5b34g5D4MpERPWYFoTVmbKGAp05NmtTpTcJH9qqvk5LgojCl7TaBFyemK2BZsLfsCDmCOTUwRTlW+Ctl5KvbUCO4UdMoiO1k4F5oPzctd/u+Ft/Duh6uCHnLUlhW0CpkCooAVGr3KSi3SGz4B4B0UqME41n+12GesoK21IaBwG9epKt3jmd89XLo2rf1xEz75/Fvs2OVJN3zqiUfjigvG4YhDDBrMLjQi6HRFpywqr7zxgTKud2VDib4YKtOTqlpRwFKlrsArdyaNINZQ1d9eujIeUFSIoqIDUFhUiNycHIFdVJqa6/Hpd+CCf7Nf1ckplAztaoucQZpOUq/890NFp5ErJpyGaTdfrLbrHqkfn9pfsMHRfMaeeY2mfTo6UGCsNPomjde0x74vLApYPbDGhfmGt5QkNxUPhUCK8gced9xYJvUx1V28+B289+57Xc2IQfSlpx7wmhEFM9ta6SpIqbSUFzmwotTwD815GZQiTGm5aeLZmHy1OsJApbKDqRefNgAcp8M7H6zCUy8yWX0CFs/zuLfEbHw+YAHRhl4aiAJWiDeFWrAiX6wJEy70CnhmDfP33//Af+77j8dH23/+2KtqIFdBeuKPS+7n5UQ5fc7L+PRzDxOcIg2mpiTh+2XzFNXtyUruK+HLbyzFa299hNzsLJx7+lgcNWo4Bmf3x+Dc/vj1j52wWNqw6Y8d+G797z7jCsVjjwZGa7+SUcDSXqddEtWAFZHz3XrrZNnTlFtoU1MTamvrUFNbi+qqGrz80oseM5DasQJ1YSCbVUxcYpdsujJde8cjXnYqNerb/MV8NdV7pG5MfCJ0ccl4+fV3wPO8olMgAdjr767yyeLgHrzDjsONFcatPTKZ/aCTKGCFaJF9kfGJu/RFeUz16Eu0Z89e7C4uxq5dxaDkEuKyft3P2FffzSQgdhwN9FVQ+tSvFKxSUpJwYOFQL40SPcuRI4ZjwdP3hkjbgYulk6Taq7K7t+/W/Y5H5i2SdSJ1rV+UAz7w1fFuGQUsLbXZKYvlyc7qRo7ymOo2NDbij9+3YcfOXaA4QbmyYd061NfXdX0sDnoOlDFU6kh51wNP4dsfNzKH4L5CjTtuNA4s8gYrdyOiaUlLSQqBtntXJM1ryuz5sqet6LVQ2/WJApa2+hSkseIEpd1Q1ptrrrnaq3eijtmyeSuKS0qE05W/IgUs90uh63RVr/r0QIb2uJR+Xd0++fybeO+j1V7DoNPUxPNPVXSF8jeHvvC5L3ZSB4d+UVZSbVY5Clja6LFLCssxVNoFi5GBTlHEImoymVWNyM1/5W7kvhIGerqKSUwF0atQIY/v6+98xGs8wwqGYt4jkwWDdLR0a0CWnTQaqqPZNokClmaqdAkqyjesAIfz5cSywIrYQz///Cu0t6uPv2MB1pjDDw7odEVjFjtSnnHxrdizt9pjKkeMGIZ5M2/tk9e7YLeCLDspj0XFZuO1wcqPto8S+Gm6B+Q4rtydsK6BG37ZiF9+cZHuBVKkV0I6YZFneaDZbuJTBwisBazTFZ2sFj4zJQpWPhaKDPFTH3vNo0bUjhXIzma3iZ6wtNMlCvMN93AcnmOJdAc4iz9bv/4XbNz0a1AjkALWlx+9iuz0GNW2K/cgEtKzhf+87o5HPIJ/yWa1etGcKFgpWK2zJ0338tWK2rEUKE5BlShgKVCS0ipFegPRUZ7Mqr948SIPH6vNW37DTzIpupT2R/WkmZ1/X/tuUIkkyPN7T2Utzrz4Vo9hvP7UvThq5HA1Q9tv6y755Fs8u+Ajj/lHg6G12Q5RwNJGj4KUIr2B+axH7guzZnfnR91dXILVq7/QpOfPV63skkNZcpa+8lDAbAwkiGxYn/3vZw/+8svPH4f7Jl+qyXj3ByFkyzrl4ime18KoP5YmSx8FLE3UCPh6HRQnlWhutuCdd5cItMbBFpLx9VdfdokZd/xRmDvjhqDEkuf36+9+0cVaEL0KBqbOy2+bg12looQhPD4tNhtDwtIR2Agjs1UUsDRaNznPdvJk/+ST7vi+jz5ajj1792rSqzQd/S1Xn4+bJ/4raNkLl36D1xa5xjxryjU4d/zYoGXubwJee2cVFi7p9l+LGt612QFRwNJGj+TO8DY4TJKKE18HzeYyfLLiM416BMrLyvDH791haguenoojRxwQtPydpXtwxW2PYVDOAKx6W1lCi6A77WMCWK+FxSZj9PsW5DpHFRikAt3N5QzukydPxoQLXTeBjz9egfKKCo16BMQp6Unod8vmafaK9+OWYjQ17sPZ447SbLz7k6A9lXU497oZHlOOBkIHvwOigBW8DgUJcgb3p595GqNGjRTYFZYs+UCj3lxixE6juTn9sfrtxzWTT6R2xKMVykJf6kj1ln/mtQ/9PkQceZbnS2v0pTD43RQFrOB16BOwXn31VYHbat36Ddi0abNGvbnEiH2wzjl9LGZP1ZYxU9PBMoTRtSk1NSki3SUIjFa+9bhPwJWG6kQJ/YLfUVHACl6HMBgMmTE89rFEffU/1yveokXvCgwMWhaxS8PUmy/BxAmnaik+5LLIML1l+y4seCr8aGd8TZ7jOBzxr8k457RjMXual9myqymxOHy/4Y+u/49SzQS/paKAFbwOfbo0EGC1WFrwxptva9BTtwgKlv7u2zVdv1jy8nSf9C6adh6EME4Xi5j4BHAx8SCq5XtmzEOkOKUSUOnikxETn4wRJ1wMYlFd5cP7X/pSiKhrQxA7x9U0ClhBqxAoGFJwjS6WXyR3wiotNeKzld4ULcF0LXVpCEc2T/H8iBQwJiHFI/OOO17R30klED2R8+b7K77FyceO0gTIiX1VR+PXxQjDmXTbDGz+/W/44qr3Aizg+2KT8ZRA5hNtEwUsTfaAkA1Hhy84Dt18wiLJdMLauPFXrN/wiyb9uYWIXRqIQWHh056e1Zp2FoQwOpXEJKSBHFJZ5bDjLxJ+reULJ8kjGuNb7n9OOAUFyyXPysf45HP/xXvLPvd5ypKG6ER9sYLYSJ1NoyesIHRYqNdfxIFbRjx7HEOTKampWL58Gb5ZsxZ//vlXED15NxW7NITihKLVYONSsqCLiZUVd+GkKdi52+TzpBLIWMRuBcFcOWPiEhCblOE1BLrO3vXgU8Lv5U5ZbtAUN476YgWymt1tooAVoP4K9PobOR4LOI7j5ACLRNMJa+XK1Sgp1TY93Z/bt8NkLPX5hQlwapo1U5Ip2p1ey589KJBBud0KgkkxFpfav+saKB6DOI/hoJz+WMVwKYkCViCr5rtNFLAC0GlhvuEBjsOT7qb+AOvDZR9j757KAHqSbyJ2aQjmBKHpoCTCiGqZKJd9Fcoc7WaGCAZYWH24AUsOUPzNnYuNQ3xyN120tP6Ds+Zh5dc/C79mvdJGAcufhtV/HgUslToryNM/qtNxD4ub+QOsDz5ahsq9VSp78l09EgDLza3lb+LTH38Jn37xnd9XN39ypJ+L/aACAfWYhGTEJqTKdrvhl824ccoTwuesEyILsJwO/sbSctN/1c4lWt+lgShgqdgJRXn6Z6Djpkmb+AOsDz/8GJRcQssiBix/Doxa9qtGltx1SipDzG565MjhmvlliV/pApEbE58CutbKFUeHBWdefm8XWR/rhCj1dud5tDqdONVYbtT2FUbNwkRw3ShgKVy8ojz9S9Bxdyis3lWNbFiffPIZzGVlapv6rC8GrHB1aYhNSBFcGZSUa29/GL9udT1MaMW/JQ1AfvbhyTjluFFKhiPUYRncnQ4bnLZ2OO0dAqur+CWQdcpiABZlK2zjOJxTbDJ9q3gw0YrRE5bSPeAvKaqOiO84Dh2MtFwUmkO5BXft3q20O0X1IgGwOOgQk5TqkUFabnIbN2/D9XfN6vp42i2X4ooLxinShVwl8sUiuuKWljahCtmy3n9luqoA8Zh4yqWoAzgevN0Kp8Pu0Z2UrE/6YssCrM4XZavDgTOM5cbvg5rkftY4esLys+BF+YZbwMEzq4CoDSnwmQH9sKS5BVs6rF7SKPi5qbkZW7Z008A0NTahta0VzU1NQv209HTExcUhvfNfJXswEgDLPQ9yGtXFknd7bJcRnnfYwfMOCP867HDYOyDN7adFfKRUppaGfQKr79f/DgqEtnSCIs1ZbC/zAViUd7IVvPPkkrKy4Ij9lWyYPlInClg+FrIoz3A5z/FLyHVBrtrs/pk4OyUZrzc0Y2FTMxOwyDt6yftLUVVZiYpy31fDrP79kZs7CEOGDhVATK6I3RrC1Yal9jtCvlOX3zHHI/V7sASCO4rLMfGOOR5DURrGROOhWMc9VXVosrRiZ0k3g+iO4jIPkBJ3IHbk9QVY1IYHGuCwH11SXr5Lrb72x/pRwJJZ9YL8/HN1nM4n2959/TJwWZrLRrPS0orZ9Q1e0saPH4+y8jL88/c/qvZXbFwcCgoKMWw4O/GD2HE0kBcwVYPpwcrScBYtPNWldMXDC4cKV0NfhQV0StUgPsWddPEUDwBmPdDwPL+3w2E/uqKiQsSprLS3/ateFLAY610wdOhILib2Fw7scBtqcmtmGm5IT+tq/Wu7FZOrazXfPXRdPPKoMUhOdmVjdhc6rW3+1ZXPMJyZGlZ9swGDsvtjUHaWIu6rlV+vx6x5iwM6Eckpn8X+qeRqKD0dKVlcqQ2LQTHDjIrgeWyzOu3HlJeXuwxu0cLUQBSwJGoZPHjwgKTY+C3gkCe3Zy5PS8G0fp7hGt+1tmNabX1Ithmdto499jikZ6R3yRezNYRraA4LfMi9gE446anJGF6Y12UA37xtJ9au2+px7XJPVosTJCuNvD+5sqnnGatMyTruu+USL/57pYDVKXJFsck4ISSbqI8IjQKW50LGFuYb1nEcxsit7zkpSZjV39v7+ZaqOmzu6AjZtmCB1rdrvkF7WxsGDczCqsWedpqQDUSFYDVfeF9itQiMZjlx+ns1pGvhTffP87jSScdJQHXu6cdi8tXnMl8fpToYqNOhxun0MV1+TrHJ5MmtrELnfb1qFLBEK1yUb1gEDrK0naclJeKpgVlee0LOfsXaPJQ7cMK/x+HAYQXCxwcPN6BiTw32VFbjly3bseLztWhpaWXuO7oennhSd57WcDe8SwnsAvkyaXl6ZI3nlLGj8Owjk2WHRi+Br72zEpv/2NWVtmtYwVAcWDgUR40ajlOOG+3TTUIKWA9kpuHt5hZUOuRBy8k7Lys1mz8MRF99vU0UsDpXuECvv10H7mW5BR8RH4eFOQMQK3kw3GNzYGJVDSw+/2oCR40+BHNm3Ikhg1yp4OUKBdU+9NhLWPuTyz4lLQcfcigo7T0VsR0r2Ne0UGx01qlGTT9aghX1K/XLco8llDZAKWA9lpWOgTE6TKtthIXht0djIncHp5070rjHqO6lRo1yI7RuFLAA6PX6w2PBUagE048gO0aHpYOyka4jF1HPMquuAatkTkRUMyUlGU/OuBOnnnS0qi3ijq+TNqKr4RlnducedNMka/3lVjVYH5UJtGY+u6grfEWpXDKKX3nhaaqcPJXIZhngqZ0/e5YS2aw6LMAakRCHv6w2zKhrguw5i+d3WzraR1dVVbUE2ndfbLffA1Z+fn6/OHDbwXGDWQucyHF4J3cACmR8ok4pr5Q9XRFYLXr5MRw03BDQ3rlw0lTs3O1NS0Ovhjm5uYJMtwNpoIwEAQ0sgEYEFJv+2CEY1bdsY7scua9at1x1jqIXxQCGITRhXQ3JfeL9l6dr3q8cYNE4Vre0YWET+/rvOmlhZYnZeF6g8+yL7fZ7wCrSG9YCkKWtfX5gFk5IYrNl+nJlCBasaLOJqVfEm4+cSkeNPtwDsOh/Is2BlK5ozc2tmoOEvy8q9Xv5bY97nfro9XLB01M0PdX5Aiwa56uNLfhfa7vskJ3g7ys1meb6m9P+8vl+DVgFefqHdDpO9nltckYqbhS5Ekg3xdz6Riy1sE/sj0+/Axf82zsW7pdNW/HuR6tRUVkjiEtPTcH5Z56EU08+BhmZmV77jnU1zMrqj2OPO84LsNQG9+4vm5w1TznHUH9GeLU6O/niKR4e8e/lZiFFZAe18zzur21EsV0mByTP23mn44iS8vJtavvui/X3W8Aqyss7DJzuN3Ack7/3+MQE0OnKR1QObq6qZcYPkoH97Ve8U7w/+OhzWPnVT8x9RFeSW68+D1de8i/o4pK7aIX/2WnExddN9WjjBixpqnolzpB9cRMHOieWnxjJ0ootgmRJnU9XDOrvNdw6hwP31DSiWc4ID/xTYjKOBGALdK59pd3+ClhxhXrDNg44kLWQQ2Jj8H7uQCQzjOzi+keZ9zD3wZsvPYqjjzjU47OXFyzBa4s+9rtv3AG/7oBhYgtg2bLI+G63ee7fcE5G4XfivVRBGhztHoZWr65KAIv63N5hw8P1TRRbyC5Ofm5xmem+XlJT2HS7XwJWkV4/F+A8jy2iJflw0EAU+gg8pqpVdjvO3lPttZDkZ7V80bMevydb1EXXToXFIm9gFTcQsxRQyvjXl3yJ1xct97tpooDlV0XMCtJYQ3clLV4OxYCVxHF4P9fbj8/d3zJLG95t9rFHeOcJxWazi5N5Py37HWAV5uWNAaf7RY6BYUpmOiamy9Pi0j6xOOz4sa1d+IsoLfffdR2uvuwcj19TooWX/7tUCN0gR8P3lq/BwiW+8xSK7VFKA3GjgBXYt1jOCE/X9AVPTQk4r6GUK+vQ+DjM6d8dXiUdLc/zeKCuCTtsnpxb7no8+NISk+kgAN48RoFNPeJa7W+AFVOUr/8HHHcAa6WOSIjHgpwBPhex3elErcOGbZ1HeGnlr5bN93IOvfP+J3HT5Wd2bfyb738Om//Y6bMfadiINOpf2phCRBYG8eWKuJ2r8YDlwnCCAS2p46w/wKIp1TgcuKOmAR0yd0Oex9MlZuP9Gk8/YsTtV4BVmG+YzXF4hLU69HLz8eBsDIhxZfZlFRvvRLXdJtgZ5ABr+8/edqoycxmyMxMEkSyGymm3Xip8Nnf+h1i1ZkNX12I7ilxcHvkunTd+LM49Y6ymz/ERs4M1HKicU2mg7g5SwBqXlIC7M32f3mk6X7W0Y34T+/WZ53mHDvyo3WbznxpOPWJE7TeAlZ+ff0gcp5NdZDcRn9zKOXge1XYr3I/PLMBi2a9InqPdArvVZZsQb2ICm6WvevIyiYHp5GNHYt7MW4V2RCa3p7rOY3hHjWRzZUXM7gvDgcq9HBJozZoySdX1UJr5+bLUJFyR5kkTJKeCWXVN2GplPwrywO8lJuPoMFRfyIe03wBWUb7+Z3Ccy3lJUo5JTMAr2d7Pze5qZFuodthgEz07swBLzp3B1rIPlLyAingTs16ixBmLqX64JpgI+c7sxQ7kXg7VXg+lZIQ3pOmZMwkAACAASURBVKfg3BS2E7J0urUOB26tafTYcx51eOddxWbzS72opl7per8ArIL8/Et0nI4Z/Z7AAZ8MykF2rPxVcJ/DhhZJcLMawOpo6n5NFG9iuVcocehIFLB65XvhxS/vHoUa0JKGAFHgM8URKi0rLW34r8yrIc/z9U2tLYba2lpvXm6lHURgvf0BsGIL9YbdHKBnrc+0zHRc7uNVsNXpQL0kUwrJqbY7cXPNPi+RUhuW026FrbWbOlkMWHJgJL42avG0HoH7UtWQiTOf7Iq8U8ZbXJU0V2WyNd5037wuShmxCPFV3Zdof2E5/oZFJ/sptY0olfGC58HPKzGZZN1z/MmPxM/7PGAV6PXTdOCeYS3OwXFxeGfQQNl1o7CJKrtV1pnvgr2eNiUStP6rxUhL7c7FR7YrsmG5ixLAorruzR5p8YE9/SUQ5w50WNtAyU3pi65FkXMnyc3OwupF/gkTpWE5LC93f+Mss9txZ02jbDUb7ywym80l/uT0lc/7NGANGTKkf2JsXCll0mIt2Ns5A3GYzBGdNn2V3Qa7vO8xrqisR5vkyyH1cre3N8Fh7Q5uFduwfF333Blkflg2r6/stZDMIy51AHSiiAR7R6sAWloVllOpUn83NU6jvsb7WqMFX7bKsNny+KjYbHQ9M+8HpU8DVmG+4f84DkyflfFJiXiSwR7qXvN9dhtaeF9UtsD0uib8KXnJufW6S3H7jZd1bR26DtK10F3c1z3WC6F0v9Ff+AOLhu4H2zCwKcbEJSI2ydsR02apg1Oj6yHlHFz6KRF6dBclsYbS05kSHyw5LTQ4nLilZh/TN4vned4O/jCz2exKm93HS58FrMJ+hRlcmqMcHOfl+ELm9RWDszEolhn3jFanE/Wdr3q+1v/95lZ8YPFMcnLgMAM+frs7NEf8Qkiy3H5YSv9K9/H9F9T0CKwItKTF3tooJGbVorBeDJWwYkjdI85OTsRNGd2mArVjW9bcincle61Lxn50yuq7gOXDSfSatFTc1Y8dIuHkeVRSSnIFO0qJt7v4hdAtkuxTe6vrsertxxX0Eq0ip4H41AHgJAHqdCV0WlvB+zkdK9XqFbfP8cjko9R+JT2ZqfHBYo3NyvO4rboBtTJU3A4bDt4fKJX7JGDl5OSkpCYkVrJOV+TG8OWQXKTJMDEouQq6N1QLz+PKSu/UXuJ4QhZguf/6Rl0WlMKGd72WNiuycrqvywRQjvZmOGzanKyoRxYnvZLrILUN9oWQpZnPLW1YIO/m8G6J2XR14BqNjJZ9ErCK9PoZAOdNSAXgqrQU3CPJKeheqg6nEzUKroLipX2ivhkbOzxjUQcPysb/ls0XqlktteAZfxXJmCv1co+MLRMeo7zlgRfw9quulzonPY60N2nu1jD10de8Yj6VuplIaWWkxH2BavG6ynrsk3kFdXSgwFhp9ObUDrSzMGzXFwGLuK7KOcArPQ1ZrL4ckoNMRrygkldB1vp929qBFxu9X6XcjKNSo7tbBtmy0lKSwnBLhP+Q3CfUZW89i2H6gbB3aJengV5nX39vNb5bv9WDKZS0ojTAXGpw90cro0bjKyxteFv2lIUXSszGe9TIi7S6fQ6wCvMM13E6vMlaiMtSk3FfljcNMdVtcjjQ5GTTevhaVLlrofuUJXVriLQNEo7jdXuQ33fblbj83BM0GSKBzJIV32LVN+uZ8uiRZPaUSYr456UxhMG8EEoH08HzuL5qH2jfSQulB2tua82pqanRzq9DE+1qJ6TPAVZRvv5PcNwhLBWtHpyDHEYIDgU2k6E9UHdD1rWQ+idb1sQJp8Hevl9FT2i3O2UkuQ3hSj3OfQ2I7FQL3lstS/dDp6pHp0zCKceNUjwv6ctisAZ3accfNLfifZkXQ97JTy0pM/VZ570+BViF+fmnc5zua9bOOiM5CU8M8E4xT3VZsYKKd6cPqpnU1BQse/MZDEzrU2pWo5qQ1HVzg1Fc36pFcwK6Wq/6ZgM++3q9T14yMrDLpaD3NbFzrp2BvVXdURAP9kvDMYnxmumi2enEdVX7wLwP8Hx5sdmUT5FKmnUYRoL61DepKN/wKTgw87i9kzsQB8d7B54SxxV5tAdbbqrehxpG+vExhx+KhXOneXi7B9vX/t5e/AKnJvEGXftWfrMeZAOztHj6z4l1qub6J10LVjiPVgZ3cV8vNjTj2zYZ4lEnJhSXGVf0xX3SZwCrILsgh0t07uE4zis988j4OLyZy44ZJI4r8nEJtsgZ30nueWedgpl3dXu/B9vX/t5eeuUiDvyJF5zqFRVABvQt23fhn+IyfLf+d49TD0uHBFSUxFUNzxj1MTi3m5pIar+itPQLs9kn+2DWscxmx521cjGG/BfFJtO/g5Efrm37DGAV5uc/wnG62SxFPzWgH05L9n6Rc9Mda7U499Q0wCgTWX/fbVfg8nNPCqgrsrPQF66ypgFzZ9wUkIy+1EiOZC/QOQYCVG7b17mnH4tzx4/t6lrqf6WUZTSQsT9c14htVpmHIps1v3jPnrJA5IZzm74CWFyh3rCHA1z520UlQ8fh6yG50ImSV7o/rrFbQa8uWhU5z3e3/HPGj8XsKdco7o5cH2Y9u0gAK3dZ+upMDCvwmqZimX2l4tmTpntlblYzN/JYP/f0sQK9tPiE5E+G2EgvDa+S0l+TrLsyUnFqsoseW+vyU2sH5jJcaqgfnsfsErNxltZ99ra8PgFYhXr92Ry4VSxlTkpLxZ2MMBxrJz+71guwsLEFq32kHj9y5HBMvfkSv0HNZAuZ+thrXteYN1+chcMP0cNpk09vrvWcwlGeHP+6r7ESwIwbOxq0BmqDyunq9+yCjzz+eCx5ebqHHNaYFgzsh+xYLyuFJiol+qNrqvahle3isLfEbBqsSUdhJKRPAFZRvmEpODCNRKsGZyOXEeRca7OiPQQPKeQfM722UfZq2HXaOn0sxh03GqeMpYS+3YX+Sr+/4lu8/q43/qakJOOb5a8JfFv2DgscHcryHIbRftN0KHQ1pJc+Vhmc3R+UeeigojzhX7UA5ZbpdiSV+mexQnSktrVQ2a/E8/1vowUr5ahn7PypxRUmT6oJTVeg54X1BcCKLczXN3Ec52WkOiohHq8x0nZp9TIot1wlNrtAPSPlypKrT3/xqTRbWj0CbaX13d7z9HuHrQ32tsj276ITyc7Scpxz2rGqrmU98TXx5UhK18mlr87wcqeQEvaF0n7l1kGF3YHba7oZbcW64cG/WmIy3d4T+uqpPiIesIryDBdAh09YCnusfybOSvHOUkLUMUQhE8qiFrT8jUUMVgJg2TtANCqRXty2KMpKc97440DXtkBPQ8Hqgk6336//He99ssbnHw7pVZD6ZT0EhNJ+JZ7rfbWN2MVIvsoDVSUmY58yeEY8YBXq9Us4cFdINytxXn07NBcpElYGoo/ZIyLUC3aT+2qvFWhJwYr6dDrssLV4M0WEcj5KZHMch5jENOhi4sDpXIk9nA4rnLYOgchQyrvOYkSgNnTqJPeCtJRkEJgNLxoakIOorzHTdY9ofjZv2ykwM/hLbkuyyP44ccKpXmJZyXFD4X/Fms9ySysWN7P9ypxOx0mlZWU/Klm7SKgT6YAlex08ITEBzzNSdzU57GjSiI1SyQKTTYtCd6TMpEraUp3zzzoFc2bc6VWdgrWtzTVKxfRYvdj4JAGwpIV32gXqYofN29lRjZsC2aMG53T7Panxmbr5yrO7hiVlU1CiILq6zp42yauqNDUbVdAyftDf2KrtDtwscy108nix1Gy825+MSPk8ogHLMNTwr5gYfMFS9qysTJyT6nkdpC85xQxql1tF+TKvbGnHkuZWxXYtt+Svls3HkEFexBPCx9bmWs2I6pTPxHfN2IQUxCR4Mms6bW2w+bG3qQGtQMfqTughd6rzJVcOrKiNNP8g/U5NDsJA5yNuJ+cDyAPmEpORmTFKi357WkZEA1ahXv8sB26KVGn0iLyWcR1sczpRp5LvSssFodPWZ5Y2fNbSrhi4pGnDxOOxttSDZ6Qg03LMamV5AZbTAWGcCvzdyNA989lFzNRaasfBqu/mslILWP7Cf6Sxg9R3KN0ZWHP7sLkVS2QCovtSZp3IBqx8/TaO4w6TLuCYhHjMZ7wO1tmtioFCiy+InAwCrl/arNjQbvUi/5O28QVYtramsPPHiomLR2xSN4UPsYDarS77Cl2dVq3ZIPy3r5dBCm95b8WaoBxDWbp3c7ErBSwlTA0sWYbYGDw/kE1jFKp9VWq14946mUcYHpOLzcbXQ9V3T8qNWMAaPHjwgKS4eKYR567MNFyT7mlHIQqZvT1kbFe7gGScf7HBwvTdkqYNE8sm4jqHhuR1asfNqq/TxSIuNavrI7KzuU9XYj8lX1csd2O6Jr73ybeanbjcJyUlgEXjo7hCf17wLGN7T18H3fqaVFWPRieTJ2tZidl0iRbr29syIhawCvLzr9ZxusUsBX6QOxBFEmaGnja2q11YX5xaV192DlMcvbzZ2sLPtSEhbQBAMehOBzos3TQrdOW76f55aOlkSlCaJJZOZhSetHb9VmzZtkutarvquwGLZSSnSuRfddSI4YqAiurLAV9PXwfdE6Q/et+2eXPa80BDicmofQR2wCsReMOIBayifMPb4OD1ZJMdo8PnQ7xdTyptVp9JUQNXoTYtWSnDSLLcKyF9RlzxxBkfaAlV3sP45ExwsfHgiQmj1dOpUQxa5K7w/ivTVQ2ffKV2FJfh1993CmFLe6rrFIOY2BZFnPppqUmCywS5TlDUgVr/L9bpqjeug24F/tRmxdwGtjOxw47DjRXGraqUHYaVIxiw9LvBcUVSnV6QkowZ/T3tB1anE9W9aGxXsu5y9DTihBYsOVZLXcDJF8jTnIoaNk0lc3G7NrAAi9qLOaOIGmb2VOUB4b76J7nNLd3hSgRoFZWuE96Q3P44csRwv1c8JfPzdbrqKWdR1jgtTh5XVcn45vHOu4vN5heVzi9c60UkYBH3lS6Jr2QpdVZWBs5J9XxWb3DYYAmxZ3uwC+yL6cGXa0Mwhne60lBmmPdfnq7ZF5n0IDiPdiY4dRvcpfoR80ZpCVrBroPS9qzTlZbJJpSOQ1rvzup9KGMQSaKPJFuNSMAqyjNcBh2WshZ1+aCByI/rZhYlgy8Z20MbiBPo9vJsd8HebnuP+BOWp7v7c4e1LSjOeKIbHpLTX/XVTIsZi7mj6Go2a8ok1dcyLcahVoac7Upr7na146L6LzU0Yw2LiZTn64rNpgGByAynNhEJWIV6/cscOK+gzmSOww95gzz0GwnXQfeAKWCa5RE/7oQxeOmpB5j7hkJd6FoYaHFnoPHnaxSofF/tyB5FsYRuIzzVpZe5cAyGFs9Dmg2aPqPT1Rs5/ZDC4F0Lhe7kZH7V0ob5TWwWj77gjxWZgJVv2MhxGCNdtBMTE/CcJByn0WEDkfZHQpGzY1Eyiw1fMR9EhWnJJWtVMmexh7nSJKFK5CqtI3daoWsii35HqdxQ1ZNSILv76S1XBuk8zTY77pKhTuadmFhSZnw/VLrpCbkRCVhFegOTJvS2jDRcn+Hpf1Vls8IWAt6rUC3OFZX1TOfWF5+8H6eedDSzW7FzZiDjcjMmBJOFJpB+3W2eee1DLP1UnrbJHQhNRnMao9rXvGDGJm5L7hBX3DHHK4FFb74MsuZ2eWUd2pnfEH5Osck0Qyt99IaciAOsoqFDD0BMLNMZ57mBWTgxKbFLj+HsLCq32C80WLCW4Uvjy72BWBAow3SgRXxqIHBY8NS9gYoKuJ2U/M6fILVB0PRauLfa8+o88fxTVb2Q0gOFmK7aPcbHstIxIsE7I5O/OYTq8/trG7DDxoiY5fFpsdl4Qaj67Qm5EQdYhjzD+TE6MFMYrRyUjUFxlJDeVVocduzrQWYGLRaMvN6nMI70dC38+uP5AtuotGjB3CDmSO8te9ZN983TzKvd31pQ2M1qFTkN5a6uPUHS528u0s9fbbDgf4w/euD53cVm0zC18sKpfsQBVoFeP10H7nGpEhM4Dj9LDO51dhva+MiwX4nnI2d89/VaaG9rgiMInncpH7k77q4nNysZ4WfOfRvfb/gj5N2qmR+Niwzt4uSo7gH2lle7LwWtsrThjWa24b3YZKSMGDIJDUOu9qA7iDjAKtTr3+PATZTOXJp7kE4dRNSnXU6coHWtWIDcKYuSsr718qNMOU57B2xBMpCKr2VkK1rw1JResRfJGbYVK9BHRSUBzdLmcja2cDxd0dh9+fQ57dzo0orS7jRMWii1B2VEHmDlG37hOHhZnyekJmN6VreHe4fTiZow9273tc5y2XfknEiFayG5NwRxoqSTxOW3Pd7FkkC+UQuenqI506eS/U0GbkowQZmaK6uDY1YlkDqKMuZQ0o/jRquaj69A6XkDMlAoMkEomVdP1GlyOHFN9T52Vw7+wuJyE5NSvCfGFmwfEQdYRfn6GnCclwOclKEh3IOd/S0cUdAQKVuNxGv5ykvOxoP3XM9sbm+3wGENLpOONNX6KWNH4dlHJvsbbkg/pzHtLCkTMjjvLCkX+tpRUu7hv0WBy24mUnfGHArHGV6YF/Ap0ddVsCcy4gSj1Ev31jHvfU7w00pNpmeDkd2bbSMNsOKL9AbvcHQA0uzONTYrOiLyQti9HX5pt+LJfZ7BrL6N706BhTTYImX/jMTQmWB1QO1nPrsY0vRebrk9SYEcyFzuqt4HMytEx8m/XFxm8ubcDqSTXmgTUYBVlJd3GHQx21h6eid3AA6Ojxc+outRRZhyX6ld45uq93mdsm697lLcfiMzDaMQpkPhOsEWqd1mfwMtJYlaw9Hg7l73x+ua8KvV5rUNeJ5fVWI2nRvs/uit9hEFWAX5+efqON1nLGWtGZKDjBhXlhar04HqMKMODnSBiQv+v00tHs19MThomU1H6hs1a8o1OHf82ECnEjHt6Ap68/3zvBxEpRMoiIvF4/3Tez0ch6XYBQ0WfM7ixuL57SVm04iIWQzJQCMKsIry828Gp/OieqX4re9FLg3NDjsaI8z/Sm4Dyb0Y+nJxoNdCejUMtpANR+ob1ddBi+Z883/m+cxLKNZruL4Ufmppw1ss1waery02mwYGuzd6q31EAVZBnv4hnY6bI1VWXmwMPhmc0/XrSPW/Ym0CMr5fWen9StZTpywWaFGAsjhlVm9tXq37VQtW7v7DEbS+a23H842eJ/NOc4mzxGwi7+pI9PhBRAGWXJYcqQ/WXltHr6Ty0voLRPJYhnd3P/ffdR3k6JOD4cmSzoPFqtDXbFqBgpVbV+F2PdzcbsVjkgcb91htvDPLbDbL+D2EYhdrJzOiAEuOFlnM0tCTmZ21Wwa2JLoOzqhvQisjsQC18Pli6LTDZmkArxETmJSPnfon0Jo2+RJVfk2h1lkg8mluUx97jenJ7pYXm5wGeyubfjgcQWun1Yb/1DUx1WF1Og4oKysrDkRXvd0mogCrMF+/kuM4r4wM56YkYWZ/F8d+pDuMujfEKkq8ammVBSt3PV9+WY6OVtg7LJrtMRZokXMphbn4yy6j2SA0FrTgvdV4/d1VPqVmHTwG/YaNQtn3K2Bt9O02Qv5ZD/ZL63WH0r12B26VyQbNOx1Hl5SVbdJYlT0iLsIAy/ADx+FEqWauTkvF3f3ShV9HusG92u7Ei40WbGc8ScvtCLlUYOTeYWvZB0oTr1VhgRaF8Uy75ZKIekGkecyat8ivcT09/yDkjjlNUJ/D1qEItJJ1HO7OSMUxiS43m94odCqfKMPv7nQ6ziwtK/tfb4wr2D4jC7D0hg0ccIx00tenp+K2TBdg1TvsaI3AF0IyrlPmHDpZqS0HDjPg7ZcfZTM5OOwC9QwfRMiOdDws0KI65BU/a+qksL4ikq1q7msfyTqEiueae+RpSDcc5DF9Aq096z5HW+0ev8vUmwkpaHBylNtO3nlJqdm8zO8EwrBCZAFWvn4Tx3FHSfV4Q1oqbu08YVVRrr4wVLTckAioVlra8Vlrm9/rn69pnf/vcZgz/Q5mFfqS2TXOX0ixflMefc2LDoZ4qiYTzfHpx4bVKhBQvb/iW7z3yRq//lVcXDzyTpqAxEx5CvTKTWvQZP7H7xx78wXxsr11YDm38E7+hpIy05t+Bx+GFSIKsIr0+i0Ad7gXYKWn4tbOE1a5LXj/o55aJ3oBfKOpxcuTPdD+fYGWVh7w4rERCBAnPCu5KQEX+WwdNXJ4oNPRpJ0aoKIO49L6IX/cRYiJIxYW3yXcQevaqno0MDNB454Ss/EFf/MLx88jCrAK9YbfOWCkHGDZnTwqHeFP9UOvf282taqyU9ErVfKAIWjeWwLeJj9HAq0H7r6OeT2kqyGxk2pdfFEcE4Mp+Wz1NHDRCXDJp9+C4iItnZmm/c1bl5SKtGGHI7lfNlKzcsDp/H89lIJWb7g93Fq9D3tZ8YTgHy42mbw45fzpJxw+978i4TDKzjEU5eu3g+MOlQ7pxvRUTM5MR7vTgdowDskJxE6VNGAwMvQHd9lS2htqUfbDJz5Bi2xaxAE/ZFC2h6pCYYR3d0A0LDOfXSRLBUOviVdOOA0njx0VUhvXd+v/wMqv1zGpjP1t5biMAYIrCDr3UFL/QRg4+iSfV0OSqQa0HsxMQ3aszt9QNPl8ak0Diu3eVMk8j6dLzMb7Nemkh4VEFGAV6g2/ccBoqY6uS0/B7ZkZYU2JvLa1AwubWxTbqeh1KnPYKOaXRQlokY7otHXb9Zd6ABcZ310vhwzO7yA3H12/3lu+BguXrJaVRC+Kp4wdjYkXnBow7Yv0Wrr5j11Yu24rvlu/VfFpSulUudh4DDrqdKQOKfDZRClo0Qvi41npPeL28J/aRuy0eb8Q8+CfKzGZpijVQTjViyzAkiHvuzo1BXdnZSAcU3oR++Obza0oZWwc1kYgoOp/yNGIS/HM/iOtS6BlXvOBor1EwHXaScfg1BNdmdF4pxP2doo3VP88QaC06usNWLt+K3YUl3kAhCujTR4GZffH5m07fTpi0jjIzkWZcMaMGo5hBUMVARiBEyWTIG6szX/s9OuWoEhBfipxsXHQn3YZ4lMzfNZsMv6Dys1r/HZJoHVjWgpOTfZvJ/MrzEeFKTX7UGL3pgjneTxVYjayE10G02EPtI0wwNL/yHHcCVK9XJaagvuyMlBvt6KVD48QKfKnet/SysyAEwxQidsq/YK425Bn/GknHY2DhxXgqNGH4oCh/eBQESRNTpZKXtmC3bd0fUxLTe4S02xp7RFg8jXuuLQs5I27CLFxvn2r1KxJqN0e5NLW8zweLTEbZwa7Tr3RPrIAS69fw4E7Vaqoi1KT8WBWJqptVoQDi/vS5jbFbgpkoxo46kS/dhK5zVH710bU/x240/JRow5CanKCcDIixk46HVE5cqRnchUpqV9vbNbe7jNl2BHoX3gIEjU6adF8QglackZ3J/gZpSaTF4lAb+tXSf8RBVhFesMXAP4lndh5KUl4pH8/9HbQM13/yEtdSmvMWgh69cseeaJf24iSRVRqP1Eii1WHXvqk179AZfVku4GJ8bB0UOYk36fu3JgYHBgfh+FxrtyCmzs6sKXD+zWVjPIphSOQmJaJtP654HTyxnNLRSn2bv7G5+OIWxehymt4Y1U9ahluDU7w95WaTHN7ci206ivSAIvI870SQZ6RnIg5/fv1Gssovf690dii6PpHTon9DhiFAYewszgHsrD+QkYGDxmCVV98jrf++yY+XrYMeyoqAukmrNsUpCZh+OBsHDliGPIOLMBRRx6COVOfwQqjvEf6EQnxmJiWilOSu5Pvuie50tKK2fXeyWkzRp4ILiYWMXHxyMjJQ2y8vB2K7IyVv67xG39INq2F2f00JwK8urIezQywdoK/o9RkeiWsF1RmcBEFWIX5hrc4DtdK53JsQgJeyO6HvQEYkYNdNKVBytRP6qAC4frnz6AeyJjam/ahYt0qOFq8I/QPPuQQrPy8++WuvKwcf//1F/766y9UlJejvNyV2IH+VQpmw+LicG5KMobHu04lxA7wXVsb82SidD5js7NQ2daB0mZvHiexjGSdDkWZaThimB4HH1qIY/99koerhGnL35j62OsobWc7ERNQ3ZyRjqP8xPrNrW/EUovnWFIKRiDO7QGv45CWNQhJ6d3ZmqRzpT8mNVt/8usVr7VHPLmwTGDwqNH4ePBXlZhM7yldl3CqF1mApdc/y4Hzeo49KC4Wb+b071FaZDVBylpe/8Sbh1wUOixNaG2sg93aAXurBZbdv3X5EYnrzn7sMVxx5UTofFxjxPUJ1AjAftmwAS+94OkUTWC1IKc/0hiymp1OEBfTd23t+LW9A5UO5e4ThcmJmDnlGuhHH4Ttazeisr4RZSUVyBw0AMOGZIOLj0f+yOE+mSF+eu9zPLhkFdN9JEXH4Zb0dExM986ezfpS7rE5cN7eKo+P4gcORfJQT/teQko60gcO9nlFVHJtfy83S7NTVqPDiUkyqb4cDpxlLDd+GU5ApHQsEQVYclmfyQbx0aCBqOuhPIQUUvNCo0WRT1Vm0Uj0P/RoRaEeSheNeNvbmhrQ1lwPp93Tz4Z32NFeXYaOSqOXuNtuuxVXXXMNUlJThR8lZcP6Dbjqiis8qr6WPcDv6cTdYIfVBrpeEYApBa9rx47CtSqDqJ2t7Xjx4Zfwzl8lzGmdnJSIWf0zmSDrSw9Ta+rxfVt3QHpsaiZSh3lFhyEmNg4ZuXRF9L5euuX7Ay0tbVnlNgfuqPW+0gonrCi9jJKtH3ydwjzDrZwOr0olJXPAF0NysC/EXu5kq3qxwSKwgPordKrKPeo0JA8c4q+q4s/pFNXatA/tzQ1+E6bSaavV/DecbZ58WCNHjsRVV1+FI488EknJyX7B64Xnnvc4YdHp6v1BgVGCE3AtaW7BLpt//y+69l1yxMGYdNeVyBjo4jqTK/vK9uLeqc9iG+MqSaeq2Vn9mHYqkmdzwSpTWAAAIABJREFUOtHOO2EHDzvR8RDlodtGz/P4vLUDCyRJQDIPH8ccCsdxSO2fg6T0LNmxln3/iSzTg5Yvhn912PBQPZvAz8Y7i8xmMxvZFe/G3qkYWSes/PxLdZyO6S355eCBwsYLVVHjqa71qcra1iJc+6ytZE9R52fWtreUedoaP348xp8xHqNGjRSuiQReSUnJSEhMRGJSUpcaJ152OTb+8kvX/9+UnoZbMn07tfpbg1/brVjQ2KTY3kVXxdH6QUhLScaYYz0TvjTta8bzH3yJakYICp2qpmZmYHCcK5uSuBBQ1TnsAlDJFx7bOux4WPLFTz1wDGKT5U+o8clpSM8ewrx+21qaUfrlYmaXWgLW+nYrnpKhSOaamzJ218ugmb/F6+XPIwuw8vJO0ulivmfp7K2BWegXq/10yFXhA0ubokBlegEcMvbfmpyqpPapYPaJs6Md7ZWlsNZXeokpLCrCmWeMx+njxwuUy+5CIJaQkIiTTjzJo42a66C/MZONaEFTM1a1BJetWtoPmQim9cuQPVVR/Uqb1Q9YUS0CM86LVyrlgMMRlyZvaKeWOroi5uQhLsH7imj85gPmy6GWV8IVlja8zcqaA3QUm4zy91Z/i9bLn2v/DQ/hhAoHD87n4uJNrC6ezErHwQmuFystCl37KCegUuZPegHMGXNa0LYql31qH9qa93nZp4Kdl625AR2VpbBTgC+j0HXx+OOPw4gRI1F0QCGKd5fgtttu86j5Xu5AwWeJioPn0eJ0oIOM/6Ln81hwiJHsrAROhzhOh3iOPvP8kIBrVv0+xScuf3pYOzTXp61KLY32PTUNMIpOcB4vhT4HQ1fEbCRnuJxx3UXuWqhlYtaFjRasbmW8kvL8n8Vm02H+dBiun0cUYJESi/L1NnAcpSnyKERJO06D2Cw1JyoaAJ2qckae6MVMqXbB6fm7pVGZfUqtbGl9Ai7Ul6OlvsanKDLMt1g8bWC/5g/ualNlt8IWQChUHMchmdMhWRfjAV6UmmruvkbFxnm5wc/MysS5otAeaT0CWeX2Th7T65rxp4iyOiHXgKRBvoOhxX3GJ6UiPYeuiK6rKQuwkjgO7+fK277UrvkT9U3Y2MHM/Ly6xGzyyougVn5v1Y84wCrU60s4cF675YqUJFyW3h1/FohCyaeKCPWUlviMAcIVMBi/qmDsU0rHKVfP34mL1c4NWGpPKXJj6B8ThySJewQZ51e2tGKHzYYWiae22NlzS1sbSu12PN9g8fBmpzoLcuTZQtsE+5V/w79rzERd3SaYBdxFLWBRO11MrPCKGJeQhJIvFntl4Dk6IR4PZQVnGxTrWHoq7PrMyb9cXGa6M9i901vtIw6wivT6bwHO65lmXGIC7u6n7KmepWxWSnhfi0KG9ezRXvkwFK2jlvYpRR36qaQGuNyA1eSwo0kDihoCKwItuUKnrmm1rkSyl6emYFpWN2NCua1dMDNVO3jcXdvgAVqzsjKxp9MHjPzFKOzmyE5HUTVgSw6YSy3BA5YwAQ5I6ZeDijVLvaZ7Q3oKzk3RzrR0RWU9MySJd/JTS8pM87TYN70hI/IAK1+/ABx3k1RZRbExeHagb0OonILJCfTmGmV5JekKOOhI//xIrL6cDgfamupDYp/SYvMoAS6tASuB4zAwVp4BQRwiI36hdPBOV2SDcCXlsLCpBatb2Qk8yBUjTcfhyIQEwTu/fwxQo9gFxvulMJATlnt9BOfeHd7B6vMGZGjGkVXvcOJ6GadRp9NxfmlZ2Wda7JfekBFxgFWYb7iH4/CcVFlk1Fo2yNO4qVShSk9XgV4ByT7V2khA1ejXf0rpmENZj75U1poy5qui1oCVotOhn+SERUb4LR0dWNnSJgQiu4sYsKQnPLI9it0PyP9qWmYG05aljjdNW8Cy1lUK/nHiQrkMKZZQq+Ir63MkJ1HtPKRqpaaekVOQnz9ex+mYOdVeHUA+N172eL8Dm17X5GFUZTUI5ApI9qm2xnp0tJLhWp3/lN9B90AFcoegL5f4VVFLwKK/loPi4gU71fet7fi1wyoAFCUBZRW3bYp8qGqctm4HT3iDipy/mHdbf4r0lp00ZBgSsof6a8j8vLV8F6w1rthNdzk7ORE3ZSgLF1LS6XJLKxY3d9vcRG2sxSZjaFkDlQwwiDoRd8LKy8sbHK+LYdINPJCZimOT1K+HL8BS+wpINo8OS2NXfF8QaxMWTaWOp1oCFoE4na7K7U40O3khgHqnzQYK52F5ww+KjcHy3IESsCI18fil3YYnRY6SbsCiq2OL0yl4sAue7KpfNb0BS4kfltziNf+zCQ5J9IGW10Hq97l9zfieFY3B85uLzSavNHlhsdEUDiLiAIvmVag37OMAL4PV5anJuDyt20tboQ4gB1gUXjN47L8VkesJ9qnmfYKNShrfp3Qc4VjP1lCLltJtXUNzA5a6lzZfM+ORqotBmuDi0M0vRddCeimkH3EMIl2dBgpOXu6t67JhEViJQ6YIsK5NT1Zhq5Ibo7aA1fDbWo+OtL4OkvC7axpgYiefeLvEbLwuHPeZ0jFFJmDls6mSD0+Iw8wsVwZoNWVhI9tgq4tLQMFZV/t1BiX7lKW+OiLsU2r0QnXpWtj01/quZm7HUTUvbUr6pIxaSeSbxcUgttO5lBxT6VR0dVUtKDUalQf7peHoxDgXXAlYxeHb1g6BOFFcCLCuSEvS4CWTx7etVg/5crGE/uZJjxotxKYhKlpfB9ucPK6QS1EPflqpyfSsv3GG8+eRCVgyNDPkfPdeTj/oJJ7U/haA/jKLrxPi+qx05VJ5LftqQD99tTT88WMXZY07NEdrwGLpjjYnYZL4BHxYfBxOS0oAnUzI+3yb1cYMRifAuiY9udPfKvBtLnVr4OITkXHo2ICWmhXXSQB8jB9eLjWdbWm34lGZGEKed55YYjb/pEZeuNUNfCV7cSZFQ/UTEMMtZw3h+f7pMHSGjigdoi+3hoSMAdCffplPUWRcb9jLjBhSOoSwrtdSsg22xlphjG7bkBM89vhI6KrNhFzXPSWPItL+TkkiQ3YaMjjeFTPI8+A5gHOJFF0p/YyUB6bXdz/KuGmSA5mfWI/UXmvvdpK5pKkFH7Yw3Dt43l5sNpGjl3KCskAmGeI2EQlYQ4cOzUqIia1j6eaW9BScFYAD3k3V+2S52IeedIHPgGZKm1Vj/CfES9V74juqy9FWsUsYgNh5s9zGZvTUaqTuE9a9tY2K06RJ+yb3hoLYWNDJrCAuRjiZFbpfkskA32UKc6OZp4QWHrhSxNwZzAuh+KRKvWjNMkoyZ9Q1YruVkYuQx48lZqNnJLtWC9WDciISsEg/hXrDPxxwoFRXJyTGY1o/9SEOLzRYZDnZKVdg7pjTfC7Lvj1G2Nq1ZR3owX3gsyuxsyO91K0cnCPUDyVg8eDBgQNlIFpq8a3XsWPHorCoUBjTunXrUVrin+qJAIyK+9+cGJ0AZu5yWGcgvXRfpB8yFjoGA4O/tWI5jGp9HaQxXLK3DuygI/6JYpNpur9xhvvnEQtYRfn6heC4G73+onLAe7nqHUh92bGoj4J/XeMzZrC5rgptjcxDX7jvAUXja/xzPXir66rx2aAcgWMq0OBnXx26T1VElvhkfbMsW0ZySgqI0+uiCycgJ9cFoO6y7uf1eGbuXLS2KI8LVaKEYK6D4lMq9RWK6+DWDitm1TczpxLJtMjiCUUsYBXq9RM5cEwi/af7p3clR1CyEd115OKv6POsg8f4zHTT3tKEpipPh0A1fYd73VbT312e71MyMwRe9Bq71YNWJvg50LkKKLU5MKO+yYOCmgDqtfndZLNSkJL2XVVZhWeemYtt27pdMoIdX3xWLpL1BwckRmq/CsV18L+NFqxkUMrwPO9ot9vS9+zZE/FXgIgFrANycwfyCYnVrN1zRWoiLktT7zns61pIPlmFZ10ju1mJx6rWtDOgzRwJjcT+WBST93pOf80Bi+BqbasVbzS3eIHV3GeeETi61Jav//c1Pl7+ic9r4uCkFNQnufYL+dNZfZyUA70SSu1XobgO3l7dgAp20o/vi03GU9TqLhzrRyxgkTIL9YbfOWCkVLEHxsXgqQHqA6Gl8WhSuYOP/bfPxKe15l1w9kKqsZ7YWJTcopHcGzoLXQtTdOShHjwttdteJUfvc9xxx2HmrEd8TjMtPV3gm2qxNMMuScxBDenEVVlVhf/c958uORPGnozMcWfBkeMZZkMyfvtiBYwbv4ez8xrsbhSTlCokoaDchEqL1Pk2FNdBnwHPEZzpWarjiAasIr1+LsBNZW2cxTn9kK4wpZW4va/XQn/G98aqcnQw8gIq3djhXk/q3kBRBc1BUMyI7VX+EtHOnDkTxx3v7f9EVM5D8vIRn9AdktXc1Ij62lomcJ15Rnfi8GteeNenyq3WDqx56xXU/LXFox6BVtpBYxQvlzR+MBTXwVWWNrzBpkSG02E/prS8fKPiAYdxxYgGLMNQw79iYkDp673KrenJODNFfZjO+82tHmRtUsFF590o6/lOiSIsdZ557MJ47VUPTWw4Jt50etwIBrDoZFVj5/FkQ7NftwViP53/6iteBvbcwUO6UpY1NjYKCWIpcWxGRgZYwKUGsNwK2rjyI/zzzace+mLlJ5RTqPjBguqE4jr4UG0j/uqMBhCPgwcaS0xG9dcN1bujZxpENGABiCvM1zdyHOeFTKPiYzG7fzfZm1J1+uPG8uX5bm1vQ8OeUqVdRVw9aZjOiwOykB+nbgu5T1U0ebms2aceMgK7i3fCLKKWofqUMGP+/O4M65Tdh05XVMrKynD8Mcd06fSDZcsw9rjjhP8XA5cbsIYmJ+PUJxcoXoOfPnoHJT995VFfiT1LqrNQXAcbHE5cK8N/xfP8uyVm09WKJxrmFdXttjCcTFG+YSk4eLmik0fNuzn9QPnt1BZZetnOdPODj/u3rMhq498Q8Z6o7Trs6zf9s6kr1+H45ETclp5C4Xx+C1Uh73gq9Ar4ZlOrl8tCXmIijp94C+JHjYHz1x/x8bsLvFgzJ0+ejAkXXiDI6de/P7L6u6iQ31i4EI/OnNk1josvuQTzJBmrd/z9N84+y7V2w9PScOzj8/2OW1xhxbxH0dT5sKLUxUHqzhCK6+DnljYskLsORjhhn3SBFGw1VWva45UL9fqLOHDLWB0HmueNFUwrlu/rWlhfXgq7lclF1OO6CUWHYntMso7D0twsgfRTju1LfKKiAGYiS1zb5u0hT6eqobfc7zHk1ndfwbJN3YHX9CFdDRcvXiSkJCNDe3buIKHNV198gZtuuKGr/SOzZ+PGmzyJacVZrAMBrA9m3YsOihmNiUX6gWMUOZBK6WRCcR2U824Hz1uKzSb1XtSh2DgayYx4wDIYDIk6J1/PuhaOiI/FYwFcC8lpURyOIdW1r2thc22lQDHTV4vUY/uxrAyMSOh+MXMBlMufikorD2xss+Kz1namnUp8qmLp7I9Zd2LrPk/6averIRncCw4Y1tVs1iOPYP26dTj00ENx77RpyMvL8xApBqyCgdk4cYZyavMt33yB7Stdbn9KKZJ74jro63WQB7+kxGS6si/txYgHLFqMwnz9Mo7jLmItzBvZmRgQ4535198iPlHfjI0d7JT0lINQ7lrY1tyA5po9/sRH9OdiIzJlV57SLxk8RRZ3FgJ8AqkNHVYmk4K73vEFRSi89k5wmfIZbrgd2/Dh/Ke9roZPP/O0kLU6OzcXaenKbJViwDrugANxwJ0PK1qHVosFyx+9F86ONqhha+iJ6+CHllYsYbOL0h18QnGZcYWiSUZIpT4BWIY8w/kxOjAXZmJaEi71kaNObp0CvRbarB3YV14cIcsf2DClX8SxifHQx8bCwjvxp9Xu98WPej3vpPHIvGiSogHUv/kcVv2+2aMuJX19Zu7TSEpKxmDJSUpOqBiwWFdQuXZfLnwR1dtdXgFq2EZ74jp4c/U+VDuYvnBNxSYjJTqMaHYG6Zr0CcAirpDCfH0Fx3Eug4aoUFDr6wES/PsK1fF1Lawu/SdsyPzIadHR2ozEwcoTf/pDEcGJ9M/1XRxZ/uqLP6e0Xudfe6dgWFda4tpb8fOsu/FPm6dt0H3K0hcUIjbOf9ZvMWCdePjRKLj2Lr9DKNu1A2vnPynMVamhnYT2xHXwb6sND9Y1MefAg59XYjIxfRT9TjqMK/QVwEKRXj8H4B5i6frJ/uk4WCVHFskJlMGhvqIU9o7eN7yLvzRphSMRI0mZHsy+lJ6ylMgKBKzccvmvPsE7n3/MPGWJje++xvHxR8tw/333CVXOPPN85Pz7Ep/Dtlmt+GTubLRXmVQZ2kloT1wHX2qwYA3jAUOYlMM+rLi8fLeSdYmkOn0GsAoHD85HbJyR47wf2Y9PjMd9AVDO+GJwIPrkA87zIosQ1j5cDO/iL03WQUchJjMbNg2BVBwQ7W/TBwNWbtksAzydsg4/fDT0hUUgI7yv8sJzz+OlTleHSy6dhKTjx/us/8uXq7DjC1fSU6WGdrfAUF8HLU4nrq3aB2/mK4Gr8IcSs/Fkf2sSiZ/3GcAi5RfmG77iOJzBWog3s/shS8R3pHSxfIXq5J92GTNBRXvzPjTV7FXaRcjqWXb91pWii9gmsg48AvUVRjjt7MeEQAYi0P5S2qrOxKRklCZWA2ebpYullOReeNYEpP6L+S6iuNu4bZvw3zde8KhPXFizZs/08MmiCvRaODQvz+OlUAxY5153F/qNPlq279rKvfjfS3ME/akxtJPAnrgOfmRpxXsyxnbeiYklZcb3FSs2gir2KcAqyM8/V8fpmFltJ6QkYlK6egYHX6E6A0eegH7DRnktN51i9lX0vse7+K+8mx7HTo8CFSUgrnItC31JqRC5ndTGRa+BRffM1qS73Y/dg3W1LrpmdyG/rEGDBwkuDhSeQx7vTU0u247YH0sMWBc+8jxSO51OWQP74o1XULPN5QOmxtBO9aXc7Vo7i1JyDsrs3Oj0XkMeqC4xGQf3NWO7e436FGDRpIry9cXgOC8ekkQOWJSTBUqNrqb4CtVJGjAYeSdPYIqrLvlLTTchqStOKSXm8+poaUZjVVlI+iShYudSugpePHOeT9cFNQNhnbLGjz8d0+6bJrg4rPt5nYcD6THHHouPlrvo/8WA5Svw+c+N67Hlo/8KhIVqDO3ueYQ6dtDXC7azDzEzsPaFum+vmp3VS3UL9PrbdeBeZnV/bVoyLkhVHxDtyydLzuu9vrwEdgk1SU+rRA6waByhyvQjpVJR476gVD+sU9bHyz9GZmYmLK2tOOuMbquAOERn4mWXY+MvvyAxJgaXzlvE7I58rla/+gzaKopVG9pJoNSxVuvYQSfP484a4r1iujJYHRxyjEZjg1JdRlq9PgdYQ4cOTUqIiSXKBK+QhDSOwxs5/VSfsnwZ3+U4spqqK9BuaezV/eALsKztrWjYY9R0fILtZsemLnsWna4ueW6xpn2QMNYp68qrrsQ111wtnLKenftsl8f7DTfdhEMPO0wYwxUTJmDTb1t9xhF+t/xDmL93WRXUGtqF06WImZX+X+vr4NrWdrzQyKZ+5nm8VmI23qq5wsNIYJ8DLNJtYb7h/zgOnoFpnUq/Oi0ZFwVwypLzycosGons0Sd6LWlrQx0s9b1LNSM2ukvtbaFITSalAR4zaAgOfuCpkGx36SkrJycHi99ZhNjYOOgL2cykl/3rX9j8zw4cmjMIRz70jNe4ynbvwo9vvRCQoZ2EsfzTtI4d9OEoSv0PLykvd6U36qOlTwLWkCFD+ifExJax4gtT6JSV3Q9JlGpYRZHLDi2XtzAUgKBiuEJVy66tsFtccXjSVGVaj0/6MkZ9nnHsSci94ma1w1ZUX/fzN3j7w7c96k6bNhXjzxgvG65zgMHlPMvyciefq9VvzkfT35uEOikFIxDnI2SINUhrXSVazX97fPRebhZoz2lRvmppw/wmGVp2Hh8Um42Xa9FPOMvQRpNhOMPCfMNzHId7WEO7LDUJV6Qlqxo1MQ1MqWVf8Vh2LKfdjlpz73K8W3Zvhb1ZBrA0vhLKOZIemjsYh066C4mDPWmIVSlfpvLGB27y8H5382XJnbLcgMVyGt209hv88/lSwdAem5op0CCrLeITLbU9OiEeD2VpR5ZwQ9U+1MlQUtt456Fms7n3X3rUKk1l/T4LWAaDITeGB6VjjpfqhII4XsvORH+VQdFyPllyiVZrjDvAB0EhrHItvaqLn9elPmNa27D8eb4fYSjEodfdDS5TfQo2OT2wvN/d4TpiJlJqX15WjlNOdF3dz7tqMjLHnNAllnyuvnnjBVjJnwyAEmI+6ZhYJ8xA6Y1Y8/UV5MyDX15iMgXn5BbsZuuh9n0WsEh/hfmG+RyHySxdBmIMlbsWyqUA6+3kqh3VZWircEVnDL/odg81aH0lZCUKleqdyBTHjD4agy69HvFJ6k64ct+Hz6dOQq29O77X7eIgDYresG49rpo4URBz+f8t8Oj/87cXova374XPAjG0Uzspbzv9TqvrYKPDCfpjKefuawd/iMlk8ryL9hCA9HQ3fRqwhgwZMjQxNk7W4WjegIzutOUKNC+XVUfOH4u83cnrvbeKtXYPWst2sAFL4yshdSJ1mJSbt5bAxSL5I0dSyltILA4EXFQ+mD8f05962sulYcfWLfh16QI42iyCR3v6QWNUZcRxz1GaxkvL6+ArDRZ8LRMzuD+drkjXfRqwXKes/Cc4Tvcg68tzSHwsnlBJ8Md6LZSLK+ztpBT2liZYdrpoWbxOWCEALOpH8MMiw3NnqI4vsNYCuGKqyrH0yQc9+LLOv+AC3HbbZA/qmafuvBMLV67CsIxMjH3U5abXWF+PL1+fh45Kl3tHIIZ2ascytmt1HSQ66Xtr5d2qbLyzyGw2l/TWH8We7rfPA9bgwYOT6ZTFcRxxA3mVO9NTcFpKomK9T69rwp9Wm1d9Vip7a2sLGirJjNY7xWZpRMsuV4qqngIs6oue99vKd3VlivY3+2CBy/jsDPxg7vYpE9Mouwn+Lj7pJGw1l+HoYQfhoDtmCEMSfK5++lwA10AN7SRHamyn3wVzHaToimqHQ0gN8EKjxWVo76ShFj848uCfKzGZpvjTb1/6vM8DFi1WYZ5hMqcDM+NAMscJBnilOQzlYgtZ/FgOuw115t5zi7E1N6Bl9289DljuLwgZotsrS0MOXL4cSd0vhqOGDUeLzYaT/3Uh9GddiJK//sSG9+Z3BYcHYminebKM7Wqvg9s7bNhutQtJOehHSeF5tHc4bMMqKipcLwX7SdkvAIvWsihfvx0cdyhrXU9IjMc0hfQzcnYsOQfSmtJ/wPPBZ0cOdD+6vd178oQlHata4KL29KpYeNYlSD5ohKKpb3v4NvzWGfBMDcSnLLvD2ZUt5+y7ZyJ9qB4rnp/jCr8JwtBObVnGdn/XQTeF9B9WG37psKKVEcSsZNI80AAes0rMRk8KCyWNI7TOfgRY+ceD0/0kt04zstJwVIKXB4RXdbkEFXKG9/qKEtg7mQx6Y4+EA2CJT1wd9Xs96Gj86WRoSioOO/F0ZJ91sc+qLBcHd7jOmm++xdNPdxvcf1j+IYyd4TfBGNrlmFflroPurEHBgBRLCTyPt0vMxuv86bIvfL7fABYtli83h3Qdh1cHZiJVQR5DOX8s6SmG+mysrkBHL8YUygJWWwsa9vaOfY2+6O3VZaqAy23nyhl/gawTqtTFwX3Kem3+fHz99Tc4ZGAOci67Gd8teEZwEBVOYgF4tLu/+CxjO+s6uLa1QzZrkIYgsqLYZGRTh2jYSW+L2q8AKycnJyUlMWk3B+SyFH90Qhweykr3uyZy7A0sw3uoWBH8DrKzQjidsKRjVmucd7cfkZ2D/BFHIm38BR7+VKxkFXTK+uZ/X6OquhrHjx2HzTv/RntdpSAqGEO78Mfoz/VdwOcem/s6SCfxlZZ2fNbaFvCVj2SmpqXB0tysaLl5HrNLzMZZiipHaKX9CrBojQry8s7T6WI+lVuvuzNSMC7Z96uhnOGd5fFOjA3E3NBbJZwBS3xVbK8pcxnnFbhDiHUpBq+kpnovFwc6ZbVYLEKTQ4cfhj93bu9qHqihnQTI+ZyRbx8liw3m2kcgdd311+Oiiy/G0DxXSBN56n+8bBneevNNWQAjm5azA4cbK43a0nD01uZl9LvfARbpoFCvX8KBu4K1DsRf9OKADAyMlc9lKGd4Z3m89yb7qGBj+eNHYZqh9nTXYk/TeOmaReDlvrKpkUtxi5X76lDX4Z1Zmq6U7RwHp8PlFR+oRzu1Fbz66fVVAq4DY3SoYfNUKZ7GhRddhBkzH0F6OvukT0yqj89+FMs/9kzI0dUBj0XFZuO1ijuMsIr7JWANGDAgLT05ZQcrLRit37C4WDzVPx06mSh7OcN7ev5ByB1zmscWcDrsqDWFJgia3Bbi0jJlt1xvuzUE810gB1Rr/V4PXvhg5InbBmpotzbUwtZYAxudBDUsg4cMEU5T191wvSxQSbt7bPajWPTWW16jEE5ZHAr6KonffglYtMqGoYaTY2Lwndy+uzQlERN9cMCzDO9yL4XVpX8LqUy0LnTdIztM4pBhiE1O9RIvZv/sTbeGYOZNLhFqXxb99ec2tJNsh7UdDou3J7nTYRMSaVChOoGc+HyNg659Z5xxBsbTz5nMvCn+poH/TJ3GPGnxPO4tMRuf9ysgAivst4BFa1Wo17/KgZNlaJyTlY5DE9gJOuU83lkvhXVlxXDYvK8pwe4XMaNoYm4BEgcZPESKfYTCBbDcICEeKAsw6HM3l5e7LmWwCbboklIRnzFQAEGtQcjf2LQAKXEfdD086fgTvGxaPGAsMRm1y5zrb2I9+Pl+DVgUtpMUF/crwB3M0nmWjsO8AZnIZKQHk2NuYL0UNlSaYW11/bXWskidFmOSUpGUf3DXaUv8ihUKehmy5ZDdiX7+v71rgY6iStN/dXcSAiF1FkowAAAamklEQVRAeAXyahJGBQVxcQYCu2dxZoTFnT2LgrvjyiB6dmcYdx3C8XHOrMdJXHd2RwijjEdl1hFQxgfqCurRVWEUZAx4UEiCogLddOdFOu905510as9fSSW3qm9VV3f1o6q49xwIdN/HX/+99eXe/37//4u7EWFH0hsQPsOCP9Gx+EouP7z5ZmEntf52dS5ZNDoik8NKfgkE4SZPnUfxBBHNWEZoc0UDFk5AXl5eUSpnqwSOCz1TAUC+ww7bp0+BCbIIpZHcFAaaL0NvHKI2IBgELpyRgAU+U0pWNjjSJ0Nv/bhbUEiIZBXn5zEgGuiD4VG+krjbYQCk7bXF3ZRgl7rnnrGbPm0tI6uFu6y/WByaag4sany/4gELl0dhfv6POM72jtJSWZyaAqVZk8FOGOGVElPQbgq7O1qhO07x3Wm+bLTncEycDIVrNwlf9aFBu9sPnbUXR3dAIzuiIdwJRUgriOz1ujJq33X33bB1W4lmA7perdBsWVY1vjPAGl0tRXkFO8DGPaC0eOQB/yLxKYw3F4u0Zeld/Kx99BqYNWsW/Ndv/htWff/7EXWCu6TPTn4GX587J/zBJLcLFi4EzKm4vHh52L4Of/Ah/PxnPwutNwx3u2o90sD3YXszdgUGWMT8FOYXHOE4TspLIL7fkDEBNk4ezx697nJryOzSbgpjHY6YHJTmHmLkJfe9Zcs0i4c5BI1QrlmwQLJbosmFYPXs7mchM3OykIE6XEEi6JHDhwUyKIIUFpEwGgm9QRxnyaLFoYRSHt5y1XjWhZPFTN8zwCJma35WViafMfkMLXO0WO2nmZPgltH4WbRgfjTAGhocgLbakVDFegse3ZBfhUZu5AQly6CN3KHc3BEWNu4EsCDZEXcGYtGyO4hEHydPnBSq19fVQV1dnZCOvrqyEr49fx56uum5+uT9cympMGHKDMnHfZ0twA+GBiDGo90jpb8KERHl2HiHlHcsJsDAykVXXa34WAhUv9u1C9584w1JHb3HyC3/8lMBAOUlyME0K3GyGGDJZrgwJ+cqzu74QskIj9UfnJoBK9PTIBJqQyxS10cSzTMSIKDVFQEJAQiBaOHChTAZf1478n+jlGZfI/g7O6GrqxtcLhd8+mkFvHXokEQ8tCtOnJkj/KGVxlN/An/NNyFf4W7w5QOvUtuIWaTJLzH7dEbGJEloZvL7XU88Cfv27oUAEQYHd2/by8sFveopSreFYLFjIQMsyiopyi1YC3buPbUFhEb4N7r6qNFHaVysWGTQkccN17PAxbb4Uoo7IwSlnNxc3S9PLOTS2kdT42UJALguuuHee++VNKfNB1mh/UIVNFeHRh5CXRz784hrk7zQ7EalpaWwYmUxNS+i3DCOx7+tJSUCuz0WhcwKJOnPYsdCBlgKq0UtSqnYBAP//bkv9ChBc4JurXNBcCBy8qgjLR3SM6YAZ7OB79QRAI4bCcQ/+teEqTPBlpoW8hToRtLdUi856iA44fHNjMCk9FI3NjRAd5c0msGa1X8TEWDhrWnNnw5Qh7jouaSIJ3K7kRhLftr06ZA1ffzYSR7XonHD0QpoK5cXg69R6jaEt4Vur2ea1j6MXo8BlsoMzSsouN8GXLliFfS2oWiQBljtDV4Y7NNmZ5GPl5YxFSbPmA02m7JDtpKMTZXHocNVLXz99rvvmmr3pOXluVxfDz3dUmJqpICF45z/36epwx09flyRRyXfNS1atAjKd+6ACenpkJOXL/SHO7GTJ08Ku1gkj+o9+qnp5N+2bIH33/8gtMow3Oqq9UjPyVqUa8A6DLDCTEpRQcEjANx/UKspABaNi9Xhq4WBbm1xjWhj2ewOyJyVA6np47eUWtYTedz54yuvaLom19KvUepcrq8LMbhHA1i1xw5Cb0tDyGOp6YxmfP/gw/chNS0N8gqkblKJ0Ndzu3fD4795PGQonodd7hoPNQt6IuSK5RgMsDRoU4mjhf7MtIAONMDyNzdAX0C/L9zEKVmQMZ0af5D6JD3N9VD3ycgv18d37IiLe4gGFcatSkNdLfT29Ej6/8nGTdDU1DT2WTgbFlZUMrw//Mgjqnam+U6py56YE1HtphCBDm/0kM7w2cmRm0+yiBcdeHzHfy9YsEATW77ik09g06a7QgELoNLt9dwQt0lIYMcMsDQquyiv4DGwcSP5oUaLEmBlzJkHc1fcIuk50OqD3s5Q3pbG4SXVOI4DW0oq2B2p4EhJAbvw7zSwCf9OgVErl9CGtM/ct3WrwMC2UqmvrYG+3l7JIz1w/4Nw9uxZzYCFIYCavvwM/BcrQ1QTTmfy28LtO7bD9dcvFnZYuNOSF6UIC/J6ctoI2h3DRXVwnf8Wbr11PZXiEeyHeVYI7McAK4K3N8SmpXAkpHGxEhkq2Z6aBnYHgtfIz7ojrwhPqcQrikAFhqtaX1MDfX3RAdbQYD/0drYL2bkH/O1jKdHIh0TH5d3P/Y/icyNV4ald40lrxMQXZNZpsbHAaD9xEs6NEkWRx4Y3kWSJlrs2NDgI3ktuKCt9FE6cOBEqr0XoDQywInwFC/OdJRwHT6g1owFWT2cbdI3GEo9wSN3VRTqEGq9I9yBJ6qCuxgv9fSMJJcSitsPCMD8DvT3Q3+2Hgd7xSxAhiui3p0KeIpzO5HYspZvCeKsHw0A3NtTDiy/uh5f++FLIcFaxYzHAimIlzSso+GcbcM8pNaWlru/1t0Og5XIUo+lvImYmRnvIO++9q79DA/VQ5/VAvywksvylnVn8IyE3JIIVj1mUFYqST6YatUEeLUG8KUSS7azsOQnTVFtrC7S3tkJVVTU89OBDtHGPubyeVQkTKE4DMcCKUrFFuQW3gp07wAOk0JQoN/TG2wFa7TG63WfHQg2rvXxRqiKpzWq9HhgIA1hTb7hJk4zRABZ2TPKxRBcdktqgaXCdlXB3JSbbkN+SjnbNAEunjk3fvDA//wcA3Accx4UQpOSAhUeQTl9ysoqTGV4YYCkvO3EnKq8Rjg4iN7wjtcFms2lygo7VS3Dp4gUYHt09btlyL1xyu+VdM8CKlbLN3E9hfsHnHMctlT+DPMJnX08A/I21SXnU/qa6sWB+4V6+pAioY9BajwcGZB4Ehz88DOXlO8d61brDUgKsZ3//e9UbOrnjMQIWFozagMAlL+e+OgcY8WEkrMw4rUGkM4jG+AULpVEilNTU29sDDbXja0tuw2M7LB0LzGpNiwqcGIb2r+XPJWe7Y4hkDJWcjEJmzwn38iVDPj1j0gBLbsfRClg93q9HciPKSjhqg/ymUKQ2yG8KEah+/dhjVO6Vkg7wFhH5WMiSX7Z8xO9TXlqamqCzo33sYwXDO9th6VloVmlbmO98kuNga3jACkBHknZY5A1YuJfPbPMSS8BSSo4ajg6y9/k9AhCJRQSsWdnZMDlzikSlYogc8UMxVI5WvZPJVcU2XrcbhoYG1QHLIk7QzOiudaUo1CvMd5ZxHJTKv85e+gPIdF4z9nF/dwA6fck5EqIQokEZE3Vu36nsHqlTHQlvrgWwtGZ4VgKsSKkNW7ZsgVtvWwdyJ+h4KEd+HMQxaDssq6SxZ4ClcxUpAZbcPSfpgIUZoINDEO7l06mOhDen3RKiEORN2aT5N6gmnBWFVoreqhZmBtvKuVgieTQRN4Xy8DoozzPP7A6JCWaVuFgMsHS+YloBK5m0BnxE0aCM/KAz1VU6n9o4zWMJWKStT/6EarerSoCFBve0tAljXaVOSAO7LOIGuu/Y7dJLZofDIbhchSsiu11ej2Z0Dw7BDZ56T6jvUbhBDPY9AyydE+LMda6y2+FjeTfyHRam+cJ0X8kqVuVi0Yij0e6w1ABLKcyMwDBvbIQ1P7x5bGpF8mgs59rhSIEUGYgFh4MhHDT5s+P/eYBOt9czNZbyJKsvBlg6Na8VsJLpmoOPSNpnrBQXq87rhf5+qWsOPi/pBKz1SKgGWCQdBHc2HR3tEOjsHOM+kUfQeACW1mVKZbpbxOCOOmCApXUlKNRTAqzM/Gsg+7vjCXi62pqgp6NF52jRN7cqF4vmS4haIo9FE/MXQKrGkDxKbHcMM7Ph9g0CSKGhW15IwJo9eza8uP+F6CdLR8vyHeVw+PARSQ88D9vcNZ4ndXRrmKYMsHROhRJgyR2g0Y8Q/QmTVcjdg5WoDbTwMnLASst2QvocadwqpXlQAqyfbNoEGzf+k+L0yd1hRPJoIucbE3FgPCzRRUcc2yqhZdgOKwarSStgIWkUyaPJKiQXy0rUBmR403Y85A4rFoBVXFwMZY+GsFfGptMIgEXbXQGAJQijoqLZDksngmgFrNZalxAtIJlF3D1YidpAiziKOiav9iMBLP83p4Scj/ISzi4lB6wHHngAZmfPlnTjdrmEdGRiqaqS3tb6fD7AP5MyMqCosFCohsfL+fOLYNGixVA0f+QzWlGM0mCROFgMsGKEHFoBq/nS10IK8mQW8rhjFSdoWkx31DFJnkydmQsTc8NnY8Z2Sv6E+B3tmIcAdKLiBJSXx4+MO6+wEBYvXgxrVq+mghamNnvwoYdCjoI8gNft9SQ+uHwcFznbYelUrhbAGhroh7Y6l86R9DcnX0a1bDD6R0pcD2RYFXJUErAcGVMh4zvaQpprASwEqerqakAn64qKipg+LILT/KJCKCqaD4XCzyIhOatSUQIrob7Fdlf4SAywdC43Z7bTaU8DavK6yQXXwIwF34MgPwz+pnqdI+lvTr6MVona4LvcAF2B0GxEB988BLt37xaUFglg9dRdgIFmehggjHWFBm08tsWqzJo1C4pXrICVK1cIseC1FgTNQwcPwf79+5WaWMp2xY6EWleGhnpFBU7Vs96E2fmQOj0HbATrWUO3Ma9CcrHCZYOJ+eBx6rCpsREC/s6Q3kmbTiSApeRPGA/xRRcerX37Gn3gcruh4tMKqDhxIuQIKPaDRNHhIVhlBWa7XDdsh6V1tajUCwdYYtOUrGxIz56XNOAiX8ZwEQhioJaEdNHS5IPOjtD0aSRgcY4UmLLoLzXJQ/LVtDRAcOB4OMoDoNtLx/Cw8HOkOKDS4/EIwhXlOdeBDQ7K+xQN7Ghcz86Wpm8LdHUBGuqx4BFUc7FQ4lQGWJpnXXvFwgJnJQdwvdYWaARGXhBnd2htEpN6JBfLKjeFrc3N0NHeprrDwi+1xsRSY7uTOxjgYd9wEPZFsospynceAg7+PiaTSelEAM9hKHHVevbFa4xk98t2WDGYAaWYWKpd2x0wYWYepM3KTRhwkS+jVZygxeQLcl2jjWf9bevHPtYCWKifYFcH9DVSTZIjfekwZDudzqk2Ho5G8stN8/Lk4a3gAJRYIfeg2jMzwNK8IpQrqhnew3afYOAiqQ1WuClsb2uFtha6yxPJjZqy+K/GfjEgiXZ4oE/gWwV7A8K/gxTuFW3uXF6PrndGAK1hKOEAlvAcOKMFL6Qs4FEUeDgaHISjVgcqcS50KT/sy3gFVSjKc24GG+yN9pG51AmCfUurz1u045CAZYVwyZ3t7dDSPJ6WntQLCVhoeMcy1BVq79Kqy3jxmvAXHjhA4EvZbLAET7AUmcbsY546D4blviILA6wYTvsoJ6uMFuNd6zDxBi6S2mAFn0K8IcSbQlpRyB6jdSpC6lklamfUCjBAQwZYcZgEAbhssBk4uCva7hG40rLmxNzGRQJWuDTs0cqeyHbdXQFobGigDqmQPSYq8aySOTmqhzdQIwZYcZwMtFfYg7COtwk2C823iBKR7A5IzcoWDPSx4HGR1IZwoX/jqJqYdd3b0w0NdXSip17AGqUsHAoOQNmVYiOK2cTEqSMGWHFSrLxbZ45zid0OJXp2XSlTZkBK1hxInTojaqnlxMjT1VXU1FFRD5Dghn19fVBf46WOSo1tTtRMTU31ZWZmtre0ts4Fng/JnxUMwk1Xsr0owVOpaTgGWJrUFLtKwo1iKpTpAS48LgrgNWWmpuQKpPRynpHZXXQGBwagxkOnIUgcoFNTfTNmzOi97rrrOm5cunTu0u/eOEv00bvjx3d+2tbWulI+y0EOponEz9itANaTHg0wwNKjPR1tYwFcwvB2hwS8wpFR5YBldsN7cGgIPG66YzkJWEXzv/PCM888RbUp/udjvz52/PjxkGS4eikMOpYHa6qgAQZYSV4aMQOu0efA3Rde4TvSJ4MtPQPsqRNCbF8ktcHshncM2eO+cJ46i1oB6+233v746aefuUneCQOsJL8clOEZYBlkTkTg4jlYxwFI0wXHQka7AxzpGUJPJBfJCoZ3BCxarDEyYoPaDuvcua+/3Vay7WoGWLFYaPHtgwFWfPUbce8iExo44WYx9sBFkcjsjHeP6yIEg8GQJyMdoK+6+qoXn3rqd5uUJkQeMRTrsR1WxMs37g0YYMVdxdENQFAiyjiAguh60dbK7Iz3Ws8lGBgYUAWsa6+79rXf/nbnPyhpZN2621y9PT1F5PdWST6qbRWYoxYDLBPMkxCahAP8EzURVe0xzW54V8qcQ+6w5s6de2bvvj2KYUfv+9f7Tp2/cOG7Ej1ZOEyLCZY9VUQGWCaaOXHXNQpeMQtTYvZQM0phkknAmp6Vde7lV19eqDTdrx147czzz0sBjbniGO/lYIBlvDnRLBHuvHgOVnGc4DAbci2vuSMAMHNSiuYmH/jDBPGbNm3aV68eeOVaJZ188835hq2/+MVcyfcWypgcyVowcl0GWEaenQhlE9j0NnDyIwAmFvT8Hw9RwMFmmk3MzOnr21tbAeNiyQu5w5oxc+b5l17af5WaStesWesnGe88gMft9WjLwBrhXLHq0WmAAVZ0ejNtK6Vgg2aO8e7v7IBmSmIIErCys+e4X3hxr3JiPwD48T/e8VV7e7tkF2alrMmmXbSE4AywrDCLETyDUloyMxNIMZMN2rHkhYw6mpObW7tnzx/y1FT1y18+/NnpL75YJqmjI8JoBNPCqmrUAAMsjYqyUrXCAmeHnONl5pDJ/X19UKfgAE3yq2iJUMl53fOHPV8eeO2168jPWFgZY618BljGmo+ESKOUDMGsdiw1f0IZYGE+MEUy7uenTjc+/PC/S1LXYDYct9ejLQtrQmbvyh6EAdYVOP9K4ZzNasdS8yckAev9D/7vGMdxqrepjPFu7BeCAZax5ycu0gl8Lh7a5Z2b2Y7ldbtgaGgoRF+RAtbf3vJ3l4eGBueQHbG4WHFZhlF1ygArKrWZvxEtl6KZ7Vj1NTXQ19erCljl5Tu/WLT42qVqs3f7htur/P6AJDosz8M2d43nSfPPuvmfgAGW+ecwqicozHeWcRyUyhub1Y7lu9wAXYGAKmCVlpZWrVhZrBqqWgGwdrlrPCVRKZo1iqkGGGDFVJ3m6UwgmTrgjFxis9qxlDJAk5lzSstKz65YUbxIbZY2b77He7mhQe5sfszl9awyz+xaV1IGWNad27BPVljgxKygkpfTrH6F/s5OaPaFpvsiE1GUPVp2rrh4uaI/ISqMAVbYZZPUCgywkqr+5A5elO/cR4sAYUa/wr7eXsCoDfJCAtadd248tumujaq3hFu2/PzbS+5L8mB+bIeV3KU6NjoDLINMRDLEEMLW2OCgfGwzxsfCAH4YyE8NsFavWVN1//3bqDYsv99fe/DNQ9+8/vrrOYODg/JdGAOsZCxQypgMsAwyEckQQ4necNfdd8Mjpb9Khki6xnRfvAD88LCkj/Id5XD48BHhs7Vr154r2bZVAKNAIOA/e/bLSx999FHH6c9PT+ru6b5RcXAeXnDVeDbrEo41jokGGGDFRI3m7YTGel+wcCG88967pnsodM9BNx2ykIko0idObO3t6Zke8YOxQH4RqyxeDRhgxUuzJum3MN9ZwnHwhFxcM8Z5b/I1QqATvW/GCwlY0UwJD1Dl9nrIcD3RdMPaxEgDDLBipEizdiNk60mDkEykj+/YAetv32Cqx6KFmTn84WEoL98Z1XMgWA33wzqWpj4q9cWlEQOsuKjVXJ3SWO9mdNPp7++HOq9HonwyJlYks4JRGoZtUMYyP0eitfjXZYAVfx0bfgSlY+Hp6irIzMw0vPyigDQn6EgAC3dUwMO+4QE4xHZVxpx2BljGnJeESqV0LDQjvYFmeKdFYOABOjmASp6Ho8PDcBQcUMl2UwlddlENxgArKrVZrxGN9X7b+vWwfWe5aR52eHgYGupqQ24KqYDFw6PuGk+ZaR6OCSpogAEWWwiCBmix3s0UvQEdn1uamwCD+ckLyXYfPz4ywDLj0meAZcZZi4PMSs7QRj8WBvyd0NbSQo2FJaqJJI8ywIrD4klglwywEqhsow9FOxYalfWOzs4dba0wODgYVq0KXCzmbhNWc8arwADLeHOSNImUjoXrN2yAZcuXw7Lly5J6a4jghAlTkW+F9iqtReGmkAGWVgUaqB4DLANNRrJFUbotJOVCt52bV68eA7B4y4xOzQG/H7oC/hBjerixq6vPQnVVNXxaUQFul0tSnSVJDac9Y37PAMuY85I0qWgkUjVhEMByc3MBf+IuLCcnB3LzcnXJjzup7q4AdAe6qGGPaZ37Gn3ga2oSAMrlckFFRUVYGVxeDAfGipk0wCbMTLOVAFmVMupEMjTeLi5cOBKhBUEMCwIaklBpgIaEz96eHujp6Yaeri6qXQqTorrdbqEv3C3h/xsbG8Hn80F1dXUk4gl1eQCv2+txRtyQNUiqBhhgJVX9xhtcKeRMvCWdlJEBRYUjmeSjAaCI5WMRGCJWmREaMMAywiwYTAalRKsGEzN6cVh8q+h1l+SWDLCSPAFGHN6Z61xlt8PHRpRNr0w8Y7jrVWFS2zPASqr6jT24EEKZg3U8B6vkySqMLTlVumPBISjx1HsqTSg7E3lUAwyw2FLQpAGB8pACq3gOlnAcYEA71WQOmjqNf6VjPA+HWPSF+Cs6USMwwEqUpi04DrrzAAdTbTbAnH1TR4EMb+CWcABT4vXIYqQFoX8eOngAYdfE8VAZ5KEDhsDDwsPES/vJ7ZcBVnL1b/nRcWcGDlCkDyDYcTx4gjxII++RmuGhgx3lLL9UND0gAyxNamKVmAaYBoygAQZYRpgFJgPTANOAJg0wwNKkJlaJaYBpwAgaYIBlhFlgMjANMA1o0sD/A+npSoTxXxd9AAAAAElFTkSuQmCC;fontSize=15;" vertex="1" parent="1">
          <mxGeometry x="-2170" y="-2020" width="150" height="150" as="geometry" />
        </mxCell>
        <mxCell id="nzV5PfegUvqKvhblKaPk-88" style="edgeStyle=orthogonalEdgeStyle;rounded=0;orthogonalLoop=1;jettySize=auto;html=1;fontSize=18;" edge="1" parent="1" source="nzV5PfegUvqKvhblKaPk-38" target="nzV5PfegUvqKvhblKaPk-86">
          <mxGeometry relative="1" as="geometry" />
        </mxCell>
        <mxCell id="nzV5PfegUvqKvhblKaPk-90" value="Job Notifications" style="edgeLabel;html=1;align=center;verticalAlign=middle;resizable=0;points=[];fontSize=18;" vertex="1" connectable="0" parent="nzV5PfegUvqKvhblKaPk-88">
          <mxGeometry x="0.0235" y="-4" relative="1" as="geometry">
            <mxPoint as="offset" />
          </mxGeometry>
        </mxCell>
        <mxCell id="nzV5PfegUvqKvhblKaPk-38" value="Job Process" style="swimlane;fontSize=20;" vertex="1" parent="1">
          <mxGeometry x="-2360" y="-1720" width="680" height="550" as="geometry" />
        </mxCell>
        <mxCell id="nzV5PfegUvqKvhblKaPk-81" style="edgeStyle=orthogonalEdgeStyle;rounded=0;orthogonalLoop=1;jettySize=auto;html=1;entryX=0.5;entryY=0;entryDx=0;entryDy=0;fontSize=16;" edge="1" parent="nzV5PfegUvqKvhblKaPk-38" source="nzV5PfegUvqKvhblKaPk-26" target="nzV5PfegUvqKvhblKaPk-77">
          <mxGeometry relative="1" as="geometry" />
        </mxCell>
        <mxCell id="nzV5PfegUvqKvhblKaPk-26" value="S3" style="outlineConnect=0;fontColor=#232F3E;gradientColor=#60A337;gradientDirection=north;fillColor=#277116;strokeColor=#ffffff;dashed=0;verticalLabelPosition=bottom;verticalAlign=top;align=center;html=1;fontSize=16;fontStyle=0;aspect=fixed;shape=mxgraph.aws4.resourceIcon;resIcon=mxgraph.aws4.s3;" vertex="1" parent="nzV5PfegUvqKvhblKaPk-38">
          <mxGeometry x="510" y="50" width="80" height="80" as="geometry" />
        </mxCell>
        <mxCell id="nzV5PfegUvqKvhblKaPk-37" value="{artifact}.zip" style="edgeStyle=orthogonalEdgeStyle;rounded=0;orthogonalLoop=1;jettySize=auto;html=1;fontSize=16;" edge="1" parent="nzV5PfegUvqKvhblKaPk-38" source="nzV5PfegUvqKvhblKaPk-27" target="nzV5PfegUvqKvhblKaPk-26">
          <mxGeometry relative="1" as="geometry" />
        </mxCell>
        <mxCell id="nzV5PfegUvqKvhblKaPk-27" value="Code Build&lt;br style=&quot;font-size: 16px;&quot;&gt;" style="outlineConnect=0;fontColor=#232F3E;gradientColor=#4D72F3;gradientDirection=north;fillColor=#3334B9;strokeColor=#ffffff;dashed=0;verticalLabelPosition=bottom;verticalAlign=top;align=left;html=1;fontSize=16;fontStyle=0;aspect=fixed;shape=mxgraph.aws4.resourceIcon;resIcon=mxgraph.aws4.codebuild;" vertex="1" parent="nzV5PfegUvqKvhblKaPk-38">
          <mxGeometry x="300" y="40" width="80" height="80" as="geometry" />
        </mxCell>
        <mxCell id="nzV5PfegUvqKvhblKaPk-36" value="" style="edgeStyle=orthogonalEdgeStyle;rounded=0;orthogonalLoop=1;jettySize=auto;html=1;fontSize=16;" edge="1" parent="nzV5PfegUvqKvhblKaPk-38" source="nzV5PfegUvqKvhblKaPk-34" target="nzV5PfegUvqKvhblKaPk-27">
          <mxGeometry relative="1" as="geometry" />
        </mxCell>
        <mxCell id="nzV5PfegUvqKvhblKaPk-76" value="build project" style="edgeLabel;html=1;align=center;verticalAlign=middle;resizable=0;points=[];fontSize=16;" vertex="1" connectable="0" parent="nzV5PfegUvqKvhblKaPk-36">
          <mxGeometry x="0.2035" y="-4" relative="1" as="geometry">
            <mxPoint as="offset" />
          </mxGeometry>
        </mxCell>
        <mxCell id="nzV5PfegUvqKvhblKaPk-34" value="Git Repository" style="dashed=0;outlineConnect=0;html=1;align=center;labelPosition=center;verticalLabelPosition=bottom;verticalAlign=top;shape=mxgraph.weblogos.github;fontSize=16;" vertex="1" parent="nzV5PfegUvqKvhblKaPk-38">
          <mxGeometry x="33.5" y="40" width="77.5" height="80" as="geometry" />
        </mxCell>
        <mxCell id="nzV5PfegUvqKvhblKaPk-29" value="EC2&lt;br style=&quot;font-size: 16px;&quot;&gt;" style="outlineConnect=0;fontColor=#232F3E;gradientColor=#F78E04;gradientDirection=north;fillColor=#D05C17;strokeColor=#ffffff;dashed=0;verticalLabelPosition=bottom;verticalAlign=top;align=center;html=1;fontSize=16;fontStyle=0;aspect=fixed;shape=mxgraph.aws4.resourceIcon;resIcon=mxgraph.aws4.ec2;" vertex="1" parent="nzV5PfegUvqKvhblKaPk-38">
          <mxGeometry x="33" y="420" width="78" height="78" as="geometry" />
        </mxCell>
        <mxCell id="nzV5PfegUvqKvhblKaPk-32" value="EC2" style="outlineConnect=0;fontColor=#232F3E;gradientColor=#F78E04;gradientDirection=north;fillColor=#D05C17;strokeColor=#ffffff;dashed=0;verticalLabelPosition=bottom;verticalAlign=top;align=center;html=1;fontSize=16;fontStyle=0;aspect=fixed;shape=mxgraph.aws4.resourceIcon;resIcon=mxgraph.aws4.ec2;" vertex="1" parent="nzV5PfegUvqKvhblKaPk-38">
          <mxGeometry x="140" y="420" width="78" height="78" as="geometry" />
        </mxCell>
        <mxCell id="nzV5PfegUvqKvhblKaPk-28" value="Code Deploy" style="outlineConnect=0;fontColor=#232F3E;gradientColor=#4D72F3;gradientDirection=north;fillColor=#3334B9;strokeColor=#ffffff;dashed=0;verticalLabelPosition=bottom;verticalAlign=top;align=center;html=1;fontSize=16;fontStyle=0;aspect=fixed;shape=mxgraph.aws4.resourceIcon;resIcon=mxgraph.aws4.codedeploy;" vertex="1" parent="nzV5PfegUvqKvhblKaPk-38">
          <mxGeometry x="80" y="200" width="80" height="80" as="geometry" />
        </mxCell>
        <mxCell id="nzV5PfegUvqKvhblKaPk-31" value="" style="edgeStyle=orthogonalEdgeStyle;rounded=0;orthogonalLoop=1;jettySize=auto;html=1;fontSize=16;" edge="1" parent="nzV5PfegUvqKvhblKaPk-38" source="nzV5PfegUvqKvhblKaPk-28" target="nzV5PfegUvqKvhblKaPk-29">
          <mxGeometry relative="1" as="geometry" />
        </mxCell>
        <mxCell id="nzV5PfegUvqKvhblKaPk-33" style="edgeStyle=orthogonalEdgeStyle;rounded=0;orthogonalLoop=1;jettySize=auto;html=1;fontSize=16;" edge="1" parent="nzV5PfegUvqKvhblKaPk-38" source="nzV5PfegUvqKvhblKaPk-28" target="nzV5PfegUvqKvhblKaPk-32">
          <mxGeometry relative="1" as="geometry" />
        </mxCell>
        <mxCell id="nzV5PfegUvqKvhblKaPk-83" style="edgeStyle=orthogonalEdgeStyle;rounded=0;orthogonalLoop=1;jettySize=auto;html=1;entryX=1;entryY=0.5;entryDx=0;entryDy=0;fontSize=16;" edge="1" parent="nzV5PfegUvqKvhblKaPk-38" source="nzV5PfegUvqKvhblKaPk-77" target="nzV5PfegUvqKvhblKaPk-78">
          <mxGeometry relative="1" as="geometry" />
        </mxCell>
        <mxCell id="nzV5PfegUvqKvhblKaPk-77" value="HTTP Request Plugin" style="rounded=0;whiteSpace=wrap;html=1;fontSize=16;align=center;" vertex="1" parent="nzV5PfegUvqKvhblKaPk-38">
          <mxGeometry x="460" y="210" width="180" height="60" as="geometry" />
        </mxCell>
        <mxCell id="nzV5PfegUvqKvhblKaPk-82" style="edgeStyle=orthogonalEdgeStyle;rounded=0;orthogonalLoop=1;jettySize=auto;html=1;fontSize=16;" edge="1" parent="nzV5PfegUvqKvhblKaPk-38" source="nzV5PfegUvqKvhblKaPk-78" target="nzV5PfegUvqKvhblKaPk-28">
          <mxGeometry relative="1" as="geometry" />
        </mxCell>
        <mxCell id="nzV5PfegUvqKvhblKaPk-78" value="File Operation Plugin" style="rounded=0;whiteSpace=wrap;html=1;fontSize=16;align=center;" vertex="1" parent="nzV5PfegUvqKvhblKaPk-38">
          <mxGeometry x="270" y="210" width="120" height="60" as="geometry" />
        </mxCell>
        <mxCell id="nzV5PfegUvqKvhblKaPk-74" value="환경별(Dev, Staging, Production) &lt;br style=&quot;font-size: 20px;&quot;&gt;Job 실행" style="edgeStyle=orthogonalEdgeStyle;rounded=0;orthogonalLoop=1;jettySize=auto;html=1;fontSize=20;" edge="1" parent="1" source="nzV5PfegUvqKvhblKaPk-44" target="nzV5PfegUvqKvhblKaPk-38">
          <mxGeometry relative="1" as="geometry" />
        </mxCell>
        <mxCell id="nzV5PfegUvqKvhblKaPk-44" value="Job List" style="swimlane;fontStyle=0;childLayout=stackLayout;horizontal=1;startSize=26;fillColor=none;horizontalStack=0;resizeParent=1;resizeParentMax=0;resizeLast=0;collapsible=1;marginBottom=0;fontSize=18;align=center;" vertex="1" parent="1">
          <mxGeometry x="-1940" y="-2010" width="190" height="158" as="geometry" />
        </mxCell>
        <mxCell id="nzV5PfegUvqKvhblKaPk-45" value="Front" style="text;strokeColor=none;fillColor=none;align=left;verticalAlign=top;spacingLeft=4;spacingRight=4;overflow=hidden;rotatable=0;points=[[0,0.5],[1,0.5]];portConstraint=eastwest;fontSize=14;" vertex="1" parent="nzV5PfegUvqKvhblKaPk-44">
          <mxGeometry y="26" width="190" height="26" as="geometry" />
        </mxCell>
        <mxCell id="nzV5PfegUvqKvhblKaPk-46" value="Avocado" style="text;strokeColor=none;fillColor=none;align=left;verticalAlign=top;spacingLeft=4;spacingRight=4;overflow=hidden;rotatable=0;points=[[0,0.5],[1,0.5]];portConstraint=eastwest;fontSize=14;" vertex="1" parent="nzV5PfegUvqKvhblKaPk-44">
          <mxGeometry y="52" width="190" height="28" as="geometry" />
        </mxCell>
        <mxCell id="nzV5PfegUvqKvhblKaPk-47" value="Logitic" style="text;strokeColor=none;fillColor=none;align=left;verticalAlign=top;spacingLeft=4;spacingRight=4;overflow=hidden;rotatable=0;points=[[0,0.5],[1,0.5]];portConstraint=eastwest;fontSize=14;" vertex="1" parent="nzV5PfegUvqKvhblKaPk-44">
          <mxGeometry y="80" width="190" height="26" as="geometry" />
        </mxCell>
        <mxCell id="nzV5PfegUvqKvhblKaPk-69" value="Partner&#xa;" style="text;strokeColor=none;fillColor=none;align=left;verticalAlign=top;spacingLeft=4;spacingRight=4;overflow=hidden;rotatable=0;points=[[0,0.5],[1,0.5]];portConstraint=eastwest;fontSize=14;" vertex="1" parent="nzV5PfegUvqKvhblKaPk-44">
          <mxGeometry y="106" width="190" height="26" as="geometry" />
        </mxCell>
        <mxCell id="nzV5PfegUvqKvhblKaPk-70" value="Push(node)" style="text;strokeColor=none;fillColor=none;align=left;verticalAlign=top;spacingLeft=4;spacingRight=4;overflow=hidden;rotatable=0;points=[[0,0.5],[1,0.5]];portConstraint=eastwest;fontSize=14;" vertex="1" parent="nzV5PfegUvqKvhblKaPk-44">
          <mxGeometry y="132" width="190" height="26" as="geometry" />
        </mxCell>
        <mxCell id="nzV5PfegUvqKvhblKaPk-86" value="Slack channel" style="shape=image;verticalLabelPosition=bottom;labelBackgroundColor=#ffffff;verticalAlign=top;aspect=fixed;imageAspect=0;image=data:image/png,iVBORw0KGgoAAAANSUhEUgAAAggAAAIICAYAAAAL/BZjAAAgAElEQVR4XuxdB3gVVdr+5pbcFJIQSCDSmzQbu9hAUexlFXtdwUpdxQa2Fc3Kv6KCuqKLFHVVVCygiKxYVsAG6oqLgjTpzUBCSUi7df7nTO6Ew+HUufcmN7knz4NCZuaU92vv950zZwzQPxoBjYBGQCOgEdAIaAQIBAyNiEZAI6AR0AhoBDQCGgESAU0QtE5oBDQCGgGNgEZAI3AYApogaKXQCGgENAIaAY2ARkATBK0DGgGNgEZAI6AR0AiIEdAVBDFG+g6NgEZAI6AR0AikHAKaIKScyPWENQIaAY2ARkAjIEZAEwQxRvoOjYBGQCOgEdAIpBwCmiCknMj1hDUCGgGNgEZAIyBGQBMEMUb6Do2ARkAjoBHQCKQcApogpJzI9YQ1AhoBjYBGQCMgRkATBDFG+g6NgEZAI6AR0AikHAKaIKScyPWENQIaAY2ARkAjIEZAEwQxRvoOjYBGQCOgEdAIpBwCmiCknMj1hDUCGgGNgEZAIyBGQBMEMUb6Do2ARkAjoBHQCKQcApogpJzI9YQ1AhoBjYBGQCMgRkATBDFG+g6NgEZAI6AR0AikHAKaIKScyPWENQIaAY2ARkAjIEZAEwQxRvoOjYBGQCOgEdAIpBwCmiCknMj1hDUCGgGNgEZAIyBGQBMEMUb6Do2ARkAjoBHQCKQcApogpJzI9YQ1AhoBjYBGQCMgRkATBDFG+g6NgEZAI6AR0AikHAKaIKScyPWENQIaAY2ARkAjIEZAEwQxRvoOjYBGQCOgEdAIpBwCmiCknMj1hDUCGgGNgEZAIyBGQBMEMUb6Do2ARkAjoBHQCKQcApogpJzI9YQ1AhoBjYBGQCMgRkATBDFG+g6NQDIiEKvtqj5vxghCrM/H2L1+XCOgEVBFQNVJqLav79cIaATUEJCxSdo9dgBG1/C/q/Xu7G7ZvmVIgsw9zkapn9IIaASUEJBxRkoN6ps1AhoBKgIiWxNdpwVOT+/evX1HHXVU2lFHHeUBAE92dra7VatWmR07dszNyMjIyc7OzkpLS/O53W6fx+NJc7lc6O9ewzDQH5fL5UL9Wv9H/0YjN00zEolEUH/W/9G/TdMMhsPhYCQS8YdCoUA4HPYHAgH/gQMHKqurq8u3bNlStnv37qoDBw6EASD066+/oj+BVatW+dG/KYg4mS/ejCYS2tA0AglGQGSkCe5eN68RaNIIsOyLVQHAg54bAKw/Xbp0SRsxYkT+H/7whyPy8vLys7KyctPT03O9Xm+hx+MpTEtLa+XxeFp4vd5mLpcrC5EAAEAEwB0N+oZpmhYDAIC6P7X/tAhB9NJBWZimCYZhWONBf49WJdBf7D+R2ksWeUCkwCIPkUikMhgMVoRCob2BQGB3KBQqDgaDxTU1NWWVlZVl+/btK/3f//73+9SpU0s3btwYAAD0rP3HHoA9RlI5WKRAk4UmbUZ6cg2FgCYIDYW87repISBLBqzg17dvX2P8+PGutm3betq1a+eePn16i169erUuKCjIz87ObpWbm9s9IyOjq8/na5OWllbgdrtzDcNoZhhGptvtFtptNMDbwR0Fe+vv9v9F4Nvkwb7PfvaQFB5rj7yf1n44HEaEoso0zYpwOFwWCARK/H7/zurq6g1lZWXrDhw4sLukpKR09erVu4YNG7Z3+/bt4R07doTGjRsXWbZsGU5OZCoJmjSIhKyvawQECAgdjUZQI6AROAwBmt3gv0PByf63MWzYMN8NN9yQlZub26ympqZlRkZGgcfjQZWArugPIgEul6uV2+3O93g8zV0uV7oo4EazeqZoVAmBjIydtIk/I+ojHA7XhEKh/eFwuDQSiexG5KGysnID+hMKhUqrq6tL0tPT95SVlVW88cYbldOnT0fLFzYRwDG3Kx6yFQjR0PR1jUBKIqAJQkqKXU9aEgEREaBlsr4XX3wxp0ePHnkdO3Zsn5mZ2S4SiXRMT0/vhJYE3G53a4/Hg8hAHiICaP0fK/UfzkSiywBWxKst9Uv9OAnmrIZ54xMNhlaxwMkPqzKBtYv2QdSEw+F9oVBodzgc3hVdstjscrm2VFVVbd+yZcu2tWvX7hs5cmQ5ACDSgH5Yvo0Gojywognr6xqBJoSAJghNSJh6KjEjoEoI0P2+ESNGZN94441HHnHEEb0yMjJ6ZGRk9PR4PG3cbndzt9udg5YFDMPwoT0BZKAngyU5A9F11v2xLjHQ2iUJCouE8MYsQxhoUiTaRGsVfrRcEQ6Hy8Ph8P5QKISWKtZUV1ev/f3331e/9tprv02dOvVAlDCQ1QUasRP9Lmbl0g1oBBobApogNDaJ6fEmAgEZYlD3Kt/IkSNzL7roou4dOnQ4urCw8IysrKxjvF5v2+gGQXtzofVGAEkIrNQ2uh/AyURkCQOvghBr/6p7GWjEgoWNLCbkHAzDQJsmw5FIBP1BGyV3VFZWriguLl60devWlfPnz1/34osvlnFeAdWVBVnw9X0pg4AmCCkjaj1RAgFS9w/7d9++fV2TJk3ylZSU5Obn57dr2bJlzyOOOOK0zMzM43w+XzePx5NDlrJllwFky/a8crxsX6KMnEZiWBWEeC5dqJAlCiGgLrlQ9m6YoVCo3O/3r6+qqvr5999//2rPnj1rSktLtxcUFJSNGTPGv2zZMuuNDGLOon9rg9IINHkENEFo8iLWE1QgBkZRUVHGKaec0qJ9+/bt3W53l2bNmh2XmZnZ2+fzHZ2WltYOfx+QF6BlM317bKzSu1MSEI9ArjoHp5om6sdpxYO20RO9RhEMBrfX1NSsrKqqWlVRUfFzOBzeuG3btm3ffvvt3qKiomqCLGii4FSw+rlGj4AmCI1ehHoCDAREFQIrcUabBAcNGpQ5fPjwI44++ujjMjIy+qSnpx/t9Xq7er1e9HZBtmEYHqeBWiVLtu+NtfyebBohIgCsakUi5xElHaFIJHIgGAzuDAaDGxBpqK6uXr5y5cqfp02b9vu8efOq0GFRjA2PmjgkUkC67aRAQBOEpBCDHkQcEZAiBv369Uu/9957uxx77LEn5Ofnn5menn5sWlpaa8Mw0KbCDDwokK/qiciC04xXhAGZEdPGIbt0IeqLdl2m//ogOTJzVJUBOhQqEolUm6ZZHggEdtXU1PxSWlq68Jdffvnv008/vXHp0qU1mig40Rr9TGNGQBOExiw9Pfa6Cj0FirpzCLCSMdpT0LZ///4n9ujR47pmzZr183q9rbAjhuOGqErWLBPwVAcWjyUG1T5ZpEKGUCWiaiIrAxIrTB6RYDC4u6KiYunatWtnLVmy5IcxY8bsiFYVLC5EnMNAQqBfn4yHEuk2GgwBTRAaDHrdcYwICN88uOqqqzyjR4/OikQi7fLz808oLCw8OzMzsx86kwAPSLEGU5lsVaYP2XbIscsEV1H/KtUB/C2GeFdXZDCwqxQ48ZB5ToYwsMgC6rOmpmZzVVXV0uLi4v+Ulpb+1+VybZ88eXLle++9R35rQr8REaNx68eTAwFNEJJDDnoUagjgenuIDg8cOBDtKcg577zzOvp8vuNyc3P7ZWZmHp+WltbT7Xaj8wiUDhxSG5a+uykjYOtOOByuCgQCa6qqqn4sKytb6vf7f/7000+3zJs3r3zx4sVozwL+g5MFXVFoygrSBOemCUITFGoTnJKoWoAcr2fatGlHnHnmmSc2b978rKysrD96vd7O6Ehj9DGipoKJTBbcVObKm0dDEj1MBugVytJgMLipsrLyp/3793+xcOHCH4YPH/579ANULKJQV/RJBVnpOTZeBJqM42y8ItAj5yDA2nBYt/Y7ZsyYjHPOOefoY4455qKcnJzz0fJBdKNhWjIjm4h9ByrzTRai0ZCBHl+qiHUcpmkG0AZHtAxRXl7+yYoVK+Z//vnnKydNmoRem7S64uxX0JUFFeXV99YbApog1BvUuiNJBERvIRiLFi0yXn/99bwhQ4accswxxwzJzc0d6PF48urSMoVvFkiOSd+mERAigJOuUCi0r6ysbPGKFStef/31178dMmTIvjPOOMP+IiWvsqDJghBpfUN9IaAJQn0hrfuRQYBJDvr27eseP35888LCwm55eXmntWzZ8sLMzMyT3W63VSkQ7ZSX6VzfoxGIFwI2WQiHw4Gqqqrv9uzZ8/G+ffu+Ki4uXj9u3Lj9y5YtC2N96TMV4gW8bieuCGiCEFc4dWMOEWBuOkR7CxYsWNCme/fu/Zs3b35mVlbWyV6v90iXy5WmSYFDtPVj9YoAIguRSCQQDAZ/q6ys/G7//v0L161bt+SCCy7YCQC8NyB0NaFeJaU7IxHQBEHrREMhwN1fgCoG99xzT6d+/fqd27Jly4szMzOPdbvdrQDA+iKi/tEINFIEwuFweHdVVdUve/bs+Wjp0qWfPfPMM5ujFQW9T6GRCrWpDlsThKYq2eScF29/ge0cjfvvv7/tqFGjri0oKLguLS3tSLfbnWGaZt3XEe2pke/jO51yrO3Yz/P6J9/Zp90r0w75nEy76BnRHHlfXBTNC9/gR56nQBsv7x4nGODzE40Vv04bhwgnVvuycrCfR1+fDIfD1YFA4LeSkpJZU6ZMefvJJ59EhzDZn6bmvR6pKwtOjV0/p4SAJghKcOmbY0CAWTEYOHCgMXjw4Iw2bdp07tGjx8WFhYU3ZWRkdLMdfwx96kc1AkmNgE1Sqqur1xcXF7+6du3aj3bu3Llp5syZ1YsXL8Y3Nep9CkktyaY5OE0QmqZck21W5B4D+9+uf//73y27dOlyXF5e3vm5ubkXoM8oG4bhFu0voGWaqlmcTGZNVivwf2PZ4CF4O8mCWc/EMqdEKwEr21Yds8z98ZI3r3LDk5s9RlGFhNQXWV2IVmHC6LPUZWVlC/bt2/fJxo0bf/7Tn/60BzvamXwLQlcSEq3kKd6+JggprgAJnD5r4yH6PXpNscXxxx/fv7Cw8MqsrKz+Xq+3PdqQmMDxJFXTsoEjkYNWDXqJGEtD45AM/VOIZigYDG6rrKxcUlxcPPvHH39cMmTIkL3R5QfW0oMmC4lQ0BRvUxOEFFeABEyfRgzs35kDBw7MfOaZZwZ07tz5z5mZmad6vd52aOOhTLAiM1Yn68W0bDXWIKH6PK9aIMpQyfHLZN8yMpbdgyCqGojGTy4b0b4BIdsGediTzHN41YiHi0im8ZADTeeJ34WDweD2qqqqbzZt2vTmPffc8/XixYvRJ6jr7Ck6B32cs4yS63uUEdAEQRky/QAFAd4bCZZPRiRg7ty5f+zfv/9dLVq0uMDlcmWjjYfkCXasjWOoEfLDQPg4RA6dDEx2e3jAkCnz48+R/VMyQaqysIK6aA7xKoGTZIA2yFg28MnMA+9TNtCLyJDout0nTnJIvXJCOkn8RPPHx0HiwJhDJBKJHNi7d++CJUuW/OPSSy/9KXqUM48o2HanHZZGwDECmiA4hk4/GEWARw6Mf/3rX8369OnTu7Cw8NqWLVte7/V6W/IClKxzlUFfNmDQiEa8x6GS3coSDRkMZAiQbDtO71OVg+r9TsfFeo5GIGLtwwnxwHXQ1p9gMLhnz549bxUXF7+9fPnyVTfffHMFsfSgNzPGKiz9fB0CmiBoZYgFAeY+gyeeeKLZ+eeff0xBQcEl6ByDtLS0roZheJDT4wUAlcDsxOnSyECsBEFlzLTskfVdBBlSQZItmWds0sDK4p0oBK1cLtMODTuneMrOXSRvJ3rllNSo2kK0ihYKBAIb0DkKJSUlH37yyScrHnjgAZso1KkYNk+9P0FGGfU9hyGgCYJWCicIsPYZmDfddFPaiBEjjurcufM16ONJXq+3Bzr1EM9kyQ5VnSvpwJ0EFBFRUAFFpv943oNXGGQJgijoqcqAJUMnQdqJLGTwpMlQRGREOJEEz56vCn68Mai0Ez2dcS36ONSmTZvemTp16q+vvvpqgPNhKE0UVAxb31u32UVDoREQISDaZxApKipqfdNNN13fqlWrG3w+X0/DMDJEjdICjdMgo+JcWeOSDRC8eTkNXmRm7wQHPPjEMg5VuZFBHicxqm2JgrhMe7HMPZ46EI9xiOZrmma13+9fU1pa+sYrr7zyVlFR0S4AsA8Ws0mBXnoQAamv6wqC1gFHCHDJQe/evd0TJkw45bTTTvtrTk7OmQYR2VTLqKwsjZZp4g5YlSCoBFPS0avOiXW/aMxO+yE3dMYa9GiBjtWm0zEj+bJIEat/FhER3Y/3JcIGnw9tjLLY4P3ItiOqrthjc7lcaOnOLC8vX/jll1/+/cEHH/x21apV9gehNElw5Pb0Q3qJQesADwHuBsRnn3222YABA45u3779DS1atLje4/GgNxMOaY8WWGmvtrEGIZtFywQEsg+8PEy+TYHfKzMGlaDIyipJ7HgBk1Z5Yd1PBsBYsBKZCy37J7ERYUXrI94yYM0jFhngxJb1+iZJaONtC6i9UCiE3nh4a9u2bW98/fXXK++++269kVGkuPo6FQFNELRiMGMzdsHWE/v/nq+//rpnly5dLmvZsuWVaWlpPewNiKws32mmJxMYUNusoMsTr6iCoNKmKAg6qSA46V8UmHjkhBWsZGVAw9oJQWTNQWSqPBnwSIcosxf1K7pOI2iyFQQemeKRatM00UbGtXv27Jm9cePGDwYMGLAG+3IkraKg9yeIBJmC1zVBSEGhc6ZM0wfr5EP7cJZnn3224JJLLrmydevW1/p8vmPQeQa0AE3LJO37yOxc5ARFJV5ZgsDKDkkHzsrOWSSHnBdZjRBliWQlg5fd8krweNDhzYmGA9knrR8RTjIEgaUD9rM8UqSiJzwZ0AiBTJVFZoyyGNSXLaDzE/x+/4pdu3a9/eGHH86+++67S6JjtI9tphEDTRZ0XLAQ0ARBK0Jd3KNAUUcOunXr5n7uuef6nHzyyffk5uae53a7c0zTNERBQ5QF0zJMViAWBT1eIGYFPDuokkGDJDEiNRGVzUWBHR8Hr29RJSKegZ02Dhl540SFRp54BIy11CNTVZCVAauqoZLpi2QkquTIEAkRMRZVg+zrhmGY4XC4vKys7NPvvvvumTvvvHP5+vXr0f4ETRJEhp3i1zVBSHEFiE6fttegjhxMmzYt97TTTruuU6dO9/h8vk640yc3w+FZFi3oyWTXMiVtp85TJG5RACTnxyMz+DVW+VuV1ODjlwmIrMxYhJ8IJzLwi0gdjhs+Z1qQE1UK4iEDMsDj46BVGHh4sLAUYR8PW6BVg3hkyu/3b962bdszixYtmjV8+PAygiToNx1kFD+F7tEEIYWEzZgq60wD6xTErl279u3du/eovLy8C9Bri7ZDwokBz8nTnKAoAKg4XNnApCJmUYBgZaC84C1LEFht0MgWOSda4BUFKRmCQxIdmuxxvRAFUxFBkCEAscqARxB4MpDRI3LJiFeZcGoLNkHD+5KxBXR/JBKp3r9//4Jff/11yoYNG5YJTmPUyw0yQm+i92iC0EQFKzktkhxY/77gggs8991335E9e/a8unnz5tekp6d3R46Mla2QAdUOZjRHLyIMtGdpDpcWHGWcLelQyWAnEzhEWZsoK6bJhlVap42HJVu8DbKyQ5ORSEdEyxUy8xAtDdACPY/4sMgDT294z+DEKx4yoLUno78sAsgjUzQ95PVP4ur3+9ft37//nTVr1rz71FNP/bZgwYJQ9B79WWmRcaTIdU0QUkTQ2DRZFQPrltatW6cvXLjwko4dO96SkZFxomEYdZsQZRw36YxpTle1rC7jCMmxyQRpVqbHUgneOGj927+TwQDdSxsz3q6ImJD3qmT6rKqNTP+icfPaEBEImixkcWBVbXC5sPSGNyeV/nkyIEmNrQOi8dEw4S3LCUjYgerq6h+2bdv2ysCBAz/ctWtXDda+ftsh9eLDITPWBCG1FIC5nIDi06RJk9pde+21D7Ru3fp6t9vdDDuNjRq8ZIOKqKQsCrx4+Rp3dmRWzCMePKeqml2L+hEFPVbwEQUeFdIjQxZEwR+/zlpSosmAF5BoFSSZcag+J5KBCgmUaUtkCzhOtCoWSaxZ+sqqktH6J22FRVgNw4iEw+GKXbt2vfX2228/MWbMmO3Ycc2aJKRWjNAEIUXlTV1OQI7gvvvuy7jmmmtOOfLIIx/Nzs4+GTkWmpMXlZxJImBnSKqZHOt+smxOC4K4o+VlVXi2plqOZ+HAccCHfaBKRAbs8YnIFRlYWFURMkDJBDQZgiCyJZEeyY5DRBBo2TeLePLGLNIZmlzI9mhYkwTLtg3auFmESQYDGb1hyQS1f+DAge/WrFnzt9mzZ3/71FNPVUc3MVrNYn+3/y0Sv77eyBHQFYRGLkDJ4TPJwZw5czr07dv3isLCwtu8Xu+R5DHJosyGFbR5mQ6NSMgGV9Z8RVm9JE7WUb+0bI905GR7ov5ZgZ4XIAWl4UOZPjZuPEjQqi8ylQja/GQCrgwOsoRRNlvGdYcVXPGAjOs0K3CzdECkB2Tgx4M6i4iybIxGCBIhAwI/MxAI/FZcXPzSsmXL5lxxxRVbNUmQ9R5N7z5NEJqeTOvsnZha3WFH0d+nffPNN8f36tXr9pycnHM8Hk8ez/nwSphkmRnvl3RypKMWBSuyHMsKXLR+aH3RxM2rILDIDC+zZ2FF4kIGGyelbBX1ZWWgTmVAC6425rLBnZcVi9pQkQGPWIrIQLxID81ORBUip2SK7ItHyml6GQ6H95WXl3++evXqF0499dQfAQB9JbKOyxDVBEuVVXRR39s4ENAEoXHISXWUrHMNLP/9zDPP5Fx88cXXtmvX7s60tLQu6JhkWrASZbesYM0jCKqEgeYgZcmAKODysms8aMoEfJU588YvGxBIedWxQqNW9Cq4kUSKpmwsrFiEqy6SmOYhH2ASVUV4JIaHsUgXWZiznhPdLwq4tEoUK2jziBCvH94Yaf3zZMLAIRQMBjdu27btuTfffPPtoqKick41QZMEVS/dCO7XBKERCElxiNxDj2bOnNnxnHPOeSA/P/8atBGRVTUQBUWZQG8HHl5lQqaMilcRWI6XDHKirBgPqGQGycu+7OCr4rhlg42T4MkicaI5KeqUdbtM0BPJgaYLspUA2ftoeqcaTHkEUURGVLBSIZY8bFn2issMJwi0OZC/Q22ir0SiDYy7d+9+54svvnhi8ODBW/ThSk6sp3E+owlC45Qba9S0txTQd+GNoqIi3+mnn37qH//4x4eys7P7m6bpJp0TzUEwO8IyVV7QlgkYZKbPc2R4YMfHJgquPDHTnCjZtsihymT+tFI2K3tUxQDP8HESw6uSqKi+KLDj442FPKnoAq/0LyKwNN2hkUobS5H+8NqjyQCXEQs7GXuk4UUjh7EQkeiz4QMHDiz56aefHv/yyy+/KSoq8keJQiR6HV9i0MsNKsaVxPdqgpDEwlEcGm0jorXv4OOPP27dvXv369q2bTvS5/N1pgUQWl+iMiot+MuMWaZdGhFQqUQ4HZsTHHiByh4HL9NXDT68MbICOat/GSKCY0lWV8jAQwuoKoSBhYUIY5G8WRUEktyK5C9LGEQVOFX9JufHGwdtTio2x8IAteH3+zdt3779xXXr1s268MILd3GqCZokyDjDJL9HE4QkF5DE8HhnG7g//vjj3ieddNKonJycK91ud3OSHODle9LZ8wKyEwdHC5Y0x+/EmYnK+OR4edkiWVEQ4SATvFjYqmbBogAqGqvoedZ1mXZZukS2yVsqIAOfbJsigsDTbZq8ZfWJFUxl8OLhgtupLInDdZxH5GhYiXQYxygcDu8vLy+f/f3330+58MILVwEA/uEna+jY3DRRkHDiyXqLJgjJKhm5cbHIgat3797GCy+80K9v377jsrOzTzFNM50XHGQcmooTIcuqvOnIEgKRI+cFHpnqg2xQkMWBdNgikcr0L9M3jQSqBAwySNOCKx64yXE7lQONQMoSGtmMXVYGIlmIdJbM4mUqFSokR3QvrX9ZoiGae7SdmgMHDnz7ww8/jL/rrruWrlq1ChEBtNygD1YSKVkjuq4JQiMSFjFU1n4DuOqqq1x33HHHoBNOOOHJ9PT0Lsh5xrLWTXPckk6kbmMbGWRYsPPWumnr/LxxyAZTfCwya+1k9UFErmhjJMcm47xpgVjUNy47/HlW/7xxJCLo0cbBmlO8iQdPBrL6LUtqeARBRRdYGIj0gEdoVGVg6z96rqamZuN///vf+59//vl57733nr0fQe9LaLxx5ZCRa4LQOAVpy+0QktC7d293UVFR4fHHHz+4ffv2Y91ud67IcTjN0GjPqThV2YoCL5sl2xBldbKixp05mY3LtNGQOOCZvcxY4yl/u614yUGUJYt0yKnux0OvZCsGIhmJSC5PfqKqkahvklzSbAGNLxwOl23btm3ijz/+OLOoqKh41apV9pJDHd+M/kUvN8iAnkT3aIKQRMKQHApJDqyNiDfddJNn6NChf+jRo8fw5s2bX+lyubJ4mRjpPJw6dSeOUJTNOHHs8QzKThyrKn6s8aq2gwdlFdyc9iOpo9K30XBwKkvVObHIlBOdlp4wcWMy2AJLBnXR3eTHdfR8JBKp3L9//+y1a9dOmzFjxv9effVV9GVI/Hhm2tKDU9j0c/WEgCYI9QR0HLrhbUZ0/fDDD2f26tXr/szMzJMNw7D2G4gChkppU2b8Thw7+YyTNliZq0zAIINBPIKDkzmRVQsZ+YmyR5I8xIKtjPydyoGUU32Nk4VPPHVApS0neiPSARW9isUfRPupqaqq+m716tVPnnjiiQuxPQl6X4KKASXRvZogJJEwOENhvcKIHnEvXbr00j59+jzu8/k6kucb8KaHOyTSOciQC9rGMJmsIx5ZE83xyhACkbhZDp3mvFlzlQlwvOxVBkN0Dy/zE1VBVOVNw42HVTzmICJJseoRLgPSFvB9Jk5tQSQDW4aJ0iOZ/nkEA78mU42M3h/2+/1bli9f/lC/fv3mRt9wsESpP/gk8j7Jd10ThOSTCTki6pICig8jR9o9DEUAACAASURBVI5sNnr06Fu7des23u12p5NOjeX0RA5PxmmI2uAFwFiIhazT4wVP0iGrZHmy6uIkeKkQC5ngycJKBZvDlJH4mJUID1FfNF0Q6RaLHNHGSgu+PJxldUGGjIraotmITLv2nGT0RUQkRXokki+tfTSucDhcs379+nGTJ09++cUXX6ygEAS95CADbgPfowlCAwtA0D2VHPTu3ds1bty4NgMGDBhaWFg4yuVyNZdxqnhfNEek4pxwxyDrqGhzpWXmsnMROWAZ0ZJtxKNNmX55gZcW1OJB2pyMS/YZFiGUeZ7UOydtxUMHWbrgZA4yz7B0QJUAkHYtaz/x9gdke5FIZH9xcfGUr7/+esb48eN3rlq1yn4NkiQHevOiE4Wph2c0QagHkB12waocwOzZs7udcsopo/Pz8691u93crzA67LteH1MlJvU6OEZnToJYMoybNwbVOcUSlOOBRWPUG9G8G+ucWJUi9FXI0tLSt7/99tvJV1555fro/PXmRZEiJMl1TRCSRBDYMJiHH6F73n777d7nnnvu/+Xk5JxhGEZWLMMXOfhEOatEtRsLFqJnRViJnqdli+h3omwvUVglql0nOIgwQG3GG38yS+e1n0isVNpOFAayMnNaXTNNs7K8vHzRZ5999vC1116LTl5EP/pQJVngG/A+TRAaEHxK17zNiK4FCxaceNppp03LyMjoCQAummPFs8BEOhRR26rZqKoYRM5KND7V/lgBnhXkVRy/07GIgprsfo1Y+5cZh9M+eM+JMBZdj9eYWPMX6Wg8+pexs0TaAj5HgS1Eqqur13z11VfDL7jggh+iBMF6RG9ejIcmJKYNTRASg6uTVmnkwEqebrnlloy//OUvZ/fs2fP/MjMze0UikbjLDXemMpmtkwnKPJNIZ6bSf0ONo76CmgwWDXWPTNBL5NjqI7DLjL+hdNByOtGvtdrjlKnyiObkcrnMqqqq1WvWrHn4n//8539eeeWVauJoZv0NBxGI9Xw97oGmnsffVLpjfonxqquuynzssccu69Sp01ifz9fLNE1HMkuE03PiwJw8wxKykzk1dPCxnW88HC7pyOPVphOjUpFrIkiQav/xxioRc0qkHBpqvIZhmH6/f/XmzZsnPvLIIx+89957VfqLkE4kXT/POAo29TO0lOmFSQ569+7te/fdd6/v1q3bA2lpaZ2ckoP6QlLFSSdiTA3l9BIxl1jaTBY5xDsIx4JJfT/b0DKw55ss48DxRyQhEAhsXr9+/RNXX331W6tWrfJrklDfGirXnyYIcjgl6i4mOejWrVvG/Pnzb+natesDbre7dSo720SBr9vVCGgEGgYBRFzC4fCuDRs2PHHRRRe9sn79enu5Qe9JaBiRUHvVBKHhhMEkBwMHDvRNnz59RNeuXYvQNxUiEfvjaA03WN2zRkAjoBGIJwIul8v6hsOGDRuKhg0bNnXx4sW6khBPgOPQliYIcQDRQRNMcjBx4sS8K6+88qa2bduO8Xg8Bbpy4ABd/YhGQCPQKBBAlYRQKFSyY8eOSbNnz3517Nix+/RyQ/KIThOE+pcFkxwUFRXlDhkyZGTbtm1Heb3ewniRA/x1N3J3cn1MH59HQ/RfH3MU9YEfgy26NxHXG1oHEjEnJ23autiQepgMY3CCXbyeIf0BkkUwGCzesWPHlNdff/3FoqKiMk0S4oV2bO1oghAbfqpPM8nBqFGjWj744IN3t27d+laPx9OSRQ5kgm19BCNRH4l2gqL+VQWjer9IDqLrqv2p3l8fhKA++uDNW4Sx6Loqpk7vT6SuythZIvu3MeH1ISOHaCVhz65du16eMGHCs1OmTNmjSYJTjYvfc5ogxA9LXkskzq7ozej3xtixY1vee++94wsKCq4HgMz6GZLuRSOgEdAIJB0CVSUlJW89/fTT4yZOnIiTBDRQcjOW/oZDgsWnCUKCAcaIgN2TRQrsP3fccUfzMWPGjG3Xrt1fSHIgYv6i6/jUnGR7IubvtE3Z8q4oO1Ltn6zKyI4D4SjKkOLVFqmOMjKoUyzicBuWaqvojShDxGWA7pXBQTQn2rhFYxZdp9mCrOnL6I3TOcliJqODKnrgdLz42SOy+PHuY8itavv27f+cNGnSxOeff36/riTEA2lnbWiC4Aw3lae4GxKvuOKK4e3btx/tcrnyacYiMmQZ56UyWKdBRcVBq45HRBREzlO1P1aA4jlgkZziNQZWAE4k/iRJEJEllaDnBBdW//UhA5nxJlIWMnNUJc4yc3KiA071IPoKZOm2bdsmz5kzZ5reuKgiofjeqwlCfPGktYZ/lbGucnDKKaekv/7666PatWt3l8fjKZQNcjIOQjQlmgOJV7syWQyvL1nn6oRMiXDBZSATBFkOUGYO8QhyvDZEmV685E0jLCpts+SYqEoErgMs4hmPACvbRqy2INI10XWW35GVoWieTvtH44puXPzHkCFDpnz77bc1jEqCXmaQcWwO79EEwSFwEo8xKwddunTJnD9//vBu3bqNcbvdBbJZu6yx2YErlgBiOw484Ms6DfzZWAMI6dBFgY/MdCTkpHyLihxiIRGxyEDGccuQORIcUbus+2V1XPa+eMlAZCu4PuH34uMUVXViIZs0/VfVcRFWoutkf6QOiJ4X+Q2WTtmvQG7cuHHShRdeOG3jxo36WGZlbxXbA5ogxIYf62kmOejRo0f6nDlzbuvVq9d49Llm3HjsgCAbBMkAwgpGtHbJfkknJzJ6ltMQwUm2y8ogVYOXzHjJOZPkx8YAd1g8TEnnLTtmfKyxZpCqwQLXBRlZyc6JF8hopIHEntWPjU88KwosHZTRIRFmqviSx4PT7FBVBjIkjtQ7lj+QaYtlBzK2IyIbUV9YuXr16nFXXHHFS2vXrmVVEizoZeSj75FHQBMEeaxk72SSg0svvTTrscceu6Z79+6PpaWltWIFLBWnL2PYtqGqOEARgZAlCLLtsMCVHbOIaMg4K56AReMQBXq8bZlgh+MrEyB4gTRWGagGPRLr+upfJlN1IgfV8cvoohN9FOkgzyZV58AidaLkRdSP6DrNBlGfgUBg97p16x555JFH3pk7d26l3rgoG45iu08ThNjwI59mkoM///nPGQ899NAVXbp0Gefz+TqzyIFK9hqLwxBNW8aQaeyfFsxEjpvljESBkZcFsZY2ZIIzTQY8rMlrogAhMwY7KIsCGg1bUi54gOcRCSdyYGHFkp2szuJjkRmzTLt4OzL300gaLbDTbKU+ZUDqCh7EWbqoooN2e6JEQ7YvVX9gyyEQCGzauHHj+Mcff3zOm2++qb/dIHLicbiuCUIcQIw2wSQH6O2vZcuW/alnz55/T09P70VzfrSsS9aIaVOQDd6s6TsJcrxgRWY3PAxEDoTl3HmEgZWZkMGTLPmyAgJPNizCoDovJzKgzYemC7xSNh4InAR6FTnILG3JBh6eKcuQOJ4u8MgTj4ySBEqELQ87J/5AtX8Vf8CzadY1GTmw7ATNv7q6evWaNWv+2rdv339Tqgj4EoNebohDbNMEIQ4gEgThkHMOEDmYP3/+SQMHDpyamZnZKxKJGLQgJBOIyEyF9gxpmDLBgecU8ADB6p/lhHCHq0IQ8HvxOdL6YY0Pz3pY86PtOZBxwiI5iJwgj+CI1qBpfZMY4UGIlk2KiIesXrFIlyjI8YiSLDaxyIDVB4sgqBAeFeztduPpD3j982xFxg3SfAn5nIjwiWzDlgE+VtwfuFwus6qqavXixYtHXHTRRd9zSIImCDJCFdyjCUIcQIweemTZJvEH3n333aMuuOCCt5o1a9YzHA5beJMlOzIgqhgy6ShZQU/GuHnGLnLcoussgkBzGPg4Yi1v8sTLCp4ilWBljDSnJkOS8EDBkietHXyctGBDYk7qAG+etHHIPC8T9FQIhFNbEAUqEjueLsiQRlp7vD5U9EIFA7xd3LacYE7zById4Okvb86sdmlkEpGEioqK1QsWLPjz1Vdf/Wt0nPhnom1yoEmCyJlpghAjQuLH8XMO0N3oGGWjW7durqKioq7nn3/+ky1atLjQNE37eGVxi7bGm4fqt4yjEhmodOfR0wPJYC37PC9LlG3Ddiikg2wMOMRLDk7bwR0uwg8PgCr44yTDSTtOx0+O0Uk7Tp6hYeO0nUTJALcHGVk6HX88ZEDasK1DMuPmycLlckX27t378SeffHJ/UVHRhvXr16NjmJHDtI9j1iTBKcjYc7qCEBuIJDlA/7YIwpQpU9pdeumlY1u1ajWY9jojnunLGjwrS8enQGajtIqCbH88B8EKOCJnxMpMZcZEZhm8bIaGFdm3k4BnOzwRSbH6j07KcNX+DfE9dBrywXHU/h7910p/0DOC45JFmSAZ0GkOmYYDLmuZ/RXkWFljl5EDWWJH/46W2pjWWYuvAWb0zTZRP7Q+aLbC0ykatrgOkTosaisWW2DpIQsH3tKVjO2xgrWIeDr1ByI7iM6/cvfu3TPnzp07cdSoUdsxgkCSA11JcBjnNEFwCByxrGD7eYscDBkyJHv8+PH3tmnTZoTL5crjdcFyEqIyNs3xywYvlrGLgoQTY5eBV9Qu7phZyzP23EVzEDk6GdLAG69tUOieoAmwP2TCnqAJlWGAgGlCIJrf+FwGpLkAst0GtPQakOsBcBvRbxmY7Be6RViJrrPkIfscHvRYWJEkRkYHbEKAng2bESgLVkOJ/wBUhPxQEw5CIBKyqECaywM+lxuyPD7IT8uGvLRM8LrctcTKwq02FvDIlugaOV5RcBXZqkyw45EPkcxY/fNsRSQTGnkin5HRGRnSK2qX5evQ7yORyL6dO3dOHTdu3NOvv/76AU0SRJJVu64Jghpeh8Sf6D/sfQcWOQAAz6pVq/7SrVu3h9xud3OasxJlW7zMg5dBikgDL+tTzWZobbGCM2/MorViFayckAOac6JlRfg4SKxc0YwXEYBivwkbqiKwoiIMm6sjsC9oQnnIhJoIQMg0IRQlCF4XgMcwIMMFkOMxIM/rgq6ZBhyb7YEuGQYUpBngcRlW1QH1h8KeCCucJJFzIHVKNYjzMlMeNrwx11YKDAiZYYsMbDiwG5bv2wq/VeyGvYEKKA9WQ1U4CMFIGEKRsBX8PYbbIgTpbi/keDOgRVoWdMkqgD557aFbs9ZwREaudT1CLM+xCCTN1kgSJEMYyAoFj2iSwdduXyRflgxIuxcFbpmgzfIHPL3C58yzRZo/oLVLtkHTWfRcKBTav3bt2sePOeaYfwJAiCAJeqnBeYyrq4LG0ETKPUpbVrCXFlxff/31Zf369fuXy+XyRSIHv04qm0XQMjQ8u6CVSmkSoLUj4xh4mYzIsGkGLHJWrLHTHAwtyOGOxQl5ksUOv8/qxzCstSRkQWVBE74vC8OCkhCsrAhBacC0rqGKALpOKkwdxtG/WCQguniKiuatfS44LtsNgwrS4NhsF2S5jdqAZyDCcLBaimeIpHNm4cIikTSiRAuMPBnQAgQ5RnSPy3BZZKcqHIBf9m2F93f8BD/t3QK/15RZ86slXIa1HIPQI7OYaI2gljwh3MwIIPrQ2pcNxzZvDxe3OQ5ObtkVctIy6qoKLN2V8V6kDrNwwQM9j5CxCIGKLaB7WcSMlD1NBrH4I5YO8GyJ51ecyACfk8vlgnA47P/uu+9uHjBgwAdRU7L3JOjlBhmAGffoCoI6eNR9BxdffLF37NixZ5xwwgmTfT5fF9yp0ByMbaC8TE4loJMGyAsQMkFCJrDTsi/WOFgw04IcrQ1RIBdlX7ZDlSEeJBmgOdOqsAk7aiLw5b4wLNobhE1VEWtJARGD6JYDdc2KPhExa3daeQyAXs3ccHZLD5zc3A1tfS5ASxPk+GjyFAVyEgeRvFm6yCO0ZBBD/0ZLBdur9sHS0g3wSfEKWFm2A0KRiEUGLOLgGDVEFEyLLHhdHuiW3QrObt0bzmjVE9pm5kGmO+2QJQja/GmBlac3NDngslCRgf1crP6AJifydzx/xILffoZWXROJTETc8bnL+AOavqPnampqNv7444+jJ06cuOijjz4KRomCJggiAXGux2KPMXTbaB/FyUHdK42dOnVyT58+ve+JJ574eE5OzimmabpFmR4ZBGkOgjQEFcIgyrZFEqAFDJ7zIh0pToBEVQ+RA5EhU7T+ZecgcuR2/0jg/ogJqyvDsGhPGL7ZH4LtNRFAAd2qFiTgB7WNliM6Z7jg9DwPDGyJliBcURJyeKc0R84jcjQ9ZE2DFUDJ+w/TE4vwmLCxsgQW7VoDC3evhvUHdoE/EgK3ofxyjxTKaB8DqkR0zGwJp7fqAWe1Pgp65xxh7WGw9ynQGpLJ/MnnaARSxv5wWcXbH/DmwQvCKgRBVq949s8iNPY4aLbPIlOGYYTLy8u//eGHHx4aNmzYss2bN4f1FyClzIV5U4LcWmyDStKnWW8suGbMmNFm0KBBf8vPz7/KNM10XumXVG5W5ktmZjTWTAZF/B6RgxJljDSnL3KE+DOyBEHGQchkLyIywCJg+O/JMdeNLfp2wZ5gBObvDsEne4KwtToCIVT1rydlRUQhzWVA10wXXFzghbPyPZDnQQsStT+s+csEdZEMSIx4RJUcB6oK7A9WwRfFq2DO9mXwW8Uu8IdDVvCujx80Ho/LDV2aFcCf2hwHl7TtA3lpWYfgxSO+KqScDPKsUr+sbZBylQ3sIlsQ+SeaH8HnxqsikH2TfovEU8XPiRKN6BhrSktL35s3b96jQ4cO3UksN1iQ2iZTH/rX2PuoHytt7CjVjp9WPXD169fP/dprr93buXPnB1wuVxbNWYuMBIeHZjC0wMvqhwW1yFnRCAFPbKSToc2R9ryMk6M5GbIt2hIK6UBoz8io4iHkytocCLC6MgL/2OyHXyvQUsLBVxhl2ovnPci7ZbgMODXPA0Pbp0HHdLQ/4WAPNJLDwo6lV7K6RZMBrgfo+rbKvTB1wyKrcoD2HDTkD9rg+Ie8DjC25/nQPbswuvmz9tVSFdIji6esLdMqCXYfIlsQZdg0O423P8KxE5ETkR3TkhAZfcRlGIlEKjdt2vTEjTfe+PTSpUtRFQHfj6AJgoIRaoIgBxZJDqyl5k6dOhnTpk27ZODAgTO8Xm82bhy8rERG4VnBlSQTrCAoKv+JnJeT/nkVBhbMIgdIBjHSGeEOkFaNiSUIIqGjhczPS0Pwz60B2B2IWPsCkuEnbAJ0z3LBPZ3S4Q/Z7rrESFTlYV2XnRMZTFl6hM5++HnfNnhy9cfWPoNY9xfIjk90H3obAu1JuLvHuXBW617gAVfdGyKyuiiDoagySBunbP/2szxCTJMT7TlZIiLjD2h+jYUD2V48/RHatBgMBg8sXrx46PDhwz/cvHmzvQeYtXFRpDYpez1J3F1S408uLdivM3rnzZt38llnnfVyRkZGJ/yNBRpDF81QJriKyne4gbIyB9Y4RE6Pl4nwjFtmHKyswZ5PorNiWgaJhF4eNmHeriC88XsA9qI3E5LMWtASR6s0F4zumAant/BAuvVa5OFnwrAyfRa5ZAUvmXbQPWhvwVe718KktZ/Czur94EnQPgORTbGuo42MBb4cuKXLABjUtg808/gOeztERMR5fdN0XgY70m+wgqgoqNP64pEJleAvmocMSRcRIZkqgsivIJJQXV29+Ysvvrh10KBB30W5vj5pUdFokszlKY4+8bfT9h2gdM2YPXv2MWedddaTubm5Z9LIAc8IRMptOwraeh3PqbOya5ZRy4xDFmKyLTKo405N5Kxo10VjpfUvckRMsgQG1JgmvLYjAHOKgxZRSFZDQcsLLbwG3Ng2DS5q5YVmrtpFVpHMRTLAgxVeAheRwcpwAD7e+TNM2/Al7K4pT9gmRFm9ZN2HNirmebPg+k4nw5BO/SHd5bXegIjnDy+Y0kipKAGQ8QesYO/UFngJBatN3PZpyRKpeyLbdjIn1Cb6U1ZWtvCLL764/8orr1wRLbPZGxet/CPatj5pkSHoZPV78bRTp23h2NhvLFhLCy+99FLhRRdd9Eh+fv6fDcPwWZrGeT+dlhnwMj18wDRj4gVbVrZNOiTS0asyf9L58QgCaz4kbjgxoj1Dw1gUCFX6tvuviZjw8nY/vLcrBDVJTA7q9AAOkoRLWnnBFz2RkVn+p2wQlAkgLJnbvw+YYZi343/w0oavYJe/nHKCgVNTTMxzaM6ZHh8M7tQfbusywDpgiVyaU8HFHqXINvD78JmRfdECJ8sf8PyPqB2WHdLGxtMBmpREpIblr0iMRNhwEgR/aWnpm/Pnz3/stttuK2ackYCThcQoWyNtVRMEuuCY5GDYsGHp99xzz4iuXbs+YBiGdVIiSQBUMgGW4stmGLJ6RzNsnnMi25Vh+bJZqQqZYlVFaPMW9U+SoMOIFjoeGcCqHLy0PZC0VQOqI46ShLs6+uCcfK/14QeWzFRlaQcQbkYMhvX64hOrP4bdjYAckBje2f0ciyi4se87yNoWSxdF6+qcoFbXpChBYI2RJyuav2IlCKwxyuiQ3Y9MNVVmvCK/QfNZ6HeRSGT/5s2bn5g4ceLU6dOn12iSIK/ZmiDwCYKNj1U5QH8+++yzMwcMGPBPn8/XyVZYJ+wWD044yaC1dVggw8bMup+WCeFGzQqWtHHRDF2F+fOcnB18ZDAg58QjODIOjJxD2DTh8z0heHqTHyrQLsBG9oOGfITPBRN7ZECPLJd1cJBsxqeSKZPkFZ11uLFiN4z+aRZsqSpN2mUFljiRpNE3Hf7a6yI4s3Wv6Hcd2ASLFYhI2xFhb2POIraizJ/MzlVsl+dnqAQ0WiGVnRPehojksMgJTmRkfCzLH6D2A4HA5q+//vov55577kKMIOgvPwp8nCYIhwNEVg9scoC+0Njpuuuueyk3N/dUct8BaRCqbJeXhajEKVrgFrFzXhbCIieigEKOg+W8eHPD2+DhGw/sUJD4tSIMz24JwKqKcKOqHuDzRyThjzluKDoyHQrR16CwI3lFGa1IFizSWeKvgHEr3oclpesbHTmo00sA6NO8Pdzf60LomV14CBS0ACaqVuGkmpaFk8RYxsZlSK+MLcTajkzlQ4UgyMwdJwu4Tsv6FbRpsays7JtZs2bdNmrUqM3Y9xrsNxtwVZAdUpO/TxOEQ0XMemPBNXjw4NwJEyY80aZNmyHkSYkyWiLjUGTaifUep84h1n6T5Xka6UBL8mUhgKc3++E/pcG6nUvJMmbVcaCNi1cUpsHtHdIg0137melE/aA3Fv7520J4ffO3YMR4VHKixijbLjrV8aI2x8G9Pc6DbG869Y0Q2bYaw30sAt4Yxq46RjRXdNLizp07X3/wwQcfmDlzZhl2PoKuJDAA1QSBTRAQNvYrjb4VK1bc1KtXr8cNw2gmkz2TFQS8G9HzPOWXIRq0MmC8+rfbERENVgXBZv+qBk7eL+qf1j6rlOlyGfDR7iBM2uQHtEGxsRsF4gPoM9L3d06Hs/M9h228i6cMFu1eA4/9Og/2BSqTflOiSOfQmw1Zbh+MO2oQXNDmGLR2LXpE6jqrgmA/HA9/ILPOj9tuvPyBTHWSt8QQT10U4Rgda8Xq1asfOuaYY15FJ6frLz/yVbix+0IpA5W8CcfCJgbW/xcuXHjyySefPM3n8/UQKaFkX3W30YwnllKwav+s+50EYKd9i9YonbYr8xwS+t4QwNCVVbCtJpKwbyrIjCWu95gAJ+S64aGuaKnh4JHMPHnz+j9sDRgMKAlUwPhf58FXu9dFv7wY1xk0SGPoGw7olMV/nXQLZHvqv4rQkLYgSkzi7ftkdBHfpxGP/hG+fr9/7XfffTf8zDPPROcj2Gcj4GckWLylQRQwyTrVBKFWIDRyYFUQpk+f3vHSSy/9e8uWLS81TdMjIz/VNTqRYapkGvHcg4CPS5UwxGMPApnxxMNBkFgjL/DclgC8uTNgfRSpqfygeaHPRN/R0QcXF3jAjR0n7BRHPFtEZwb8e+cv8NSaBXAgVNPoqwe43IORMAzvdjrc3u2smNSBlV3HUtqXqSCSg463P1JNYBJBelT9EeHLQnv27Jk7d+7cvw4bNmwLcRQzXjZKeZKgCcKh5OCQ8w6uv/76zEcffXR4586d73e73c1ZywZOHa7I+8RiBKK2Za6LnFEyjE/VWeHzRicjrquMwF1ra6DUj77+J4NK47kHebdT8jxwf2cfFHjjNznUUmmgEiasmg9f7F7dpMgBki56+6NNRnOY0vcG6Nys4JDvNLBsXWQr8dAaGXuTucfpWGSWE5y2LfOcCGPRdTzhCIfD+zdt2vTk3/72t2lvvfVWlX71kS6B+HkNGQkn5z34xkScIBj/+c9/zunfv/+zPp+vW7xJAMuQ69MIY8lk4iVKGg6yhh7LGJCggybAy9sD8OrOxnXmgey87b0ID3TxwdktPYd81EnUBi4DdC+u/+i7Cot2r4ailR9aX2pErzk2xZ9RR54Bt3QeAK4GnF992AKvUpdIwkHTmfrqL7rUsH7JkiV3n3322Z9T9iLoUxaJ0npTtHHRnJjkoKioqP2dd975Zk5OzgmmaTZNDyhCpwlfR28ubK8x4dHfauDXysb7WqNIROi1R0QOJvTIgAj+2UfRg5zr6JWxh36ZA/N3LLc+wtQUf1B06NO8Azx+3OXQJr15k3+joSnKUDQnwzDM8vLy/z733HN/Lioq2qZJwuGIpXrgsysGCBn7rQVXXl5e+rJly57q3LnzsHA4fNjnYONdTRApMs7wG6pvCyDsiN6GGEc8qytI2F/sDcFTm/xQjr561ER/ECdomWbAS0dlQlvi09BOpowIwa6achj8/Qwort7fpAlCi7QseOSoQXB6QfdDoOJVV5xg6vSZ+sq2ReNrqHHEwx+53W7YtGnT9L59+963b98+8pRFq3iWyhsWU5kg0KoH7mOPPdbz8ssvX3HcccdNdrvduTKBMJ6bgETGSF6nGUk8A6nseGgYWNaVyJfwscGpOqnqiAlTtwVg9Qb4tQAAIABJREFUzq6gUuldFo9kug/xn7GdfHDNEeiDRLGNDBGE97cvg0dWzk26rzTGNrPDn0bnIvy548kwstsZ4HNJ7U+2GmlIf5As/dto2nuE8H/HW0609mT9AbovHA6X/fzzz6NvvfXWOb/88ksIAOwPOuHkIEbLqY9Zx7+PVCcIOElAX2l0z5o1q+f555//dE5OzummaTbN+mn89ajRtbgzYMLfN9TAT+VNd3nBFgoiCP1yPfBsr3TrYI9YfpCXvOt/b1t7EJLtM86xzIv2LDoX4eSWXeGRowfBEb7ceDev20sSBAzDiJSXl3/5ySef3HvdddetiRIE8quPmiAkibwSPQzyKOW6pYUHH3wwZ9iwYXe3a9fuDnQgUqIHottvGASQwJcfCEPRBj/8jt5eaJhh1FuvyLPlegx45ehMaOsTn4nAGhjKtnZVl8N1302DvYGKJrs50Z4/epuhfWYe/P3YK+C45u0SeiJlvSmD7oiKgGmaFdu3b39++vTpz06YMKFcv9VQC1MqVhCoSwvozIN///vfpw8cOPB59NaCtqOmjcC/S4IwcVMA/OiDRk17qrWLqCbA493Tld9mwKFBywvoi433/PQ2mAbCrWkjhyoIme40eKj3RfCnI45t4lqip+f3+9cvXrz4jj/96U9fRglCyi81NG0LP1znaQciWR9juu+++1rcc889UwoKCi6RWTfnHaVcX6ZGru/VV792P+THexpL/+gklFd3BGDatkDTOTlRAH51GOCuTj64uW2a9Z6/kx/09sIrG7+GJ1cvgAy310kTje4ZhNUd3c+Cm63XHdk/De0PGrr/ZBBsrBigCllJScmHzzzzzKinnnpqL1FFSMkDlFKRINhzrvuEc0FBgWfBggXD+/Tp838AkJ4Myq7HkDgE0PkH6O2FebuDKUMQAhGAawq9cG8nn+MDodAGx0lrF8Brm74FX4oQBHT08lXtj4f7e/0JvE30lc7EWVrjajm6sbFm+fLlD19wwQXTSkpK0IZFRAzsP2hCKfVWQyoRBHJpoY4gzJo16/hLLrlkps/n6yhTPWhcaq9HSyKAPsh0/7oa+H5/2HGwbGyooo2KA/M88LduPsh0q+9DQMsJVeEAPLziffi8+FfwuNCe3qb/EzZNOLWgGzx93DWQniKkqOlLlT3D6AFKWz788MPB11133Y8EQUi5txpSjSDg5x4gD+e69957W48ZM+aZwsLCy8LhMBcP/MMhDWFEybCkYM+bfBe8PvCI15IGesXxL6tqYFVF6hAElP3/MccNT3ZPhxyPM4JQHqqGe5e/Az/s2dhkzz8g9RgtMRzTvC1MO/5Gaz8CvrzWkLZgpbJo/wx2Nkl92CCtj4YaR6xLCiy83G63WVxc/MGkSZPuefrpp3dh+xHwCoKzdbqGEpLDflOFIODVg7ovNRYUFHi/+uqrYUceeeQjaKO3QwwPM1SyCpFIIxZVPBLZN+6keO87J3oMNGdJw8UeR1XYhNtWVcPGyqb3/QWWDiNv1jvLDc/0TIfmDgnC/mAl3PG/N+GXfTvAlQSByam9qjyHCEK37Fbw2om3QZbnIEHgtUESWTyxqI9gyuq/PggNzffVpz/ECRzrICX8nBiOHMt+++23x0477bTpJSUlQeyDTmi5IWWOYU4FgkBbWkC/c8+ZM+foc845Z3JWVtZJ6DhlmvHKZK3xMnpW/zzDjheLFhmxaI6i67JOmYcBj2io9F8RNmHIimrYWZM6BAHh3znDBc/3yoCWXmcVhD2BChjx4+uwvmK3rDgb/X2IILTLzINZ/UZAtscnNR8VXZQhGvg9MvYej/5Z/kDWH8aLjLCqtqI5iq6LBOlyucyKiorvP//889FXXHHFSuzwJJsgpARJSDWCUFc9GDFiRO699957Z6dOnUarnnkgUj5WNh2PTFrkIGgGJQr+ImNxUlYksya8jXjhwMsEeESjKgJw08pq2FadWgShY7oLXuiVDvlpiCComT7ag1DiPwDDfnwNNleWOlGZRvkMIgiF6Tnw3imjINtD37/M8gesYMoKek4AkmnLSeIhOxZ8jugZmm2TPquh/BHriGyWP4pEIhVbt259btKkSZOnTp1alopVBDUvIas1yXMf9VsLSI8//vjj/gMGDPhnZmZmT1JhYx2+iEDQSuKx9omX1liGSvYh41ycjku2bRmsnIyB1y5aYhixqtr61HNT+8QzDyuLIPTOgHyHFQRNENRecJLJtp3otuozsjYma7NO+petKMiO1ckYVBMTdH91dfXqr7766vYLL7xwCfYxJ3KZocnuR0glglD31kJ+fr73xx9/fLZdu3Y3oaUGVgmPDLSsrJjGTFlsVRS8eYxcxnjIMdrjUHVWNJZPywRYWTzL2ajMgXQq5Bx4c+JlTTURgDvX1sAv5amzSRFhqUoQcHmjPQel/goYmqIVhHf7j6yrIIi+tSBrc7HYAivJYOl9PP0R2YdoHqTfIP2tTOCW9UcsIsIao4RfDG/fvv3V448//u7S0lJ7L0LKvPbYlAkCbe+BRQZeeeWV06+//vrZaWlpzSIR/PwLOi/lBW0ycxcRAFXm68SYYumD9yzP0G2HJZspOBmjyJhF47P79EdMeHS9HxbvDekKgqQg0BJDqf9AyhIEfImBFqxo1TnJzXCSEjj8Nl5gFtmK406xB2X6EJGHWMYhsnfRdZm+0eFggUCg4q233rrylltuQScsoh90wmJK7EVo6gTBXmKo+97Crbfe2vqJJ574V8uWLc+gkQMZ45dRLNE9ogybdV3Urux1kfHUJw687CYRhCtsArywNQBv/Z46JykiHFUqCKT8dQXh0AqCrJ2p3MereiWSePPIPS05SnTQF+1jSIRPsPGlzQ2RhD179ix64IEHbn755Zft1x5xgtBkD09qqgSB9lqju2/fvr6ZM2cO79GjxwTWlxplWLGK0dvGJ1NGw+9VMUIRmXAyJ5X+RXMUkRFa9pVIh4is+d3iIEze4q97X0lVpo3x/lqCkA75Xpdw3ocTBFdqVxD6j4Jsr9oeBJaOiOwVf07VdkS2qKq3Tn0HL4g7nVO8fYKKj0NffFy7du2DgwcPnrZs2TI/5a0GC3pVfJP9/qZIEJgnJr7//vt9zjvvvCnp6el9kHKwsmSWUcgatkz2Td5DMygZBSaNTaZvkoiwjJnXtmjfRbywYmVVIsIlwuGrfSH4+0Y/lIdU9/Mnu0mzx8erIIjwQq3uSeE9CO/1HwXNoq850vYg0FCnZd887RHJQMYf0AiCqF2ygsDzB7RlE3JcKn6DzNx5Y3XSLt6+DMFg9Y+qCFVVVcs/++yzUZdffvnyVDlhsakRBHw+dcsK6MTEyy67LOfZZ599oH379iNM08yQMSRcoXAj4BmEbVwsZcY3MJEKSyMNuEMRbY7CDZskObR/q4Y68uAR3FmIyBbpCHj/Zo2L7E/UPwtPdMbP+mqAR3+rgQ1VqbNR8SBBQKkO3/QPkyfagxBArzm+npKvOZKbFMksn7QN3A/Q9Jblf2jtiOyBDOg0WxQFV5HvoY2BZ3+k3xLZP+mfaIGdHAPNH7Gew32nyI+wZOByuaq3bds29e67737igw8+wD8Jjb/VYIlW1bcm6/1NlSDYew/QmwvWkcqfffZZv/79+/8jIyPjaNsYWIbEUyCaYTsRLs0gWf2SREWGCYvGJMpuaCSIZ5Ci/ljXVZyZSC4qY9gbNGHS5tqNiqnyo1JBIDFBn3pO6dccOUsMspm9SM9UbAEnICRBEPVDuy6qMsgmHKLKHs8PkAkQPq9k8EeoilBdXb1yyZIld5177rlLsSOYm+yGxaZMEOpea7zzzjtzR48e/UCHDh1GGYaRZhuDqExOsl78ORVG7qQf1kYdWQOUcVpkVYTF+mmsXIbMsMgUiR3eL2/csk6KdJ40B4o+XjTr9wC8vCMIAfShghT4wQkC+clnkV7ptxjQJkWr8EhdmqT5AxlC69QWeLYla5s8lRcRBrx/GZslfSnN5uPhj/DkieWjWf6YNg8KMQls3bp1yuTJk5947rnn7MOT7Ncem9zpik2JILBeazQ++uijkwYOHDgjMzOzG6t6gCsWaTiibJt1v4oBkorNIgiibIEkMSzHT86JHCtZkiMdoyigsEgYDSta36wshzYu3r0sGSBl+flABB7bUAM7aiKQCp8WYG1SZFWzDiGMKf6a47unjIRsd7p1UqBM8JQNoGSglLUF3B5lbFHmHpqtsJZHVPwBjwThxIHnL0ncVeTAIlMsv8GTAeq3qqpq/eLFi4defPHF30eXE5rsa49NjSDY86lbWgAA76ZNm55o3779MPJQJJnALuM8acYiqjCIAqBt0LLOiEdqSCOnkQxRP6LrLIchKg3WlwwON3qAA2EDJmz0w6I9wdQhCOhbDNY3h9RMXx+1fPCoZVlboNkdbnsiEs3KaA8hbgxmS6u2kUkIrx3WHFmJhSgRwYmAylIlCyNZGdDmLFPZYY03Kr/w1q1bp3fu3PkBALAPT7JJguUKm8o+BDUvwaN4DXuNrB5Y+w6QF5w8efKJQ4cOnZOWltaSdu4Bqay2AdMMgRW0yYArCoosRk1Teh7RkGHconIjqw3RsoiIOJGVDFnnRMOGVhWR6V+UNaExfbYnZFURUmGVAa8giJYYSHz1HoSDrznS7JuWddKCtEplLhZ/IMr8aX5P5E/wTFzWL4kyf1ElgOcrRXNgERFZuZBJj41P9PCkPTNmzLhi9OjRP2BHMCOSgJODRr922ZQIAv7dBUQQ0LkHWXPnzn2xbdu2VyJyIAoqpAHIBBj8GdzAWIrNyrRJxkrLHmgGLMP0acGe5tDI8cvMnzQ2sl0nWRAPO5YTc9IPagt92XH0mhr49UAY3E3FGhggqexBoBGElD5JUeEcBJYu4kE7Hr5CZAv4OGT9EU7knfhDUWbv1E5l/SEv86clGjTSI/KX6DoiCTt27Jh96aWXjly2bFll9FwERBCsJptKFaGpuETyxESLIHz66afnnHHGGa+5XK4cFjlgZaw0Y6a1QVYPaISBlnHILCHIZiqsoExj+TJOyp6TTJYgai8eGYTIYGky4GVDuIzQx5o+3ROG/1tfAwFT9PKfqNXkvs6rIIgII7quz0Go/dwzLevF8WNV33AyTdMUmWxalDXH6o/wAIvPlVWREBEC29Zw4iHyS7K+muWPRf6AVkFgjY/VFsIjHA6XL1q06Mbzzjvvc4wgkCcsJrdTEIyusRMEfPx1n3JG5GD06NEFDz300FOtWrW6KhwOo2uHfYpUJgA7ka7I0HGjkTF4lTHgxIMsZ7IyCpX2RfeKgrmTpQtRn06cbR1JAIAAGPDEJj8sKAkqrsw7GVnDPcN6zVE2q0Mfa0rVzz3j5yDISlBk28lmC7LzUrlP1h+wKpE8EqA6DhbxwNtRiQlutzuye/fu9x5//PH7Jk+eXEJ8owH/yE+jXWpoKgTBriDYew8833zzzYV9+/ad6PV6O+ClJVIZeMGFlv3WBRZic5Ao2xYZikyQExEPkgCICIJKJsSrgpBZB07GRBmGigOgZTG8Mqps36iKsLbKhId/q4Et1ZEmu9TAO2pZJAe9B2EkZHsz6pYpyeDvpGqg6hNE1TiW3Yn8BpnlswIvaX+0rFuV9LASGpY/xH2NjAx4lQFW0ihLPFD/wWBw67Jly8aeeuqpHwMAOlQFEYMmsxehMRMEsnpQ9+bChAkTWg0ZMuQJVD2IblakylzVQGUVh1Q8GeYqa6SyY5AJ/vVVUVApBYoClez8ZYz/oHMCMA2AD3eH4IWtfqgKN82lBosg9ELfYjAsL4b/iGzBBUbtQUnL9EmKKjpIBiieXYpk4KRfvH8akaddj7cvIvWMt4RQHxjwlnoc9B/ZtWvXezNnznzgwQcf3E0cntToqwhNgSAccqRyQUGB54MPPjjzj3/842Sfz9cRV0aZ8hGpIHjFAK9E8LJT2jVRhYHmSEiHIDN+FvOmGYWKsyKdhigrIefLY/7kmGkyIOVAy2ZEJV2eg0VKtD8C8M8tAVhQGmySbzXUEoTDX3OUIbD6oCT+a44sm5ep4qkEblyHeQSfle3bxFmWiOPtsPyRzDhYZBT3S/Xpj2j9svpn+SMbS7/fv+Wnn34afdllly0sKSmxqwhN4vCkxk4Q8HMPrArCzTff3GzcuHGPdujQYTgAeGQNQYZpk+UwXtBzGqx4hk0LpKz5iSoIomxEhgDIljxjkQEtmyExojkxkkzJZEVoqeG3KhOe3uyHn8qb3lsNdgWhZRo67IevAaRTRIZWksJ7EPCPNdmBQWT/KkGIJQ1ZP8K6j2UbIvunJSzx8DVO/RJtfuTvZP/NqyCwEiySmBGEJ7R169Zp48eP/9u//vWvCmwvgl1BaLTnIjRWgsA698D14osvHn3DDTe8kZmZeSTt3ANetkpWCGgBkBVoRIbMM2BWBuHUmFSqCDKOCc/eRdmOiAzIEA+aAyYzEFHWK7qOy/EQwgEAKyrC8NRGP/xW1bT2I8ieg0DLhlP+oCTsNUeZSp4M0ccTDtkERWRfskmEyF+x/KRqJVJERFj+gFehVfFHPH9l+xlyTjxsaOONfunxtzfeeOOGkSNHrsS+9Njo9yI0ZoKAv9povdaIXlRYsWLF2F69ej2M/q1qTCJlJoOUKFiKlFOlP9V740kueCRCxMYTOQ6RE1Z1griTXlcVgaL16GuPTYck1O1BSDOUl1BchgElNXoPggyhZpFTka2o2jgvEZBJhOLRn2obifYHMj453nEh6mfCq1at+vuxxx77FHb8Mk4QGmUVoSkQhLrNidddd12HqVOnftysWbPOSAlEisBjr7Eqskq5i5Ydx6N/XomTLCGz1lBVHYAog6FVZXjZgkiGvPGRc2Tde5jjNgzwGACrKiMwfn1Nk6kkxHQOggmADkoatuw12Fy5J1a1aDTPoxMnC9NzgFxiUJ0Ajcw2lC3QKiAsfyAi4U5xwMm4zD6EWP2hXS3Aqw+yS0AiX4naRFWEioqKTSNGjLhw1qxZWxlfemx0rzs2RoKALy/Y5MDdrVs3z7vvvntXnz59/mafmugkgyQNgmUgKmUoXlmdFZjxflUrETJzEGEj67xYWZHdvqgcy8OGLCXSSoGxZmU8x42MflVFGKZtC8D/ykMQiKCzNFRdYvLcj29SVN2DgGahD0qqPSiJlbmTdsqzQ1u3ackB+Tu8XVW7tQMj7mdkbE4UwFUCtihZEmEQ6xxYSQsvQWTJgCZ7G1u32w3Lly9/9Oqrr/7H+vXr0WZFVEHAP+RkiT15PIJ4JI3N3TH3HkycOLHb0KFDZ+bk5BwbDtsnXooBECmPiiHwDFt1JCoEAQ/GpGGr9uv0fqc4qTpb1fHRsJFtAz2LFG6b34TZxQH4uCQE5SET0GbGxvhTt0nRa0h5KZLk6YOS0h2L3al9qARXnu2LiAVrYqxx8+YTi83JAhwLnk6qkuScaHNEBKG8vPyXGTNmDB47duz6prAXobG5Olr1AFUR0pYvX37rUUcd9ZhhGFlOFEBWMRN5n1Olj9eY6sOwRWNNBgzIqgRafz8QAfhmbwhm7wrC6oqwtYbf2KoJqgThEMIb/dxzqi4xODlJUaTrouvJYAtWyisqN4kmEsP1ZPBJssOPyqvy119/faRPnz4vW4e0Hjw4yT6CuVFVERorQUCkoO7Pk08+2enWW2+dnJeXd6Zpmi6eQjtl0mR1IJZ181gMPx7jj0eVgVeeE80vHnPAKyy2LOLRLjeTAoCdfhPm7ArC/JIg7A+a1qmLjcWIcIKAsxuZAGCfg6AJwuEa0pC2wAqgNPuQDXQq95GVThldItuPx1hZMrD7EsWEeCxVor4Mw4js27dv4csvvzz6/vvv34xVEexzETRBUFEwhXvJ6oG1/6BFixbeL7744vJevXpNcLvdhQrtSd8aDyOQ7oxzoyjwxqMPXhuJDMAyY4+HI5Hph0cSkBJGDIDVFRF4pzgI3+4LQWUjOXlRVxDUpW9vUsQrCLgdNGSG3dD+IB6JhrpEDj7R0P6INfZwOFy8evXqB88666z39+7dGyTORbD3IDSKvQiNJfmxyBn2x64euB999NH8oUOHPlZYWHhD9FVHS25OmGwsyiqqMMSrbZl2GjqQRpl0g8tBBisn91hHd7pqXxVcWRGBL/eF4H/lYdheE7HIQogw/WQxMv2ao7q0aQRBtZWGDuTJ0L+NWUP6ZVW5Ob3fMIxwcXHxGzNmzHjkb3/7WymFIDSaVx6TxXeJZEHbnGidfTB//vwTTj/99CkZGRk9nShffa1xidhufRmxSj/Jgo1IOVSux3NOqC20DyEUAfjdH4G1lRH4rSoMm6pN2OGPwN6ACTURsD4jHTbBIhSWZ7AIRP0nEB0zXDC1dwYUpLkABT7yh4eNdQ5CCp+kiCoIOdjHmlR0TuVekZ9QaUt0r6otqPgOUd+866x+khkbMkGsrq5es2jRor8MGjToB+xthkZ3cFJjIAgkOairHpx00kmeGTNmjEYHIxmG4XNCEGJRZP2sRsBGwHZeiAxUhAD2BU0oC5lQEjBhdwBVFsAiC/5ILVmof3oA1kea/nyEB5q55d5iOMTp6U2KkO1x/haDtpTUQSBKcPyrV6/+v6FDh07+/vvv7Vce8e8zNIqlhsZKEKzqQf/+/fPnzZv3Vl5eXn+ZY5VTR0X1TBsKAXJ9Go0D7VlACbsZfe3BbBB6AGCY1vGijqDRmxRHaoLgSHNS8yF0hsq+ffuWDBo06PolS5bYywz4mQiaIMRJNWibEz1oGfj999+/6KKLLnrN5XKl6epBnNDWzcQdARppiHsnkg06tRNNEDRBkFQxfVvt2wwQiUQC8+fPv/Hyyy+fH32bAf/SoyYIcdIUcnMiqh64BgwYkDVr1qyX27Rpc3EsByPFaYy6GY1Ak0ZAEwRNEJq0gidgcujgpJ07d3509dVX37ZkyRL0lUe0xEBWEZyV9BIwXlqTjWWJwdo4Hv1jEYQZM2acMHjw4A+8Xm/zeC0vkMcC15MM6rohzwavz/555zrU9zgaMuNuSBkgnMkjcesTe15fmiDUP0FoSH+UTP4A6WVD+YRYZICWGYLB4P6ZM2deNnTo0P8SBME+OEkThBicHPXVRnRy4po1ax7s3r37ffVZPaAdyBPD3JQfjUVZlTujPNDQwauhg3c8MIy1jYaSgSYIhxKEhpIDrj8N7Q/ssTTUOJJBBiJ7RlWEdevWPdWzZ88J0ZMV7QoCThCSliQkcwWB9d0F9+23395+/Pjxb+bm5v4xFArVscv6VBheX/VlMLR+cBKT6HHwAnZ9kClR//WVdfDkkOjsh6WH8SZTmiDwKwg0OcRbBrxglAz+iDW++vLLDY0BTd7R7zP89PDDD//5hRde2IYtMTSKVx4bA0FASwtonNabCy1atPB89NFHg0444YR/GIbRkmSxuLNWLZOxHD3tJEXeaWq0azLBSibQODE2WUelYmCyWKmWzUWkR1beMnjTHBoNK5oeqWBlY0DqEat/+/ciPRJhRdqCTP8sJ68JApsgqNgCbg8iHVXxByxd4Y1NlP3KkB7cXmTJsIoPYyUa5LxksOL5DhEWZOUG/zd5bgN+vkT02p7//ve/d1188cXz9u7di3/lEVUOUCXBUguVMdTXvY2FINj7DzyXXHJJi3/84x9F7du3v8E0TevtBZGh0YSr8oyqI68v4anOnRxXvJ5XbUfFQYiypliCXrzkpDp/nDDEOganWKo+pwmCegVBRraqcmjoLF1mTqr3OLGfePpk2QRKNC9WO4ZhBLZv3/7GnXfeWfThhx/uBQD8bQZNEETAUq5Tv7uAKghz5sw57uyzz34uMzOzL+loWYxXltni7YmyL5UM0gmLl3mGZVgsdk37vSo2tqzwwCyTyeLPkYRNthpDYh4Pw+a1Ieu4ZLIXUVsy8rb1k5QBDVtyXk6wwvF2GS4o9R+AlP1YU7+RkO2tPSiJ52do9hSL3cn6Gdn7RISbHD9Pb2V1ima3Kv5AlhSpki2RTZJ+StZX0tqtqqpa9p///OfOK6644mfsZEX84CRLtRzEyoQ+kqwVBNpnnT0dOnRIe//99685+uijx7vd7vx4OXde0JMxApkAoaLkZPBlGRPLWbGIjoomsUgG2YYIHxkjFDkQ+zqvWiCSAc+4ecGUhhmt+hQvB00eJ8v7t6wDE8mI1CPanDVBOEgQRHbEI3sie5C1BRl9pumHbJAT2TlrHvj4ZcgSDUvc3u3rsv6IdT+u46KqI08GKv7A7ge9zRAKhUpXrlw57vLLL39n69at6DPQ+OmKSXsmQjISBNrRymj/gee+++5rPmrUqMfatm17U3RfwiHyEglWtKZLKhcrMMkYucix04yAZpT471hrXaxAwQp8tIAgCnqksctgYD/jNHjynI0o6InG59RhyMyJRtxYGPCwEcmJN0ce6XGyvIZOYUTfYhi+7DXYXLVHFCObzPW6jzX1GwnNPD5rXk78COkPVNrB/RLLH/BkKhNcRYGdpYu4nrHIh4j02G2rBG4n/oiyN0BaliyyJesPUHVgx44dr06ZMuWRp556aj+FICQlSUh2goCffeCeMmXK0dddd9207OzsY0mFjodHkgkq8eiHDE40YuLEiauMTZVMqbStcq+M81JpT/XeeAdS1f5pRMVuI9E6oDJWvQch8ecgNKQtJLM/YBEPFf2VvTdRMkC2fODAgV9mzZo1fNSoUSsbyzJDMhOEQ95eQPsPFi9ePLhfv34T3W53JkkQaMFdhhWTzNCpU46HgYmyYlklJxk5znJFmUYswSkeMlCZI3kvLRsXZei0NkSZjOoYVfRQdbwsDGT3dbDmQsoy5QlCvxGQ7c2QFj0t0JAPi3xNLAkLjfji/Yv6xolrPAO0ii2QiZM0+NEbRf4gnvOijY2UQSQSqVq6dOnYgQMHzqR84TEpNysmG0FgLi+gJYZt27bNaNOmzRWRSMSQMQAnyshTQrs9Wqmf11cshu6AYaKwAAAgAElEQVTUKGhLHLGOg0aCWPslcKIRa9ATBXFcF1SdoCq+PEeAOzRyHPHCQEREaeMTbSiVwSDlCUL/EZDtOUgQeHIg/QNJ0HE/IoO9yj0svyha8lTpg2WPLNtoCFtgycAmPvFOAvA5smTgdrvNnTt3zmnfvv3Q6BIDuQ8h6ZYZkpEg2GOqe7URHa18zTXXdJo+ffrHzZo1a087WpkWoEUEgbxOY5S0rF41U5a5Hw+opLKpBFuSxLCCAyuo8sYhcjIyeB7mRMzDv23Iyn5pc8GxFcmb6gSj/SOls62TdB4i3eJl6zJZCg03ni7iRETUNy04qe43sdrQn3tmfs1Rxr5pRFpWdjL+gLUvQpaM8HSQtDGWHbJ0VoUgJNIWZPcgkH5CJCdawkgSEfRvdGhSRUXFtmHDhl34zjvvbKZ8wMl6LJneZkhWgmAfsWxtTkTYvv/++5ddfPHFr9rAk45PhgHLBBAaIRAxY5lyHY1hstqVZbdOKwKyc7SVw/rCiIn+mBAxwfpjWp8wNtGOLUulrf+h/9cxjNq/kF8Xpikc/m5PbTvYbwwUmqI/6Nd2P4f0f3AcBwlOrZmx3huy2zyk79pIWDuPunEY1t9ZP9bz0fvr7omO82AgP/h0XYnMqP24iNsA8BgGuIyD2NWlERJnfDitTMg8h9+j32Lgv8Ugg6cTP6LabtiMQO0fZKsRy5aQrRqmAS6XAS4wwG24wGO4LZ2zIxJTv6M66NTXyPplkc+T6V8Vq4P2WXuWDqsPmbhBEgJeTPjoo49uuvzyyz+ILjPYVQSbGGiCwFEa/NsL1keZEEHo2rVr5uLFi19u27btReho5YNBgC1UGcWUuYdVQcCflSEIsSgvOV/VvmWV186i/RET9ocASgMmbKuJwO6ACb8HIrDLb0J52ISaMEBNxIQQYg72Q/j/8QHSIjQecMnreCofDdiHBV47ANP+XweWBA9n9UW2K1IUghBYrIQxR0Q2vIYB6W6ADJcBeV6AI3wuaJ1mWP9v50O/MyDHY4CXcOC8TFVGB0mHKJrWIXqmKwjcCoJTm7RUnMdACSFZOoCUywAIRcJQHqqBPYFK2F61F3ZW74ffa8qsP3sDFVAdCkJ1OABhiEC6ywvp7jTI8fqgtS8XjsjIhUJfLrTPagGt03Mhz5MBGZ40q+3Da3oHB0H6Q/zfqnPB/ZKKLtKekw3iZD+yydIhLo3IelgVBNqcUBVhx44d8wcOHHjrhg0bqrBDk/Cjl5PmPIRkqiDg5AD93SIH6P9PPvlk79tvv31eenp6a97yAlkCFymsTOlYRvFEJUaWA+C1TRoeThJoSk5eVyEkCGyUcZQEANZVReCXA2H4rSoCO2pM2BsyoSpc6zKSSVlUHUqy3m97AlRJyPYYkO81oEO6Ab2aueC4Zm7olOGCXE8t8lY2iE2EtVTAKzer6OKhFQQDSv0VKX9QUn37A7s/W24ogJcFq2FjZQks378Vfi3fCZsrS61DrA4E/RAyw7UEgvNja1GmOw3y0rKgbUZzOLJZK/hDXkfomXMEFKbnQprLDegVT5JUyhACnu9xWgkgn5ORA8tPylQreP6UbFe0ZIcvbSCCUFNTs+vZZ58d9PDDD68ilhmSroqQTD4fJwj4/gPPV199df2pp576fDgcRlUFodLaxICmqDKKpRKcWWyWt14vG7ydEhja+Gnr6qjEiPKRLdURWLQvBN/vj8DWmggcCJnWKR52qT2ZlCRZA308xmV5BxOs0m+aCyDP44IjM11wWp4L+jd3Q0uvq+7gdpHe8TI9MuMREWnrOmDnIFSm9jkIIrxowYy3B0HGH6AlnrJgFXxT8hss3L0a1h7YBSX+A+CPhKKl8dp9Iio/tfqGyuvoQzcu6y2NdpnN4aSWXeCcVkfBkdmtrSUJtFRB0xk8iPJ8Jjk/3r9F2Np6T97HwpyGB882VPon58/CgyQQbrc7/M0339xx2mmnvYVtVsRPVUyaZQY1jVLRPvV7bYKAn33g6dixY7Ovv/76mXbt2l2LLy/gJIDGCEVZPYtEkEFZZhq0EpOsEdDu4xmjDHvFgwfLGFDGWhY04Y3fg/DZnjDsCkR0lUBG2PV4j72/ARUQjsxywdWFXjivpcf6almIUuYknafIEfKmcphOW0sMqXtQ0jvoNUdP7VHLoh/WJj4aScfbOszurX0qLvBHwrBw9yp4Y8tSWFNeDJEoTVQlBKJxW/pjpQwGtPRlwbmtj4ZbOp8CBb5cCJvhQ/cGMRpjVa/s22UqATKJnWguPJ9MI2uiYC/qj+aXWYkaqiJs37797QEDBtyzZcuWCuLQJPwz0Krdxv3+ZCMI9tkH9vKCe8KECd3/8pe//CszM/MYtLzAK5HKGCCOoArr5D2HO2abeMjeT6s08MpwMtkG2TdJpirDJiwti8CrOwOwriJibZSzNyzFXcN0g3FBAG0SRXIakOeBwUd4oHumq3aPArF+besHzRZYpVUWmcZ1U7/FEPvXHMmAwVwKigZptOy3vmIXvLn1O/i8+FeoCgfBYyDXmPgftLyANjt2ysqH2zoPgIGtekKON72OQJABH9c7Wd+H+0qSzOLt03wqiYAoIaQtP8v4ap4vpvlZ1pzw36OxVFRUrHjxxRdvfvDBB9dhmxVtcmD/P/GCFvSQLATBHoddPbAJguf777+/9Nhjj33K4/G0EpXuWAJjYUAzUBoTFCmjSDlJRWQFeVr1gjdGXqmY5ozQ736rMmH27iAs3BuGipBpBR390zgQQBUFRBTa+gy4tJUHLsz3Qn7aQQGynBmpVzJLDOQzLiO19yDgFQTVLBlpF8u2abJBZGxfsMoiBYgcbKnaYy0eJKJiINJ8RBLQXgVEEK7rcBIcldMGkC6wCILIf6rqIquiG28Z4DbBIhP23GhJKq8SbN+P++RwOLx7+fLl9/Xr128uZZkhaQ5NSpbwQNt/4B04cGCzl156aUzHjh1HAUDdKSUspcGV04kT5AVykhmKDIumZCLFs/uglaZE/dEMsy5goFeeAODLfWF4pzgIv1ai16D0pkNVTJPlfvSaaTOPAac2d8O1hR7oleWy5MkjwrzsVYaY6j0IB7/FIPITNDmwytqHBTow4beK3TBry/fwn92roCJYA2j/QUP+oGUHNIZeOUfA9e1PgnMKe4PXOLiJUXVJlEUSeO049adkTLDJGkkIeD5XJpGUkQ/RTvWWLVum3HbbbZMWL16MlhmC0Q2L+BJDg7/NkGwE4ZD9B48//nh7BGCLFi3OR6cnstaVaKVTGafHY6cqQZo1LpHDFimViOTQKiokyTBMEwKmCe/uCsObxUHYH0RrjPqnsSOAPAcylk6ZLri7QxqckFPrsG2PwgpIrCxIRLpRgECb4qyPNaXoJkXa555lyIBM4LOCMBjWmwnPr18IP+/fbq37N0TVgGUbaIw53gyLJNzY+RTr1Un0OxH5FCVGIl2l6ayoEuGEtKg8w6uUkMsljOqCuXfv3k9efvnlMQ899NC2ZN2HkAyxwh6D/Woj2oOF/njnzp178plnnvmPjIyMnrhARM6MZPhMhScOomEJliQgTvqnKQktE+EZi4oC1xqlCUET4PWdQXhlZ/DQg4wae4TU47cQQJWDFl4DHumSBv2auy0ZH3a0BGWfAq1MyoNUf82R/zVHkTqyytL279HeghVlO+DRlXNhXcVucCucjSDqO97XkX7d2Kk/jOg6EHwu9CY6fQmFRZ5IX076PFa1gEYK7Lac+GSymsBKNEUVBFm/jLeP/l5VVbVm4cKFd1166aXfRSsI6CwE9Affg9CgVYRkIgiHVA9ycnLSPvnkk6uOP/74J1wuV3OkAKw1VhUFFRkLT1lxZZRRGhXlxVkySVRY5IjldGzigTYjvrcrZL2pUM2rQYtA0deTGgFECtqkGzC6gw9OaY72vR/6I5uh8bIi5ChS/RwElc89q5TRUZVg9YHfYdzKD2C9RQ4adklBRtl9bi/c0PFkGNyxH2S7azcv0hIzUaYv05fdLplk0YgGy1fiY1OpDpNzYsUg2tho/dg+G/0/Eons//HHHx84//zz3ysvLw9QqghWaJPFKBH3NTRBIKsH1umz6ICkm266Keuvf/3rXzt16jTSNM1Dzj/gAYGzOdnSlmx7ZBDHn+P1xVsqEDFfsl3RnOwxIT7wfkkIXt0RhP0hvayQCONJpjYRSUCvQt7ePg1OyEWVhEP9ilOSYM9Rb1Jkv+bIsm9WICJ91MqyHfDYqo9g3YHiRkEOaqNW7XLDzZ1Ohes7nAReV+0LaCJ/Rgu4pB+VbYNVlcX9tP13Rplfarw0O7f9sN2uQ/8f3rx584t///vf//7qq69WMpYZGpQkJBtBsJcX3Pfee2/bsWPHPp+fn3827fTERDhn2VJRIvoWGY5Kn+jNBHS2wXNbA7BH7zlQga5R34sowdHNXPBIFx90SEcbF50lH6Tzs3RTn4MgfQ6CrBIhnLdW7YUn1nwMS0rXNxpyYM8PnZzSwpsFd/U4By45oo/1WmS8fkQV2nj1I2qHZguiZ2Svu1wuKC0t/c/EiRPvePrpp3cQn4BOimWGZCEI5OuN7hdeeOGEG2+88fWMjIw2NksTZUXkGpIsE8VZpuwSA4/1qio3roSi/kXrcGjtEh2TPGadH4r9EX2+gay1NpH7kFc5s4UHHu2SZp3GGD25/7CNZOR0actVh+h4ii8xiF5zpPkDmj+q+x0AVIT88OKGL2H29h+tI5Ib4w/aGFuQng2T+1wHvXPaWCSBV/W00mEBcaVl42TyJvKxvPtV+3cyH1rFjhwz+nd1dfXO1157bcjtt9/+X+I8BPtkxZSvINivONZVD9Ayw6effvrnM8444wX06gIrKKquJTkxQFZp9v/Zuw4wKYrs/7on7S4bySAIgkQBEUXRM6CiZ7wTBLOeiFn/mMHscWeCM2dFxVM8A4J6J6cHZr0TA6ggWRAUkbw5TOr+f69neqitrdQ9s7O7MzN+++HudFd49cKvXr16T9XVL3N3ycbkxHWFhKyMmHDruhB8VRmFeAp/WRe57zOMAmED4LKefpjY3cs8wHTjKcsdMYgzKTrVB+iT+feWpTB91btQE2loVbcVnIpDxDTggPa94b5hE6C9v9BKzaz6ccOLlkcrXn2RBmbkZk9lDDz9LnqXB07ctIV46dNPP71yzJgxL1MehFZRvKk1eBBsgGCVdbZjENavX/9Ir169zolG+cja5YII+cZNm26ZnDUQp/2TzIrpd1/fEoFnNoUh7NK9rCJUuWdaNwXwYAHrNvy5rx/2L9ablNxWHX0jRWjGghSta451uVoMMgMi2qXicc2m+nK4edlcWFr5a6u+saDKK3gLA281nNPrYPDpu0PGZLt11fad6linz8vWs7mAB6Zd3rhx4+w+ffpMJmIQ0OhZ5XCIH1VSpfS5lgQINjDACSWCExEgjBo1qv38+fPfLC0tHS4CCG4oQbrz3byv+o7zHYVqy/znMAHSjJ9CsK5eHcEn32uuhdZKgTHtvTC5l88CCyxF7UQWcjEI6rUYhMAf77BpAA+vXmhlSXQXJdL6OA6DFvu26wy3DD4J9i3p4WiAqTTmKoaeB1qaexwsm4AAobKy8rsTTjhh7KJFi3YRxwz2dUecUosVb2oNAIHMf2CVd37wwQcPvPjii+cGAoFiUYCi09227ZpyigZl3O6UsZw+L2N65J6GqAnP/hqGOVvDwqx6srnkvs8cCpR6Nbi6lx/GtG96CcgpgM0BBHWAIJJvvMK4tHITXLlkNlS18aMFWlJwbqf1HAmX9z0S8r0+69hExYPgRo/LpNSJjm3O/mXjwEDFYDBY9cwzz5x6zTXXfEWUfybzIeQAAl5tjP94Fi5ceO7RRx/9cCQSYQIYcucjWwAZI7n9XqZgZd+77Zd8L8HYALCu3oSbfwzCLw1GLlNiKoibAW2gVjmmgxeu6+WHIg/73FZ1mjmAkFwMgqUPzFgGnFuXzYX5vy0Dr3U1MHM+6EXoWdAe/jZsAvQv7JrIjcDSWc0xa5nOdeIxczM+GdBodGRHBGt6vV7zgw8+uOqYY455ifAg4BFDi6ddbg0eBDJBkg8ACtavX/9o7969x/PKO6suHm9BVN/nPecUlDh9XuYxoD0gXh3g2U1hmPlrOAcOkl3cDHofAQJ6ETAWYVSJ17r26JYXcwDBWR4EFhthuurvKn6BK7+dDbWRYJsOTOSJCfLcxX0Ohyv6HsW9mSEz5G5E0Alfywy52/5pvSxrxx6H1+uFDRs2zInHIdQRWRXtmwxZ60GwyzsnghMPOuigLu++++5bpaWlg2mAICN4Nn6PCK86CnDFqgZYUxsr3Zz75ChgUwALO43t4oUbe/uTOnrKAQT1IwYe9+EVwMd//Aj+vvG/GQkOcN44x/5FXeHZ/f9kJVLaXR0kJ5M8CiBAqKioWHH88cef8uWXX26lghURHLRY+eeWMid2v43SK2P8waxZsw457bTT/hEIBMrSlSCpLbMuAoKFO6Nwx7pgxgQ8teX1aG1jx4yaPfI0eGpQHnTyaZamcfPJAYTkAALuFjEp0q3L5sHyqs1ulqBNvXPXkHFwQvdhEDXaZn6HdBI7HodQ/vrrr581ceLE/zHiEFqs/HNLAgQy/wECBeua41dfffWnESNGTDcMIy+di8TrqzncUU7mJXLHIQFR/G5cG4JPyyO5vAdOCJtFz6IX4fa+fjixIx4zuJt4Lg9CcgABqb5w6wora2JluN7dIrSRtyJGFA7vPAAe3PcM8GK+gmYYt5MjhWbovkkyqGT70HW9YcmSJVMPPPDAv1MJk1o0H0JLA4RGHoTOnTsX/Pe//72tb9++l0QikViZsNyHSwH0HmBQ4qQVQagMY832HLFyFGhKgYgJMLq9B6bvHXCtrLEU8fYszoNAZlJ0w2MhIwLPrP8UXtr4RUpTErsZS3O/g9kVS3wFMPugSbBnQYeMn28q6On1eiNr1659+rDDDvvrtm3bMA4BgxTtmwxksGIqulNuo6VMiu09sPMfWAWaTj311C6PPvroY507dz7GMPC2cOOPqJqj8oxT8GBLjoO8NoTo/OOKKFy7OgiBzAqITsEq5ZqwKYA5s8p8Grw4JA86+PHqmXPa5I4Y+B4EFX2wK1QLd62cDx9vX5Wx8QckVwWNCDy631lwdOdBaQEIKmvgnOvV3xBVmlRpRdd1c+vWrQsnT5585dy5c+k4hKwECKT3wAII06dPH3DJJZc8065du31V7s+qED7Tn3nilzD8fXMYfDmAkOlLnfT8pvcLwOFlHlfHDDmAkNwRA5ZxvvmHebCuZltWAISwEYUL+hwKV+09Jmm+zYYG8Miktrb2+6effvriqVOnrqYCFcnbDGklR0t4EHgBir5333139BFHHPGg1+vtJaMCWYeBvs4oezcV3yeLGFMxhrAJcMuPQfi8PJo7XkgFQTO4jQYDrHwI53RzF4eQAwhigCDTB9+Ub4Abl82F8lBtVgAErMdwRKcBMGPYhEapl5tTxGRr0Jx9Y9vJ2qRIJLLxk08+ueb444//OH7VkT5msLpp7nmQ7bcUQKALNGG8ge/rr78+a9iwYdM0TWvPIoLIjcRaHFHlw2SIzBqHiDlT6f5K1B/H6nphgJt/DMEPtVErV3Xuk6MAjwJBA+Dsbl6Y3NPvCkxmPUAYdSkU+dhx0zx9YAfSYYDn/C0/wN0r3oF6I5QlAMGEoaV7wH3DToPOgeJG1x2bw5A70cnJGnKebbL/zkvkJ9vImqa5a+nSpXeMHDnyHxRAaLFAxXQDBLs/Or2yZ9CgQe3mzJlz1YABAyabpplPLkLCKMYreLEI3RyLbo+BrhrJ659mENYc8G8yRuEpeVIIMCBxZa0Bt/8YhE1BLOqb++QowKcABioeWeaxbjPkW/DcGcdkPUA4eLcHQWXj0Vgf6fDChs/hiXUfAQbwZcPHzqp4z9DxsE9xN+68k9k8yYCG7PtU7PrJNuh1dWo3dF2vX7169SMTJkx4eOXKlbWMugw286SNiZxpieQ5mwQIGHeQuN54zTXXdL7qqqv+sscee5xmmmbT5PGMvlMNCtwyq9v3eAylQmYECEuqDPjz+iBsD+UAggrNsvkZvN54QIkH7tkb0y47v3qWAwjqMQi0PkDpfPzHD2DWhs+zwntgGU0A6BwogjuHjoORZb0dlYDmbQ6dyG+qdLKTPulxk1fkVdrRNC3666+/vv7www/f/uCDD27jXHe0yavSZNLPtBRAoBMkeR955JFeZ5555v2lpaVH0wmSktlxi3b1sp066blIhtJumVW0U0ECflEZhb+sD0Elbg9znxwFBBTAXAj7FOpwX/+AlX7ZKcegooiVe34xK8s9vzbqUij0BiwKO9VHhqbBg6v/A7M3LsqI0s6qglbqy4e/DBkLh3bs1wggqOzsWX2oeG5UxpbsxtLt+GVjQ76qqKj44JVXXrlu8uTJG+OBii0ah9DSAMEu0OR99tlnR4wfP/6Bdu3aDaMZQUZYHjM5FWQLmhH56t28b48lWSaSgQr0IHxSHoU714eg1m32GzeEzb3TZinQJ1+HhwcEoL1PDSCQPIx1BBAgXLr4RfipbkebpYHTgeORQNf8EnjtoEu4MQiyNvEA+d6V82HOpq/Bqyk5R2VNtonvEVD9ecgpcFSngQmAINNrok2bm80e2Z7KUXW6gAkLaMZvMix94403rr3wwguXEADBLtyU9oyKLQEQyABFK3siAPhff/31MSeeeOKDfr+/mxuA4Maws/phFXiiXUUsJncKCHhzZPVFCob9HgKEzyoMCyDU5ABCm1CYLTlI9BjsXaDDQwgQGB4E2e4MjxjwLv8V386G1dVbssZVjgBhz3bt4eUDL4J2cQ8CvY48fWDLsqFrcNfyf8HcTYvTFtHfkrxm913oC8C0fcbCkZ0GKB8xiPQibezpLLOi4nyqmz1Vm0COhc7q6DZIEd8LhUK/zZ8//5rTTjvtfQAIUXEIdtEmpw5A1+zQUgDBPmKwPAiFhYWBN998c/xhhx12v67rTQIUeYtLgwKnRlqFairAo8mZY9wLodK+7BnenBAgLMIjhnUhqMgdMcjImPXfo0YZUqjD3/oFoMTVEYMGFeE6uPq7V2FpxS+O3extdQEQIAwo6grPjTwfCjx+pWnQOgM9CHetyD6AUOorgL8OGQuHdOwL9rGxqqGWEVrmiUiXTmZ5AvBvPLshG7dhGPWfffbZdWPHjn2jpqYmSHgRWqSyYzoBAu8Gg3fkyJH5zzzzzLWDBw++TtM0XdXQqxhvFtoXuapkOymeC8oJehUxCTknHvPh3xEgfFttwJ/XBWFbLkhRpk+y/nt0Mh1Y4oG74kGKdDS9iH9tPqyJNMCUpW/AFzvXgUfLjou1SKfhpT3h8f3OhjwPVqOXxyDQ8h0DCP+EuZuWZI0HAQFpl7wiwKJN+xNBijJvi2gzSO/aRUIt8vKqeIlpb4WTvkUAwf5OACyMFStW3H/xxRc/8PXXX2PRDjxeIOMQ0nqTId0Awe4vUd4ZPQjjxo0rvO+++x7s2bPneNtAk+dFPCNPu5hEhl/VsKtYEhaAUQU1dvui+amMAdXz2noTbvuxATY25G4xqNAsm5/BpFrHtvfArX38kKerxSDQ9MJ6AtNW/BPe2bw0awxd1DTh6C4D4e4h48CneZieE5k+yMYjBrzm2LtdR7h36KkwoLArGJKwWNFmj940iXbtpA1I1WZPVW/wvBZOdD3atF9++eWN66+//pp58+bVUADBLo1pHzWoDs31cy0BEOgcCN5JkyaV3HPPPS+1b9/+MHRF0QInOpdy68qhDTWL6URHGDSiFI2Zd0ZFoklR/8yxAkB5BODGH4OwrNpwlfzGNdfkXmxzFAgaJvypux+u6Olj5sxQAbjIxw+vfR+eWfdJYjfd5gjhcMBR04Bzeh0M1/Q7xqIbLcus5uhn8BZDtnkQ0POyb2lPuH/f06CDv10CHqi4/nkeVlW7YOtSN3ZDppN5G03aHtjtsHQ/CRjoOWHp5127dn02bdq0cx9//PFKjgch4wEC6UHwXHTRRb2nT5/+SnFx8cBoNCotpckKAiGD+3iIjccwNOpktUUzhihARoZcnTCuaMyoeG79MQQf74oAVnbMfXIU4FEgaAJM6e2HM7rEUi2rygIpG6i8Xv35K/jrin9BQM+eYqsIDs7uNSpBWhbtWPrANnTWEcPyf8LcX7PniAGB1VGdB8GMYeMBK4GyDChr48PTsyxg4VYn84LOeesqkxWZ/SDtlYwOHo8HqqqqVk2dOvXMmTNnbqCCFNOeUTGdZsW+vYD/2gABD/U8M2bMGHnZZZe9lJ+f3xkBgoiIPAXI8iSoGGqVs1cVsyPagbEQsQjEkKhTFNSDhJz5a9j68aVzJVUIknum1VAAtxsocPf3z4ODSnSw70qJBshSil7dA1+X/wRXLHkZ8LgBbzZk8gfd5CW+fLht0Mmxq3rxfbBKoB2pj2IehOwKUsRiTZf2HQ2X9R3dhEVYupLnCeaBCNU1II032RYNEujvyEHL7IiKTcJneLEP5PsIwuvr67c9+eST506ZMuXrOEAIx//NeICAR+c0QNBfeuml48aPHz/L6/UGcDF4xpblYkp2oVmLr8KsIg8CLrjMHSZClaL+yXbRa7CoyoTJqxrAm9m6OpPtULPPDZMkdc/T4PnB+VDiBaV0vyxlhjUFaiJBOPurmfBz7S7A3zP5g27yvQs7w91Dx1n/ykA9z8hkowchYhrw5P7nwqEd9m5U7pnnCZB5bUXHtLa+VdXJor5YR0iq7Yo8CeQYST6i7Q8ChEgkEnzjjTcmnnvuue8BWHieBgh2+edmF790Srgde2ADBDtJkv7uu++ee8wxxzwUjUY1GcqiicvbbfN27fRii9xU9KKK+qK9HjKAwFtZlvuLZjz7dwQIW8MAF61ogG1BMxeH0Ozi0jY7wADFkzt54ba9/NYemDZ0PBcqSxbx9sJfV6IxpaIAACAASURBVL0Dr//8dcYHKiKtjuo8EG4aeCK09xcwF58FGui/ZRtAwEqOnfOK4e8HToJueSWNACkLIMjAgcrumwc8WLqT1x8LHPD6FmkCHsggN352u6zNsMfjMRcsWHD18ccf/1IcIJA3GZAtMxIg2N4D/JeMQfAvWbLk1n333XdyJIJ0YLtiWAtCL7TM+KuqdydnVLyFFrmlSGbmKWcVOljoTtfgz+tC8N6OSM6LoLrA2fQcqhNNg7v7+eHIUh0wZQZPEcqUHn7v1XT4ZMcauOa716ydYTp3GOletoDugYv6HGEFKeK8SQ+BjFZNjhiyKAYBvQfHdxsC9ww5tQmZVDy2TgCrbKPF21zRf1cBKSydjH9jjVcVhLC8ExiH8P333z8yYsSIO+PJkuxrjog1bXCgclKYtMikU75pgGCVeAaAwPr165/u3bv3H2yAoHrmI3PFs3ZAJMV4bise0iOPBZy4nUReEd5xCovxmih2TbNAwVdVJly1Cq/M5j45CjSmAAYk7lWgw3OD86BA311MXgRMReAUUy43GBE476tnYU31lozNh4C4Cne/dw0dC8NL90wk+uHRRqQPss2DgKjx8f3OgUM69G10vGDrNJ4+pPUuTWvVTZeoH3JDR+tzWf88gMiyIyzbxLIrpLTa33u9Xti4ceM/99prr0sAAJMl4REDnQshIwGCDRISNRgAoGDLli3zOnXqdKANEGgjTit9FYQpU4AkghTtDGhm5iFGEfBQZXQeEuUZPYuhLIipwZWr8LpjNHebIYcQGlEADd2ZXX1w9Z4+CGMwAueqngxMJ3jYBMBgxYd/XAizfvpvxlIbZWt054Fwx+CTrUBFMrGUCq1IOltBilniQUCv0tDSHvDM/n+CPN2byCioalxJXenEuyrTy6LjA5HhdqqTnY6D5fVGgLB9+/avunbtOg4A6qiaDPYRQ8YCBPuIwfIglJSUlG7YsGFhcXFxH9YRg+xsiTT0qghNBAhohEkjQTfgxI1Ll6XIee14NQ1e2RqBx38JxVzIGau2cxNzQgHTBOga0OGOvn4YXqgDJv2hj89kssCSL7y9sKxqE9yybB5sqivPyLTLGGtx66CT4A97DBdeCRXpA1t3ZIsHwboto+lwVf8xcN6eh0AEb7poWhP6sbwtrN07zesiL43MkNOeWpZed6uneTLJOqoWbSTt5xEgVFVVre/du/cxlZWVFQwPgp122Yk6cPVsumyJfcWxUQ0GPNI8++yz+z711FPz8/PzO9lXHFViCVjxBypMJmM6FkBgUTaVzOoEXTPHAgA/B8FKu7yqNpc0yZUkZOBLKHQnd/LB5T290I7IjKyitFlyQirZOiMMj639AN7YtBjwOmAmffAMfWhJD3hkvzOhva+gyexUjBGpn7IFIKCXZWBxN+tYZq/8jhZfyIwujxdVaCzT5U7sCG24VYEzy+CzbBPPs8AaI8Yg1NfXb7/00ktPfPnll9dxqjqmJVlSSwAEDFC0qzh6HnnkkUMmTZr0ut/vL7CZQnbWJPMaODleoJGlvZAiJcoan+qYybHTTCNzXYrGhJHq/9gSgRd+DQH+f+6T3RRAFujs12Bq7wAcVKJZwQcyZc1TkiSfJpQfACwq/8lKmrSloTJjciLYm4w7h4yFE7oNg6jROC8LLb8sxU/TOVvyIODR0wV7HQrn9/4d+ONlrVV0pWxXTX7P0tcqa2Bv/HiGmrYprHV2AhpokKDCN/YY8d1QKFT33HPPnTZ58uT/ETkQ6DiEZtf06QYICA5wL5O44jhnzpyT//CHP8yyizTRwsVzR/F2OOT7bg0u7X6i+3KKbt2ADaeuYLySvqEBrPLPq2rZSi27TWb2zf6kTl64ak8/5GsWOmhUYU5GDZbskH9DxVFvhOHBNQth3q+LAY8zMuETMQwY03UQ3L/v6Ra9ZLIu2hkmjhjMeLGmDM6kiMs/qKgrTBtyCvRt16nRVVqVzRPPoKoabtk6iY4YRACFBBYi/ub1Tx6Rq4AlpAP+GIZhvPnmmxPPOOOMf1FXHfF4gUyY1Kxi1+IAYeHChWcfffTRj2L8gerOn2YaljF12lYyVGaBGln/trKVPScbVyMABQDv7IjCIxtDUGfkCjjJaJep36Ox7pGnw7S9AzC4QLNiD5rjgzcaVtVsgZuXvgE/1e5s84mT0EW+R34p3DtsPAwr6QERjvdARkva2GV6kCJyV77HD1f3HwOn7rF/oxgo0kDKdu+2MU5WJ7LaUfWeqT7nlAd4QIe10cW/YRzCggUL/u+44457OVsAgh1/YB8xWMcMn3/++SWHHHLIXeEw3uTg50BQMais8xyV92gESf7OQp6qzKHKFCwE63Tc2AYSuNrQ4MGfQ/Dv7bn6DLJ1ysTvUVn7NYCregVgbKdYFDl5FuxEAco8cDF51eGtzUtgxqr3IGiE2+xRA9Kt0Buw3OOY9wBLWtmwSuRNERkzm9aZDhAQgGLeg6kDj4dSb+MbH7ROdwoYSB1K62WWvufJNM+LqwJGVORAVZeoyp/f74dFixbdcvDBBz9N1GMgjxjSkiwpnR4EFkDIW7JkyU3Dhw+fbAMEFkM5MbS8IwqRC4iF4shjBpXFFzGrkyMGFljgARjWnDy6Br8GTbj1xyAsrzFyyZNUFi9DnrEN2hndfHBJDz8EwExcz5O5cGUkEPFwGNPqrvsI/r4Bj0vb5i0anN9xXYfAVf2OgY5YfZDwurgxECS9MzlIEQM6BxV3gxnDJsCe+e0Bsyi60WEq/OlWx+J4VPW/qgHn7fxZfTnZ7NnP+nw++PbbbzFZ0j0A0MCo6piRAIHMoOgtKysrWrRo0fR+/fqdQQIEEfF5iy0CFjLlp/q9KmIVKVPR+GXjUFVUXl2HZXUm3LqmHn4LmrncCDLCZsj3mBTpkDIvTOvrhyI9VnMhmZ0TiyykIrd5GWsyVEeDcMuyN+HTHavBY/my2s4H7+73L+oKfxlyCgwo6gqmIb9iriKLme5BQLphSuXpw8bD/qW9rWuNPJ6x/65yDq/KOSprYLfFM/wqwEQ2HhIAyAAGbwNL2wUECGvXrn111KhRU8vLy6spgEBmVJQNL6nv0+1BaAQQ9tlnnw7//ve/n+zZs+eYVAAEGSWcMBQLBTtBgqKxyJiI966T9zy6Dh/uisIDG4OwM5yLR5DxRlv/Hr0Hwwo9MHUvP+yVp0kLMqmCXRZYZ3nX8P77+rod1q2G7yt+aTPkRBBVFmhnGbmD2u8FEaqarMzgqQB+TEh914rMKveMx1ZlvnZw/cDfwwnd9oVolA0OVBjBrZF2y8OqPK0ydnzGiV5WtQsIEH755Zf3TzjhhMuWL1++M9MBAquKo3fMmDFdZs+e/WLHjh0PoMs80waah0BVF1FkdFXbThVA4Ckd2XmYE0bEZ/FEeP72MLywOQzbQzmQkCyvtOb3B7XzwBV7+mC/Ql0KDmSyoHKuzuJFDFpcXLERHlq7EFZUbm7N5LLGhqcIexSUwk0DT4BDO/W3rjTac5fJmhPjlGkAAcFBh0AhXND7UBjXY3/rSqNMdzlhBhnt7bacrIHT/lVtgpN2nTyLuRB27NjxzTnnnHPe+++/vzUOEFhVHZ006/jZdHkQSICQSLN84okndn/xxRfnFBcXD7QZLJWM5pgaKXyhuZhXdYh2/w2mBv/ZEYFZm0OwNXfcoEq+NvGclXPVBNivyAOX9PDBsGIdNOtqXssM31LsAPBdxc9WEqUlFT8DgoZ0KRlnszatY4VL+o62KjZGDYOZ8S8V+iiWB+GfMHfTkjZfAROPFToGiqx8B3/oPhzaefwpBQfO1rDtPa26ycSyz1VVVavOO++8CfPnz0e0bVd0tAMV7ZTLzUqEdMgumUWRPGLwTZgwoeezzz77Vn5+fq9UCGKzUqqNNo4MiRz1RUUUHvslDD/XxzItpmPh2yjJ2sSwbQxwSKkXrtzTB3vlxTwHLS1HyG+Yk2N97Q54YPUC+N/OHy16Ynrm1vJBOu1b2gMu2/soOKCsFyCEaU66ZQpAwIBEvAaKqZRHdxqYcs9Ba+GP1jAOlKP6+vqNF1544Slz5szBMzuyYBMZg9Cs24F0SC0LIGAVR+/VV1/d/84775zr9/u7NaeAtoYFb8kxILN5NA3WN5jw0MYgfFkZtdR1Oha/JeedqX1jCF2ersH4Lj44r7sXir0aRKPywLp00sOje6AyUg/Prv8U5vz8NQTjefnTOQa6L9QxETMKx3UbCv+399HQs6ADmGZTz0Gqx9jWjxisnL6mCSPa94KpA46HAcVdreqWOZ2dak7Z3R7q7FAo9Nutt9566kMPPbSGccRg32LIOICQOGJ49NFHD5g4ceJsn8/XsflInWvZ2sEhSNA12BEy4eUtEXh3exgqMCdzzpvQZhgENQGe1WESpLO7+eD3Hb3g10ww4lUaW9tEMFAWS0P/a/N38NLGRVZhJxPQXKYXmiLdsMcOgXZwWo8D4U+9D4GAx6sUkJgKmrZVgBCjmwnFvnw4tssQ61ihW34J8zgmFXTKtdGYAuFweMezzz57ztVXX/0N44gh4wGCb/bs2aPHjRv3tMfjaZ9jjuanQMz9q0HIBPiyIgr/3BaGpTUGVOP9uJxHofkXwGUPGFOAx0JYW+HgUi/8sbMX+hfoVpQdWYbYZfPN+hrGICB3rajeDHM3LYb/7VwHOxqqrfvy9K2iVA8kVkRKg/b+AhjZvg+M6zECRpb1tupS0Pf1U9032V5bAwh28a123gAMLdkDTuk+Ag7r1B8KPL5WcYzVnGvVmtqORqO75s2bd8k555zzMXHEkNZ6DOmA8vQRg1XmGY8Y3nrrrROOO+64hzVNK22phRElREnnmOgMY83ZN95bx58dYRMWVUbh8/IIfFttQHnEBEzbj8Yo92lZCtgBiB4NoHtAh4NKPHB4e491lTFfR2DATv6SzKjJCP5k2qHfRSCAQKEuGoTF5T/Dx9tWwRc718Fv9RVgAObpSG3eBAykQy9Fmb8ARnXoA0d0GggHtO8NHfyFykcKqZTHtgIQrBgWMKHElw/7lvaE0Z0HwO869oOugRLrOCFdoCqVtHfDx63IJlS89957V51yyin/Jo4YMhYgNMqBgABh4cKFYw877LD7NE0rFi1kcykup8zT0uNIpeBYqA2jzjXNAgbLqw34CIFCVdRKrmS5s+PHDzm84JRT3D0fO+uNVWIJ6AC98nT4XZkHDi/zwl75GhToGExnJI4UmnsHzpoFmQPBaf8IEtDXXxMJwo81W+HDbavg8+1rYWPdTggbUQsoYICjmyMIHBem/MUx9Swog4M79LVuJwwq2QOKvXkWYVN5Zu7EiLRWgBDzG8bohvPpmlcC+5X1hDFd9oF9S/e0MkriRsI0YsCB90mlXnIiOU7WwEm7reVZ0zSrPvvss+uPOeaYNxlHDGkp2JQO3W97EBrdYECA8MEHH5x+6KGH3g0ARaoAIdXMqMJkpFLEcTpVjCpzU2k31XMn+8QgRtTf2xpM+F9lBD4tN2BlTRR2RUxoMGJn37ibte6rxrkmHczTWoQ1leOwC7kjGEBPQBQwR4UG7Tx4jKDD/sUICjxwQLEH8r1x0IBKmjJyzcWHIl5MBiDYNIzFwyAY0KEmVA9f7FoPH21bBd9WbIRtDdVQGwlajyJgQANl/Wf9G8sOaf9nG7Y8jw9K/QXWrveozoPg4PZ9oHMe7noNy0OBAXWqH5X50UBDtg6tASBYNLP4DQEB0sWAgO6zvCwDi7vBEZ36W8cIGLiJD1o5ITgpim1aqtBKle7kcyo62YI2gnTYbvol50Xyqqyt5tDL8T6rP//885uPPvro1xgehIwCCHQdBuuI4bPPPjt31KhR0wzDKHTDILKFc/t9czG+0/E0I+Mxh2LfdkAAEDHBCmjE0tEbG0wr0dK2sAHVYYCgCRA0TIio612nU8/c5zUAn6ZBno43EQDKfJoVW4DAYO8CHfoVaFDkiV0VRPBgX11MNy/QC9Ac/ceOHvAHE+0YUBGugxVVv8H6uu2wtb4StjRUQVW4HuoiIesWBBo5NGp5Hi8UefOsHW/X/FLo3a4j7FPcDTpYO97YdU90h6fKY+AUENC0Q4Dw1LoPYeHWFeDVcZ/E+7gNSKeheuN2kCZ5Ft18VkGqTnlF0DWvFHrml8Hg4u7QLa8EfDoiUQPwKiNtfJsbEKgKe3MBAtX+0/2crus1ixYtuuOwww57iXPE0Oz1GJp7E2i3TwIECxxgHMKiRYsuOOCAA26NRqPtZO775lBQTpWgkzG4YeZUAhOnbdH0jynvuLdE0yBqmBYoCBsAyJUWZ7rVZ+mWtFbWH9LVEggtVnkxoMcAAX7wRoLlKeCM2Q1f0Qo+3eSQjdnegVvegng8Au76G4ywdS0RjRbyGlIFPV1o8LyaboEF2+Ba3oI4QyYLDFQ8hjJ9RdO4NhoDOdY6J8pEEv+f2LISb9JMoKKtybbjTaHvBWmLNTLQcxPQveDzICCI7cKtq57UjtwJKHKqF2UeF9ZmkfWOjK9YfO5GLzoZr4psqfKOx+Op/eabb+4cNWrU80SQop1N0VbDFp5T6dfNMyos56Zdmt2ZAOGbb765ZPjw4TdGo9ECN504XWw3fbT2d9wIidM52QJiM4ttzJy2k3t+NwVIcGVLdzKGTVXptJU1iB0p7L6DSyoqi15xwGD9LwMYpFqpJ0s3zIzX3MpWNkaaz5LhN15fToCFbLzJfO8EtCTTj4gOVoxXPC7GTR8ej6fuu+++u/eAAw7Aks92oqSsAAjoRfAtWbLk8mHDht0QjUbzU6HgaMDAYlaRQU1mMWnUSyooul1eP6non6Qjix68cfEE2+260ONIIMa40JC/i2jnRrCSeSdVoJPmMyc8wKONk3nx1p78eyr6kY1JNm8Wz7N4zo1ssNaAHC+pwMn2U8kDLCMhkg0nekRGe/t72Rqw2kmloRetA28NyLHj/ycL+ETrm6r1Vl0PGaiwv/d4PPVLly7924gRI56IAwQEB1kFEK4cNmzYdQgQkiVua39fBEzSMXaWELhRusmOtSX6pJVNOgyjiE4tSQMcV2vovyXXoKXnn2rj50YmW1of8cCLm7kk805LgwPROiBA+OGHH+4fPnz4Y1kJEJYtW/Z/gwcPvjYcDicAgo0oaaTPQ7nk805dOjxkTe+yZO26QduiXRJrl2ejaJVdkYrA0GOm35GtA4t2bpC+bHfDEyBe/04ND60geECKtfMk+3LDAyxDkez6svhKhR9kz9C7XtHuW0V2yWdkO0wb1DTXGoh4gEUX2W6WRSsZfVnATYXHeXokmTXgzZnF4zJ5kdGK7kukV0QypkKrVKxBOnjRHqfP56tfsWLFA0OHDn00GwACfc3Rt2zZsqsGDRp0TTQazWspRMlSTk6ZmgdenBgrFihIxThUhKKln1ExEG7H6MRg8gyF276d8rQMLCU7Dtn7PNCYLB/yQJ6T8SQ7BllfPENFr4nTdtzwAA94JkMDt2vgdr7JvNecY1Vdz+aSBRYQ5NHK4/E0rFy58sGhQ4c+TAAEO1GSXbDJajIZeovebe64GTsHAv5LAgQ/xiAsXbr06sGDB19FAgSRsXWyk1cRJtVdH228ZW2zmFC2M8R5u2mXpdhYbcl2SbK+aeQse55nmJNB+qzdCo+5eYqAJ/huwJxIsERKjhybKg+ShkZlrE5oRa+tiBedtiuSZ7sfpzRQVbK8NeABMZJnRYZEdbwyWiUjC6o04D0n00cy+SbblRldFVmgdawqj6s8J6IVSy+SPOuEDipGWrTmtNfW6/U2rFq16uEhQ4Y8FAcIofh1RwQHZB6EzAQIK1asuGbAgAGTw+FwwoNAL4hMUGlXp4hhZILNM+w0MOEpGFKJs+YhYzynwIJ1DEDOnzZEouMYp7ThAQ7akDmlg4gGLLc2TwnLaMkzgqz2WLQRKVh6XUQ0cPod+bwT2SB5j56PCjhlGQSZAVQxTjwwK/o7C1iwaC4DCDxAoDIvmp6sdZG141TmaCBHyzOtf0T9q/TN0lc8uWfxFG+dWLzI2/yRa6RCc54O5smKCh1UdBhLH7DmJAIINM8jQFi9evUjgwcPfjCbAIJ1gwF/fvjhh2sGDRokBAikUIg8CDKj7QbdsQROZFho46yKbnmCTY9ZZBB4z6q+IxMUlnJi9UnPWbV/nmCzlIKKsLPAk5PdgIrx5fFUMrzIM2okfUR8xTJ6MkPFmoeIxk49ebI5qfCRU1lIdg14xpeWA5E+EAHaZPSRG1lJZg1U56jCR270garOlfERDxCK1kJlvCqywrINMn3EAAjkLYaM9SCQAOGqgQMHXh2JRBIeBJoZWMRnoVXZDsJuV2QIVZUrr3+e4IpQI73zIJlVZU485pYpJx7ip/sXzYnumzUXlTnwaGD/nbcusv5lAqjaLqsfEf1kc+Z5fmSgRrb7IGWHBgWs33lrzTOCsjZYwEVmqFny6Fa+ncoOj97kPHnGiexLNF6eHNJrxaOd0znRhkhlF8tab5ZeoefCMnoyWZHJBkv/q/KVqj4QyYaof5mu5c2dp4dk8hw/YnhoyJAhZAyCfc0x8wHC8uXL/2/AgAHXkgBBhYFYQkAzuUj4ZcIpYyARI9rjYLkcWQwmAywiAMFSXqoghx4La4dB/01mFFlKU7aeTowirbhlBk4GEOz3WQZBtHOQAUQZL/J24DJjyQMWNh+QY5YBBHKMsjUgeVq0Bjx+FMkCT0nSaydTpiJZIOnDMrhOQDrPSLB4UaZHZLLBMlYyfeBmDUR6ibV2bniAByZ4AMYp0HCik+l14ekBcsyidVfRBzwai3QUBimuXr36gX322Yd1iyHzAcKyZcuuZF1z5C0Gy4ixFlfVMNCKnCVcqgsrGhvLYJDjliktluFVZV5V+oiASqpoQBqaZOfEEnIna0CudbIAQWbMaPrxwEcq14AHQlK9Biw+dLIOLNqxjK3IiKkYRZrfRLs6mbFRWU+eEWLxvQygODFOdluy/lXXSMRHJC+RGxNVWqvyoopeZsmUbI70+EnaqfKgyIaw9AqLd3i6HPMgLF++/IF9992XlQchowACnWrZOmb49ttvrxw6dCh6EISJkmQuGhZzqqA6lV2JzZys3ZnMyIuYTHXMLPBAMhTPqMiMHos+IkVECylrd8Sar8zoqa6Bm/5lfbMUhApd3Oz8VHlB1r/MM0XyFc0DPEUkM74sHiQNBy0bIp7lGXMRT7PGl8wa0EaPxcsyb43ICKqsAY8OKh4CFq1kIEMmCzK+E62BiFYsueXpCVVvAouPZXqEN0YZuFehiwov8vhbBJC9Xm/9smXLHthvv/1EiZLs4rAy9e3q+3Rdc2QChCVLllyGqZZpgCBTgqRh5iFcHqJUEUCW8pMBBNFCO2EgJ4CAxfS8HQTLWDgVbNa6qOxUROspE0ByjKJ1ke0gXEkH5yXZevKUDotWKvOn+V31d56cyJSpijGQAQSenMlox1sn2Xus70VG3Ak4pNeTHiOLnjIeIPsn10nEpyIaiGTT7sspCKPHIpM/Ht/IwBTdrogHVHlfpA/czMPNutC2iQfYeeuCACGeavlJQaKkjAAIZB6ERJDiV199dfGIESOmksWaeApTxbC7MQIiw84SECfCrPosPscy7DKBExkXmfEXzY1WKNazVqU9638Sr1r9SyAmFtzh1yaMNWUV5SE+7OfJp6xKPYmUwSo8w5xTvE83gkwrPS7vxStiMi8qJ/4Ym48KL6o8I1KwMp5R5VlVfiV5W7QGpJJsPH6Sf3bzibjAcbwFu6oTKV8SJcFiZ5WiirvpurvAlJW+Jl69kSxwJrq0rjQvm28byYw9Z4uRGs+yyZ9iFUNFH9X1dcqPKnqJBchY43XTt82DonE0V7tOZAHHgMWalixZMv3AAw98hgEQMuqIgQkQFi1adP7+++9vlXvmKQjSXUczNMs1KJF/6dci5qCFhteYyg6Nx6AsY6Wq8Mk2ZYIoQ+3WXK0yxHqsFGwoBGYwDBCOYk1igKhcycStHpXny9aajSHB7t9kTi0TtDw/6IX5liLkeTBYfMNTMiz3K+0xIkcr2slZSkDXY7WckW7hCEBDGMxIBMyoCRA1LKOhefAZHTS/FyDPD5oH84iZYOL3ceXN24WSRpy1c+QpQRlP0HNkyRsppzLvETkOcsx0u43n6YkbVQPMaAOAEQ/atko+Y4Vb0We30bOAKWkEVUuQWqBXi62BVVGy6UclK00MF5gW+G2iD3YTg2HMidYZ/av0jT3HgLmNTzTQdKSrDqB5QdMDALovln4PZRmftyYae4Okmwp4FukymwdovmHxgGiHnYwskGNQ0XssfdBIW1HgiqcPeLRTkQUcA5Z7Xrx4MZZ7fiEbAYL3k08+Oefggw/+s2mahSKi8RQKzVC0smSpEtEzbhUoz8DwVJkKOJAhfMsQUZUR7b/xDARPKEnhtQybroEZioCxeSeEl22AyMatEN28C4yt5WDU1INZHwKzIRQzdun+hCOQd9JBUHjVONA8jQECORQna8l6z8n71rOozHE8EQOMHZUQQbqt/w2im3daP2Z1HRj1YYtuljLOC4Be4AettBA83dqDt3sH8OzdHXz79AKtrNACDGYUwZjaTo+niGXK24nc8eTJCZhqyoNotDwACAAi1RCtXg1mzY9g1G8Bo34rmKEKAKMBzGh9HCykm+EyoD/dA5qeB+DJA81bBHp+Z9ACXUBr1ws8xYNAy+sEmuYDMKONQJiKPlWhjqwdkdEmN2WyvtzqdhlokPVLgx+R7nDyna7rNV988cWfjzjiiNnxDIpZlQfBu3DhwtMOP/zwuwCgiEatpOJioUcVY6dqZGklSTMMCwnyQAtpnHlzEM1VZOQcG614LXKpp8UybrFdb2T9Fgh+9D0EP/gWwss3glFeDWZDGAC/9+igIYBAC6e6I1OVLsXnELgUnHUklNx5AYDe2HjydtO8pkkvg2j3wuU1iwxIF80CUMHPl0NwwWIIf/sjrXyGNAAAIABJREFURJFu9ZgZVQPw6rHjg7hXxtqdWm4ZE0zLG4NeAwCtMA88XcrAP7I/5B27P/gPGQyesmIwoxELKKh6pmiAyONnmtfI30VeFRmtROuQmIO1m/WAGa6B6M6vIbL9Y4juXAxGw1aAaE18rvFdr+VysbO2KzJK7jGCAnF+s87l0BMTBQ0MAD0PtEAH8JTsA57OR4C348GgFexhAQXbs6ACnp0YPd5um8eLqnZBdgRBg1iRTMgAjcz2sAADix1F8hwfQ/Wnn356yzHHHPN6NgEELwBgLQbv/PnzTzn66KNnaJpWnOxORnXRRHrDiQGW6R+nTIbtpQrJKreFxh53vDurIPzNGmh492sIfr0GjC3lYKJORle5Zdhks03f9yKAIAJtttGUjVRpDZAmaLBr6iG89Cdo+M83FjiI/rzNMvgW2HIDoOLAAT0Hms8Lnj5dIe+IYRZY8A7saQEIazEk58c8WUglf8voyFb46PFBQFQPRs06iGz7BCLbPwez9icwo8GYJyEHBJyQNslnrUAeCzRYxyl53cDTYX/wdhkDntKhoPtKYmuChyUOeY43MKc86MSDICMG2ZbTccjaVvleZaNLtVP1wQcfTDnxxBPfigOErKrF4J07d+7xxx133EMej6ckVQylslA0whOhZCWDwehUBhBkjE97LVQNnGhuiWFaAYcaGL/thIaPl0LDB99CaPFaMCpqY/oZgUEr/bgFCKIdBm9HzFoDJFB0ewWEFq2Ehg++g9Dnyy2AZX0QGKTwg/EI6LHxdO8AgcOHQt4xI8B3QH/QMP7COjtW+7hVhjSPJicLOpjROoiWf2cBg+iOL8Co/zW2W0VvQmtCoWpkzbynrBgPEzR/GXjKRoA37lWAQMdYfALDI5kqIjjlLTc8LdO5OBdeuzS4IOetCp5kNsHu3247EolUvvfee1efeuqp72YyQMD5ogZoUu75hRdeOGL8+PFPeb3eMicAgUZiLOPphoFIBhG5oOiFVHFvORUkFYAgQqRcRtd1MOoaIPTh91D3+icQ/n69FVdgfdzsep1OLMnnSYBgHV3HlRaPB+zuVIWYHF5iDSwOxp07QHDRSqh/9WMIfrFyNzBobrphHIJHB0/nUggcNgTyzzoSfEN6M4PoeLwoOxZgLQut0FhKnObTJv3HaWNUrYbwL/MgsuO/YDZsS+xak2SH3OvNQoHY0R3GK3jKhoOvxyng6TgqdiQBeEQhN6TJyJ3KlFj6TbZDVwEIIjtk6xhePyxZIMepAhDI/iORSPkbb7xx6fnnn/9JJpd75gEE74wZMw647LLL/u7z+RCiJj5OCanCUPYzKm07RbNO+idBiOw9tyCH2y6Cg807oebJf0H9/K/ArKyL7Qya28DJJurgeyceBAfNCh/VvLoVT1A7812onf0hGDsrAY9w077pjUfWe/fsDAUX/B7yxx9m3ehw4k1wIgcssOSMpgiqwhDZPB9CG14Co+6XGDBIO+GcjTr3dMK8x9RDoAx83U8AX+/zQA90sioNp+jEIQZEqNtIMiNtG+pUrZNq/6nqTzQ/EmCHw+EdTz755J+mTJnyDRGDEImXesZrjrYbUe1yi4sJNPfpst0+M1HS5Zdf3u/ee++dEwgEuiZYMknOS8aoJvMuTXsVIMJ6x81Oj7XuTZhe162gw+q/zobQl6tjO+I2BAwS/CEIUhStgapSaUI3DSC6cRtU/20ONPxrEYDP2/J0M/Cqpw8Kzj4KCi8/2boJIdLYLaIA8XpsqBJCP82C8M+vA+CVResoIfdpexSI5eLxdDgY8gZeB1phnzjQcz4Tpzo2mV0/Tx840bFOxyuiiMzDQQPyYDC45cYbb5zwxBNPrBUkSrJUm/OVUHujRQHCiSee2OOll16aV1hYuKeNnESuYKeL5dRIq7av+py9BCJ3GB2lK2Nep3OyQEAoDA0LFkP19DkQ2bQdNC+e9rTNj+1BKL3zAjB1vL9N3Xd3OC3aeCZ+R6kzTAgtWgU1D82D0JIfE7kNHHbRPI/HgXTe4UOh8KYzwNtvj/g5Mbu75gAJ7DZjCbWiteshtOph60gh9mluVdM8ZM61moDmFijQC/aEwICrwdPxd1YuhVjKiJgcOgHhiVYVcgqotOtED4hkwUk7tEHnzckJD9l0xH9ramp+Pvfcc8fNnz9/U1YChDFjxnR/9dVX/1FcXDzQcBB0ZambJA0Db9FU23UiEE4YRAQqHLeDNKppgPq5n1nHCtGtlYDu8rb8YR0xqK6Z8rzjVxLxymL1I29BZNUvyq+m9UHcNxgG+A/oD0XXjwffAf0SsRKpGIcTHo+tAfZqQLT8WwitfRKi5UtyAYipWIjW1IYZsW47+PtOAm+3E0DzYBmdZtvAOpq5482Tg9adyIKDZrmP6roOVVVVq84444yz3n///c3ZBBDwmqOVbvnggw/uMnfu3FmdOnXaP4pJYTifdCy8KkpVeY41DdkcVIycyjNk32hM61/5GGqfegeiOypb3jWeAslJNgaBJeg0XdHD0vDhd1D155cg+sv21k83E8A3rDcU3Xg6BA4c6PpKmooSFHsiNIiWL4bQmkcgWrkiBauda6J1UsAELdDZAgm+Pf4AGmZldHk0zPOuqrQn06kqtBN5d93qepV+yY2g/f/knD0eD2zfvn3xqaeeOvGLL77YyghSxPiDNh+DgHO3Ls4RNxkSAGHo0KHt33777cd69ep1dDiMSaJyn1RRAO/i17/5X6i68xUr2VFbjDdg0SJZgCCjL9It9L8VsGvy42DurGldxwqiwZsm+PbvByV3TQRvv+7SDIwyOjj/XgOjdh0El98N0Yqlzl/PvdHGKIAgoQPkDZwCnq5jXMcktLFJp224Pp8PNm7c+MFxxx135Zo1a3YJAEKzum/ScTBop0Brcs2xpKSk6Isvvrhr4MCBp4dCmANC7UPudJzuqtV6kD+VCvQq70X8BHfuHh3Ci1ZB+dVPQnRLeSxxT4Z8eNccVXYcUhJoGkSWb4TKG2ZCaNUvbY9uUQPyjhwOxfdfDHppO8cJlaT0YTwQkwNMzV0BDctug8iOz+M3mt20lnunTVHAjIKe3w3y9r0X9NJhLQ4SWloni71rzlbW7/fDqlWrXjv44INvqaysrOZcc2zWSo444hYFCAAQ+PLLL6eMHDnySicAwRmps+xpXYPoT1ug4srHIbR8Y5sOSEyrBwETR22tgKrpr0HDO1+mxbimnDPj1QvbXXg8FF07DsCP+fWbdYMRAwdGCEJrH4fwxpfjU0qHWkk59XINuqGAGQFPyRALJGj5PQivt5vGcu/YFECA8PXXXz920EEHzQCAYDYABDtZUuKIAdMtv//++xcdddRR03IAIQXCoWtg7KqG6j/Phnq8kpdBngObOs12xBCOQs1z70Ht0/OtFMpt9kgGI8rz/FB821mQf9oRKWAqeRPhTXMhuOpBAAP1WA4cyCmWYU+YUfDtcTL48QqkrzgNoDTD6MeYDgKEDz/88I4xY8bMpOow2HkQYmkvmzlCNB3SbB8xkNkUsRYDBip63nrrrTNPOumkBzBIMSVu4sznHf4MTRPqXvkYqqe/DmYd5rbPPGI0C0DweiC8eC1UXPUkRDftaDtxB7zlNUzw9OkGZQ9dCl7MuOjwhpAy12g6RCuXQ3DpLbEkSJnIcMrEyOYHTdA8BRAYeA149zglmwmRkrnjUQUGKb7zzjvXnnLKKa/EEyNhkB6ew2M0v50kKSMBAnoQ7IJN+gsvvHDS6aef/oymaTpd3SpZarMq0onaTHX/iV0vcU9YpX9X48Dz89WboHLKs1ZCpEzV1c0CEDQNKi59BOr/803GHMmgkik4/QgrR4JW4LdyOpBnpMnKlnW0EK2F4KoHIPLrP5NvLtdCm6cAlo4ODJkGeuFewo0tr0IjiwD2s2R8QbKEInPNyNp1pYsVB8hrOy6nxquvvnrx+eef/0783MYu1JTxHgQbIKAHwTt9+vRRl19++T8CgUA+LxdCczCJ4ho2eqylxyFiVjSctU/Nh5qn3gGI8K+Mupl3a3rHAghnjoaSu7Dcc/Ij0zweqH/zc6i4YWYs8r8NZpdkUsE0rSJPJXdPBP/v9kmeUPEWEsoVTDB2/A8aVtwdq62QqYg0ZZTL/IbwuqOvzwXg732elUSpuT9OgEZzjyWV7WMOhGAwWP/EE0+cNXXq1EVUmuWMBwh4m8ECB/jvuHHj+s6aNeut/Pz8jjZAkC08z1DL3nO6iEKDTAR/0Sg0VahT1k7ie/Qe/LgZKq55CiIrfm77LnLBQpEeBFMzuLtiGe2sLjBmY0cVlF/4IIS+W5cx3oME+dCLcOZoKLxhAujtsFR06j5mpBZCax6G8Ka3m/sYNHWDzrXUvBQwDfCUDILA0DtBb9c7wRep0suydkTfK+mDJKmTqj7weKGurm7HxIkTT5k3b966eIAiAgM8Zsi4IwZLFce3GAgOSA+Cr7CwsGzjxo3zi4uL9xIlS0py7TL6dc3rhZpn5kPNjDmAJYIzeTOX0iMGXYP6OZ9B5a1/BxAk6mqzzIOxCL06Q+n9F4NvxN6py42AsQfl30Jw6W1g1P+WOV6XNrvQrWXg6IHzQqD/ZPD1PhfARJuW+zilgNfrhfLy8p/22muvE2tqasqpGwy2B8HKo+q0bafPpyuMjQQItgfByqYIAO1+/fXXV7t06XJAJKLGUKQHIVWojUc43nmVDM3KFkL1uEKlH7MhBLvOnh7bBWfgzQWSlqoeBBn9Le9BeQ1UTn0Ogh98m9FGrt3FJ0DxzWeCGUouGVlC1nQ/BFfOiF9rTJcKka5o7oHWQAHMjVA6DPJHPgWaJ8/xjQZVfc56TkVXykik0j/ZD7bHyssji20Q2RtMkrRt27avu3fvfiYA1DLSLKMXIaMAgp1NsUmyJADIX7NmzaN9+vQ5SRUgyBZZRHzyO7eL6LZ/+z0VJlTtA2srBD9eBrsuuF/1lTb9XMo8CJoGoa9XQ+V1z0B0866M9bqY0Sj4Bu4JHebeBlpBIOFF4Ck5KXNglcZwDdR/+ScwatYDaG238Jd0rrkH3FFA0yB//8fA03EUgCGPh+Jtwtx17vytlu6ftgvoQVi/fv07/fv3/z8AqOfkQLCvOTqfsIM30gX/RQDB/8UXX9w4cuTIyxEg0MZTFgfAi8xWNcI06qSZRYV5kkGzKv3b68kDNHg9D/MetOUqjao8ywMIsjUgkT7+vxmJQO1z/4Gax/4JEExuZ6069hZ5DvcZHh3Knvo/CIwZwQ1gZQEG+m8WDXUfRLYshIbvp7bIdHKdtgEKmBGrkFPesLuaxKeo6GWeLNOZEkUbPJE+kN3mYelkEdVZ42DZDfJvtD4i20eA8M033zw+atSo6fGrjaig8Mc+XiCvOTYrQ7QEQMDjhkbJkubNm3fWySefPCMajVrjUd3d8BaBJL7IlS9jVt67Ku/JmFk0LnLFRcyKEfjRX3fArvF/tVIqZ2JiJJr7bYBQfOcFoOlmE0CpKi3GzmqovONFwIqNmf6xaHb2UVByz0QrRsWN52w3v+oQ/OF2CG/6Z1oi1TN9bTJyfqYBWl4XKDhoFmj5XcEkvAhNCqMRZaJlhpvcaTcB/IpXyWnd6ibAnNbJtM2iUy47kTds2+v1mu+8884NY8eOxRwIdnCiDRDQc5CxAIHMpmjnQvA8/fTTx55zzjlPezyegEhgZIbZXijyTEi0+3birVBhLLIvGchhAQRVb0WiH68Hgh99D+Xn3wfg8WSsm7wR7dHYnXUksACCDPknBBVvfazaBBXXPAmRNb9m9K0Pi3aGAZ5eXaDD238GvRDL87r9aGCGK6D+i3PBqN8cL+Xstq3cexlNATMC+fs/Dp5OhwKYu48ZeHqRp/ucbKRYxl6kk2mQQdsP1u+8NWOBBhLQsOpE8IBDNBoNzp49+5JLLrlkQRwMsHIgZNwRA3oH8MCyiQfhpptuGnnTTTfNzM/P70zHIai4kXjAgeUipRdYxFQsBmIxiAy4sIAID7iouqGs9zWAmgffhOqH3gTNj3gr8z9Ojhi4oE4Dy3NQedMsMCprMzpA0aIBXsn1e6H9rBvAf/BAgKgh9dKxZEfTvRDd8T+oX3xVXG+lywGZ+XydcTM0wuDf+1Lrh84GrAzkCaLINlw0/UQ6mdU/6dlIpU2QjYMGDnjFsb6+ftu999570T333PO1wIPQ7FkU4yYmLaxJVnRsAhBOP/30Xk888cQLxcXFA1hXHUkUKVtcEWJ04uphGRfZOMh3ZEcMbqjeBGhEo1B55RPQ8J9vALzZESxGJkoytcbZAZWViKZB7XPvQfW9r7lZhjb5jtkQto4YCv50LIDibaEmE9W9EN4wG4Ir7gbQU5tXoU0SNTdoPgXMKHi7HAmBYfc2CmTlHTG4IaXw+FXTuCBYxVPrZDw8T7Rss8cCDwgQqqqqVl9++eXnv/baaxuzDSCQ9RjsZEn+E088sXTmzJkzO3Xq9DtWTQYVw84yDjKDwdwlxRmLRpTkYrIWVtSXyvM0sKEFyfZmJECKneTnskchvGQtgJ6CtIJOpKKFnrUBQvFdk5rEIMjWwKYhutyr73kNap7/T8ZfC7WXCa/CFl75RyiaMoG5cnJZiXmsQqsfgvD65wHwClvuk6MAjwKmYV13zNvvPtD87RPXHVViEFhN8vRhgr8ZMQg8nqaBBb0ZpPtX8Siw2nQLELZv3/7fiy666KL58+dXxIMUWyRJUkt4ENCK2R6ERKDi4YcfXjRz5szpvXv3Hssy2rwFVA1qwfdFrh5VJmPFNiSMjkRViJiS7J8ECva4mQLj0SG88meonPwERNZvyXw3eZwIuz0IkwAzKdL0Ei1DYg1CEai45mnL85LpeSMSvBWOQP4pv4OSeycCBPzCXFqkp2w3PbH2Qj0Ef5gGkd/eywUo5qCBTONZ2RTzht0DenF/AJOd04enl+WANeY9ZOlOVZ1M2gXROHi3FEQEcLupxfc2bNjw5kUXXTT1008/rWYkSUJCpqWSY0sCBDujInoR/AMGDMifNWvW5P3222+yXbTJieLnGVgZ2OAhRTcuKJXdq0ynOIqo1XUIfbkKKq99OnaDIUuOg0V5EFSUiqUU6kNQPvE+CC1eC1qWeF4w7sB/6BAofexy0IoKpAlsmio4DFCshobvp0B055e5/AcyYc76703QAl0gMOxO8JSNSAQqsjwBqoZWZZPF20ySoIHe2av273RJVTwIZJtx2hiLFy9+ZOLEiY+uXbu2jrjmSNZgyDiAgHSwvQdoyhqlW87Ly8t7+eWXxx5//PF3ezyeRkWbWK5+5o6aKrKj4tbnoTwaILAWWtUY2Ywpe541J3oOjX73eCD46VIr0Y+xC4Fmdnx4MQisXQMPIJq1DbDrzHssD0zWAATDtNItlz1zNWil7ZoABNmOByOiIFwJDUuugWjlslxxpuwQt6RmqflLIW/oX8HT8ZAEQGDpNNpI8jqlAYLod5E+ID3PbvSyjCikB46cr8yO4LgMw6h/9913bz777LPfbGhoaGB4EOwMis2eZjmdHgQaIJAeBPQiBJ577rkjJ0yYMD0QCHTlVXWkvQosQ04+o+JB4LmPZEhXFIQoNOxUngfZLQ0eM2IOhOD730LlDTPBqEagmR2f3TEImAdh99GRCs1tWhvV9bBz7DSIbtia+VccbbbA+9WDe0HZrGvB06EETKOxfpECBBPADO2C4JIrIVq9NgcQskPckpql5i2EwNBp4Ol8RCKjIisGQdVIy/S5qk5mAQt6I6oCUuhnaOAhOwKndRY+HwwGt8yZM2fqpEmTPgKAICOLYkYDBDqjol2PwX/vvfcOv/DCC6cXFRXtIwMINFDA31U8BrwFdQoqUtEOK55BhGyb9OnxQMPCJVA5ZSaY1ZiNMzs+ZjgK7c45Cor+cn6jWiUqiidhKxEgnHRbLMWyniVnM+i269sNyl6cAnrnEueFmzB4N7gLGhZfAUYNFpjLfXIUEFPAAghD/mzdZrBzIfCMPE/38eK+ZLR3og/Itty+R7dB2iTSo2D/nTV+LPNcXV29/Nlnn5164403fkdlUaSrOGacB8EGB3Y+BPuYwY9xCNdff/2eV1999d2dOnUazWIi1vmT7ChAZsjxe1agCw/58c7AZG4zuh+SSVj9swBQwrjFy0xbHoRPlkHl9U9bRYey5hM1oOCC30PRzWeBpvEzKbJ4KOFBqKqDnSfeBtHfsgwg9OkGZS9NAU/nUuuIgcfPLCWmWTUYKqBhydUQrViWS5KUNQLnfqKarxTyhv3FOmIgsymKDDJPJ/MMMOvvrBE7ASYinSzT5TybxAMGZF/4/9u3b//4oYceuvm+++77OQ4Q6CRJtgfBOvVr7k86t080QGhU1fHMM8/sdMcdd9y21157jTUMI3GpXxSDIHPpqLikWO4tGfCQoUzaXSsyVir9k+Ag0TYGKS5aCZXX2UGK6VzK5mZLQfumCYWXngiF100AE1O6Mq6lioTYElQECCfdnqUA4QbQESAYcv3SmI81MCNVEPxuCkR2fpULUmxBEWgbXZug5XWGvKF3gqf9/o1uMYj0Mu9oV0XnymIU6E0Wi46s/uXHb01vVLD0kswuaJoWxRsMt9xyy1/nzp27XVLFUS7AKWCUdFoVO1mS7UFoBBB69OhROGfOnMtHjBhxqWEYjfLBygjrdqF5hpsXTOLE3SXzDDhBtKRHIfGeR4fIsg2AhZqiG7dmzTVHrDdRdM04KLjkBKmR4/GNWY0ehCwGCJ1Km1x6kZ0Do+MKrzmGfrgdIls/ANCyI3NnCnRsljZhgl7QEwLWNcdBwlsMKkerMsMt2wySmwaRfhdt5ngAgwdq6IWX2TFd1+u/++67p0499dQnNm3ahG5hu0gT/msfMdgZFLMCIJDHDIEFCxZMOPTQQ2/Wdb09azFkCyFzDalKqoxhVcahwrCy8QiFAiNet5RD+RWPQvi79dlxlo7JUPIDUHLn+ZD3x4OtQDvZWrBobFTVwa6s9SC4i0Gw6Rxe/QCENrwIoAvLpshYO/d9plPANMBTOhTyhs8ALdA5kW45Gb3odtOVDlKnwvaYprnr888/v/vYY4+dEw9QpI8XECRkBUAgizYlAhVffPHFw8eOHXuPz+fb04k7iGdIVVz7rIVNFiDQLm4VoVCdQ6PxhiNQceXj1m2GbKjkiOfmevsiKH34cvAfNMCSFNFa8RB7dgOEG0DvFItBoD1iYg+ZBprugfCGF6FhxXTQcpkU02F32m4fpgHezodDYN/pjbxNKnqOB/qdAATR5krmQXBj7Ol3WHpJ5kGIRCI/v/nmmzedd955n3LKPJP5DzLWg4BMj8cL9lVHu6qj79prr+1/4403PlJcXDxExajKjhbcLDTLLcSLEyCfdcK8NoBQmSOL8RLgSQOonf46VD/xTnYUa8Krev17QOmDl4K3/x6Jmys2HVXXO7sBgjsPgsWzWKxp+6fQsORaMC14lvvkKMChABZr6nsB+Pr9nzDnhopulel5nj7l6QPZBlBlTXngGt91Mydsr6amZtm99947+b777sN7xHiswPIgWF00qYClMmgXz7REDAIOk+VB8I0ePbrzCy+8cF+3bt2OMgwjLWNTNSpOaavarupzTCHxeiC0YDHsnPgAaHnoiMnwj2FC3rEjoPiv54PWochxNkBbcHMAoek1R9nuxuIsTDwR3gX1/z0DjOCu7Il7yXCxao7pmUYQCvZ/FPROeMURkwDGPjzvADkGsSfL/WjJdkXjSEYny0bHa1vXdfO333778Pzzz7/+448/3kbFH5BZFDMWIFj8Ef8hizbZNRn8gUCgYNGiRVOGDRt2QSgUSkRBqS6sbHFk34tcW+RVRpWdv6wvFVRMP0OPD+sIRDdug51j/wJGRXXGF2zCq50FFx0P7a44OSmPSXYDBPVbDEwe1XVo+PY6iGz5EEDPBSq6kfOMfwdvFwVKoeCgFwHyeyQCFN3MWwQWmtOQOwE0buZFv+P3+yNLly59ftSoUTOCwSArxTLGH6QtxXJi/qmYnIM2WDcZEgABc7ksWLDgrNGjR/8lGo0mHQWltCtyMHi3j6qgZldtawBa1ISKSx+B+g++BS3DSz7rpYVQMu1c8B8/Uuo9ENEzu685xvIg0JkUlflP94Lx27+g/vvbclcdlYmWZQ8aEfB1HQ2B4feDaaLKb3wclQ7DLqJ4Ko4YUrGipF3wer3Bjz766PZjjz32H/ESz3i8gMcMtvcg7QGK9o4+FXNVbYMHEBJxCPfdd9+BF1100XOBQKC0uXbqqoO1CMSoK+7kfRKJ2v/vZF4yYdJ8Xgi+/QWUX/sULYduhtmq3/EP6wMlD1wCeq/OgCWb3XyQnkZVbRZfc3QPEGK8qAOEdkDdl5PAqPs5BxLcMGHGv6NB/vC7Qe/yewADbVzmfVJ1DILt4E9DQ0PFzJkzJ11//fVfCeIP0nqDoaUAAvZrF26iAxX9gwYN6vzRRx+93L59+4HRKIKm3Z9UGWsn7NrSaJMGCE0Ag66BVlkHO8+61yo+lLG3GQwTCi85EQqvHQcmzjkJ4Jb1RwzxWwxO5IAEy5ruh9CKv0Lo5zdyGRWdEjHTnzej4CkeCPkHPgOmXtgoHXoqp97kuDUJfeBmXFK97KBRj8cDu3btWnXkkUeevXLlSow/QO8BHaBol3nGltMWIZyWQEDSxsf/n6zJ0CjlMgC0++GHH2YMGjToj6EQ0ij3kVFA9/ug5sF5UP3wm5kZOGaYoBXlQ4dZ14N3xN5gUsBRRh/6+xxAiF1zdP3BtMu7voL6728GM1SRmTznmjjZ/qIJgX6Xgq/vpWBGc/pbhRv8fj+sXLny7SFDhkwBgFoBQLCFNgnhVRkRsSl39njST9uAhAYIdlZFrMvgmzNnzpnjxo27JxQKCQGM0919c8UkON3NOn1eRHVrThpAdPUmKL/sUYhs3JZxSZPMSBQKxv4OSh64GExOimAnNM1lUmycSdHJkZfNi1pP42SqAAAgAElEQVS0BoIrZ0D4t/dylR2TVosZ0gDmKSncE/KH/w20dn2tja4KbznV4yrUcqIPmrN/lXH4/X5z3rx5N02YMOEV4njBzp5I3mDIeIBgeSqJmwz0dUcECN4pU6YccMstt7yYn59fRB8zqDBHNj6jNYQtL0LNS+8DRN2dz7dKumFCn+J20OGFG8A7fC9AsJDsJ+dBSNKDEBfg6Lb3oWHlfVYZ6JhY5z5ZTQHNA/7eZ4C/zyVg5jJtKrECHi/U19dX33XXXefNmDHjG06Aon28kLb8B4mNgNIsUvsQGajIAgi+/v37d/j4449nd+rUaUgkErtDS14zFA1H9Tk3UxK1TRcKcdN+Mu8gUo18uw4qb30Bwmt+zRx9rWlQiNUbp54OhhkDPrx1UF2DHEBIHiBYDBbeBaHVD0D4twXJsG7u3QyhgKeoHwT2uRn04n2UPAfJTlsm77Lvk+1f9X2R3fB6vVjB8YfRo0efs2bNmp2UB4H2HmQFQLC9CGSgYqMjBjxmWLZs2fQBAwaclvMgKLIhRsOGo1A76z9Q/dCbACnYaSv23HyPRQ3wj9gbSh+8DLQeHZI7NydGmQMIqQAIGHqgg1mxGOq+vwXM4I6cF6H5JKHVt6xpPgj0vwK8vU4H00R1nrZj8lZPG9EA0YOwevXq14cOHTqVSI5kX3G0CzSRHoS0zrel/IKshEmYChCPGKxjhldeeWXCH//4xxmxm4buhimrUGfvRhPuFEY/ZN7uZMbBe1eGcmXfk9yi6Rg8Vg3lVzxmlYKGtpwXAY8Wigqg9I5zIPDHg8EgCjO5XQebVlkNEF6MJ0qighRVZYU8r0Uvgq7rEF7/LDSsfhRAz4JsnmlVz22kMzMC3g6jIG/4dDC9xY1KO7NmINNpsu+deJR5/Tfm48ZPyfpXkRWVlYu3Y7799ttTzjzzTCzQhB4D+wYDWcEx7QmSEjZRZSLN8AwvDsEGCL6bbrppxJQpU54oKCjohsbBzUI3w7iF40hXf2Q/NLN6fD6ILN8IOyfdD8bW8jabXRHzOxScdRQUXT0WzHYBqffAydFSVgOEl3YXa0oFv6IXQYMwNHx/K4S3vJ+79pgKoralNkwD9PxuULD/IwCFe4MRbZz3IFkw75YUTvSB2z5E76lsLBFc19XV/TZjxozL77nnniXE8YJ9xdHOnpi1AMG+zWBfdbS9CL5TTz21+/333z+9e/fuR6TzmEFlYVUYSoZCeW24fY9sz+PzQv3cz6HynlfB2FHV9m41RA3IO2IYFE87D/RencB0GXTJo2UOIMiPGJzsknTdC2b9z9Cw9HaIVCxTEY/cMxlBAQP0QEfIG3g9eLod1wQcpHKKqTD4Nk87BS2p0Mn0pg7HgMcLmzdv/uS6666bOnfu3M2M+AP0KKS9gmMjr3QqF9FBW/aZAZ0wKVH6edSoUUWPPfbYtfvss8/EeOXHJs2Txhy/dLrwDsYrfDQVzOt2LCxFbmXnihpQ98JCqH7yX2BU1raZu+oIBnyD9oSyeyaBd1hv62gh1Z8cQJADBKc0x91QdNfXEFz1IESr1+TiEZwSsM09b4LmL4VA34vA13M8GCaq8ljcQaoNapsjDRFILbEN0eXLl8+68sorH1i0aFG1oMSzrQTTHtjh7nA/NStmew/wX7v8c8KDkJeXl/faa6+dctRRR93h8/mKaUNoM6LoLIkepuquyKkXgcUEIiFRBRQqz/HmZIGlmgaoefZdqH3+P2A2tP6kJWbEAN/AHlB2/6Xg3WdPMKLRpG6viDwIO0+6HYzfdrU970oSsuft0w3K4kcMZC0GFWCtwou6ZkJk++cQXPUAGHV4k6Yl1UsShMq9KqWA5smHQJ/zwdfrDDD1/AQokOlYnq5U0eNOgIdIJ7Py4aj0LyUK8QDLhtB/i0QiVR9++OG0008//a2GhoYGRg4Eu/6C7UVwMoSUPNuSEsyKQ0h4EDBY8fHHHx95xhln3N2uXbt+LICQLAVoJqIXUEUpuh0Dy92V6v4xaFELRaxbDTXP/Lt1X32MGuAd2BPK7rsYfMP6QDQUSigdFQPmZB1yHoTGHgSR0rbpqiILludK90J0++fQsPQ2MDA/gobYP/fJHAqYAKYOgX4Xgr/PBWCCFwwjmrT3lrcpI/WkE4Dglt48m+C2Pd576HGrqalZ++qrr958xRVXfE0FJ9oBii2W/8Aed2sACKQHgazs6Lvgggt63HHHHX/p0qXL0YZhNBqrLCsiK4MVDznKFp9k3gThqN2RCDk7QbOisbBAEo8O9t91vMnQEIKap/8NtS8saH3HDRhN7/WAf7+9oeiGCeA/oJ+VDInlS2PRmKStbPdi0zarAQLnFoNMBmigIPJcWSBh15cQXHEfRGvWx49RW1LVqM4u95yYAiZovjII9DkPfL3PAtNEcBDLU+NEL6bCu4r9yeSd9z0PjNhtOt2Q0CDGfp+2G2S7mqaZW7du/WDatGm3P//885s4+Q9apIJjo/VsQZGwPQg4BPuIgazL4OvXr1/xK6+8cuWQIUMuMAwjjx4rnSJT5iZioUMWc7N28k7oxGIwllCoMDjZlgwg8HZ5lichakDDv7+C2lkLIPTDhlg1xJZ2AUcN6ypj/gkjod35x4J3QA9L6Ml58nYQsvUQXSs1q+sh248Y6FoMqrzIAsssudQ9PjCqVkBow2yIbPsMzHB17oaDjGlb7fcmgOYFT8kQ8Pc+C3xdjgTD1CzPAevjxMCKNk/YNk//sTaAIvKJ9AFtN2SeCtGmhARKIiCiaVrDDz/88PyZZ5752Nq1a6sEFRwt3NJSiSVaEtaTAIHMqJgo/YzHDPPmzTvx2GOPvcPj8XSS7a6dLDRpeOh2RQvLG4NTVCxTyG7QrEjYdI8OmgkQXroBav++ABoWLgGztqFlqj+i1wAdB326QuHE30PeCQeBVtYuFpDIuJ+vqnBU1wA9CDmAsNtHI5IF2nMgs2FkW7ruATO0AyK//gtCv8wFo25T/MihJdWObAa57xtRwIyC5isCX9cx4NvzdNCL+lsA3s5L4oZass2SyJjzPBWscfD0gaqeEOl6FZ0ksiPRaHT7ggULpo0bN24+EZzIquCYtQDBAojEDwIDu/xzIhbhwgsv3PvOO+98rKysbBBed6QRpcxrQC4yyyjz/iZql+WJEB15iI42REBBBV3z3mcxp3VGjGVRq+qgYeG3UPPEPyG8bjNoHk/6gvUiUdAKApB/woHQbtJx4B3QE0wNrIBElvDzvCL0/GS0IncjOYBQCmSQosoukEdfHihPHHHpOoAZgWjVagj9NAsiWz8FMMPWjjT3acUUwLTmWLq5ZAAE+lwInk6/A/AgiG8cOCzzKKkc69IGm9Zptuw6MewifcDiWdobTa6MKhiQeQ/sMWF7VVVVK2+//fYrn3rqqR85txfw7Mb2HKT99kJiLi3MoiRAII8ZEgChffv2xZ999tmd/fv3PwXrMtDuHdLVxAIPTufHMqy0EIjAgAozyzwhPJTsxAiK0CsGyOg+H0S3lkP1E/+E+vlfQXRHJWjW7j1WHTKlHzw2wJY9HvAN3hMKJx0Heb8fCVqeD4z4mvKAnMjF6Ab84TtZHYOgmCjJCfCUrYMFTHUEBAZENr8LoQ3/iF2FxPNri9dSzXAp5d4sasy2Qxro+V3B1/148O91Hmi+UjCiqHsbXznm6UqaYKnUyyp6wtpyU55I2k7wNh6sxRZt4uy+ZDaB1OlYf2HNmjVvHXbYYbfu2rULjxfs1MoYnGjXX2jx+IPWIJmsfAh2XYZE6uU33nhj/CmnnHJvOBzW7cVSQaYyyeYhVRkTygw1fT4m+51GqzQIopGpCrrl7bDtOSNI0DCA0TAhsvIXqP/3VxD87w8Q3bgNjOr63bUcLAjnUIHHjxDwPQQBeudS8A/eE/KOPQD8R+0LntIiMCMRy03pZA1olC87UmK1bQl0dT3sOul2iGbxNUfyKIdHJ56MsXaN9rM8xYzfWzynecAI7bSuQ0a3fmR5FsxQOZhGKJai1+I1h/wmE/Tc9xwK4FEfxhfgpsALmq8Y9Ha9wNvxYPB2ORo8hb3BBA3MuNeANIa8Xb9ML9O6k6WnWIN12i4NEngAQaV/lgeBJzP2BpFFK7sdn89nvPXWWzeOHz/+Dc7tBTKDotVUS7FwS0ui3b+dE4HMh2B7EXwXXXTRoOnTp88uLCzsaFd3VGUimXEVLbTbRaEBAck0ThGn0zHwkCxrJx7b2enWD4QjlsEM/7ABQt+sgfDKnyG6aQcYO6vArAvu5tAEx9j/E+dd1DM4WK8OenEB6J3KwNu3K/iH9QH/Af3B228P0EraWQoJ3dt2AiQWrZzOWcQLLLdk7oih6RFDc6wDCzTEQAL+aGCGKyBa/RNEy7+FaNUKMGo3ghncHgtoNO0jp5ZWUangxtbWRsxTqHkLQPO3B72gB3iKB4CnbD/rXy3QCUzNkwAGyehI2c7ayeYpGSqqAFgW8E2mT9ZGDvm/trZ2x9SpU8+ZOXPmSqJAE3oPWPUXcgAhvmXgZVUMdOjQoeCzzz57pF+/fseEw41zffN207JdPm20acRJAgsWk8gQJMsw2e3wvlPZTZNjET0vOmJg7fJiQEGLYdW6IER31YDx206IbNwK0d92QnTTTutfNK5mfQjMYMiq86DnB6yYAr1DEXj26Gj9eHviTxfQOpWAXlIAWFfBDkDEvkUuOyc0EAm0CKTlAAIbIKjyFv2cCFywDEBC9uJAAYwwQKQKjOAuMOt+AaN+M5gNW8Co+y2WSyFaB2a0Ie5l4KhsFo4g910Unk04Kei9GQ+PiPZwsr6tCRPjjp/kNZoJ629MxcP4owhDIXDXvaB58gA8+TEvQX5Xq36CltcV9HY9QQt0Bs1XAoDP4HY17tnjySJLt7J0G0/HqoAGXnsivayqk1meR9rD4EYWRGO22/f5fLB27dqFhx122OSdO3fWAUCQAAlkeWcyOVLWehBI0eGmXcbyz0888cRJEydOfIR2v/PczizmpEVL5A5luZ5IFErvyFk7dJKZeS45GuCInnOLtnk04gmF5VmI/6Bis44esXw0ZjbEuggGxhSYsYBRywuhxYpC+TwxbwS+Y3kvYy5Mck4sF6MqDVg05wEhkbLI9iMGrVNpPN4kRnmVHaKMh0SyIVtfazdL8pw1KAyGi8Q8CVa67RjPxUeMbxC/x6/DUWp09/NWDxxkEWvZbs96Dh+1DbaCarYepQFAfMSN2uWOwJ5VbByJjz2ORthi94BIGiTeY75j1d2MHyWg98YXu00S78oG7WRac5YRl/EAa3oioG7zHt0uzS/kc6QRlulgnk52Mg8R+JXpdxqI2M/PmjVr8uWXX/4OlfuAjD+wEyRZU5ewTbN+3Rr8d2QcAv6/fZPBvu6IFR49RxxxRK+5c+e+UlRUtIddvIm10DwGSpUiVBECFUNOKlSWAmUxl9vdNUsARYCGBFf2c7TCsDQiFQhk0zgZQED2TSsG1R2C3QbvebOqHnadnL0xCAgQYkZX/JEBMtn7rHWQGQyyT5L3WF43kv3oMBkeEGXJnchA8eR9t56J/R/ZP2/jQRoUJ/pIrNMaj9Aehwz02d/b4CAVxpSWXVXDztJ/NN1VdKqoHfJ9GSAReThZ/CDztNjfY3BidXX1r+PGjTvzk08+2QgAeI5ml3dG74HtQUBQ0GL1FxrRUUXI0/CMHZlEehESMQiYDwF/VqxY8eDee+99kg0QeLt8nnCooEEVZhUZMZ7gywwyTxHJBF11bWjAodIuT6hUhSSdc5J5Jsg1y+ojhngmRdk1R5mCZn3PMwi8Z1WMZBNgqsrwuee4FGAdETjRB071qGgpnLQl06Eyj4JIHzkZB28+Is8EvoPVG9etW/evQYMGXcsITmw16ZVbM0CwPQgIFBAgkF4E76uvvnr6SSeddLvH48lXBQG8nbpske3vaQUl6td+x4mwycah2r+KELJQuIqSpgGRCATJvByy3ZUMfIloLFMgiXdztxikeRDIdbDXTJW+bmROtq5sD4Jz72vqPQjsMaTC4KjIgkzXOBmHiDakPiQBhqx/nlHmrbfqeFX0ooxfVfuiZUGl70ZGNu7WiUaj9fPnz8fiTK/HvQWk9wABAnoNWsX1xsR6txKgTV93JAFCIifCtddeO3jKlCl/KysrG2wnTaK9CKk00qq0cer+Yilf1b7o53iomaSLTEhVQYIKCKGBlUyBOBFSp/3z+jaq6qE8S48YSi0PQokVR9JaPjJFrjpONztIWxZl8qI6BlZ7qjyu+pxsLMnoIyf6kzcOt+tA0k42R9n3bmjQHP3b40DvQUVFxfIZM2bccP/99+PtBTr3gQ0QWk38gUUPGaHT9D0dh4AAwa7LkMiHMHr06LKHH354Sv/+/c8wTcy/1/gjYkxVIyhCh6o7I7fMSSsXeswqCoQco/08/a/KmrLo4ESR0+Nwonh4a+BkHiJaZTNAwHLPeLtEBSDweMCJMU1GFkggnYws2O863fnRYJfkYRVZ4PGrqh6h5++GBiyjp6JHyLnTHgOna5oMYEh2Deh5uAGEbvmG1LNYnGnNmjWvXnXVVTM+/vjjcuqIwY4/sG8utIr4g9YEEOyx2PkQWLUZ/MXFxXl///vfx44ZM2aq1+ttTwo+Kx5BZgh5guLEELkVQBUloSLINPPSSkzlSIQHnlSUIEsAScWWrAdBhQZO1yCbAYJbD4LqOrBAuwoPyACkSv9uDZFM3p0aCLfAXDZH2fcso64K5lTmKKMTy5irxAZRhpR7qyZZfSTjQ5YekdkQ3vckrfCZSCSy6/3335/+pz/96c2qqqoGTnBii5d3biK/bgnQDO/ZgYokSLDLP9teBN+0adOGXnLJJXeWlJQM4513p+q8Urb4NGPzlBxLsFX+xntGpkx5SpqF/ElwQIMWkUCqjJ+nMFQVgojHWMpKVYHkqjnKazGoyDfPYLjhG1VgqypzItmlAbFoHnT8hYrOIQ2NSIZlBoslr6wYHh7Ad2rwePJP0oAGHLQhlM2J3Dywxi3SK8nylRvwqioH5HOsNaqsrFz69NNP33rHHXcs41xvpMFBqzgDbC1HDBbfUD90bQbrJsO+++7b/oUXXrhh0KBB4w3DQODg6EMLgcrLboSA1a6qAXMCTFTGn6r2kh2/CmBwCgrczD+bAULMg+A8DwK5dqq7UpW1Ud0VN6dyVzFqPGAiMs6q8yfBkco79Fo4eSfVz7rRp6lay1Tqo2R4WsbDuq6HV65c+cb555//t++//34X43gBAxPp4MQcQGAwKwkSmMWbAoGA//nnnz/+j3/84188Hk+ZKEjRDQOputFohUF7LUS/p9IIsuZIz8HNnJwqEpF3wuk6OH3eQpeYupeRl4E1j2zOg1BqFWtyHoOgSluZ8neyTva6qhphmm9kvzvlcdXnefJHA2QVmqZCFlQ8EanaRJBrZq9bKtbBDd+IjledAIJk1gDfjUaj5W+//fbtF1xwwbvBIKagbb3FmZrIryrTp+k5+piBrs2AXgTfcccd1+O55557omPHjkPtnAipHF86DKrKeJ0KhUqbTp5xIxhO2pc9m4rdCauP7I5BuB50TJSkCKZay261JWWBlANVsCLjbTfftyQNSBDeUuNoaX3kZs3w9sKOHTuWTZo06fL33ntvE+N4wfYe2AGK/9/el0BJVVz91+t19hl2hh0EFEFZ1GDUmKhBwSUYFSOKSUT9AybqB5KgoAIxEDACUb8PcMMViWs0cUGIS6KouAEqogjIvsvAzDBLb+9/6k1XW1NTy63X3TM9PdXnzJmZfvVquffWvb+6desWueLZTXMpfyeTthgcGaROVpCkSQ1OMyCEgu+9995Np5566u9CIQzIUvNRCX66DBZUCav6lywVVBNQ9TzZ9mklxKsrVcDNAAR9gMDKaDplEVI3pIxbeYTIWVPPBdVccTt2+j3oGNPNCxEog/YvFbRwW0cgEEAffvjh/51xxhn3xe9doD0I9OkF+uRCRmwvEIPsduzpeI8AFhKoSBInNUiadNtttw2+7bbbHg0Gg0Xp8CKkY3CmzsyggAEI7gFCZnDQ9MJQIPMpgL0HNTU15bNmzbrm7rvvXiNIjkRiDzLiciaWqpnmQaBBCwEJ7N0MTuKkrl27Fq5YsWJ+7969pTc8Zr4YmR42NgUMQDAAobFlzrTX8iiAb27ctGnTynPPPXfSjh07KqhbG7EXgb57ISPBQSZ6EHgAgU2alDjyeO+99w677rrr7vV4PAFIwE/LE1EzYh4FDEAwAMHMDEOBdFIAb3/EYrHQww8/fPPNN9+8UnC0EYME+nijs5uSzn7p1p3pHgTWi5BIu4y9CL169Wr79ttvLywtLT05EsG0Nh9DATUF8GVNZRdNR9E9hxDCV1W3kI+vVykqecJdkGKCRPhaZqLFqCuR2dsURSR1tB+lArXf++G6wngTGaVPW4gkmWGqKIBvbtyzZ88nZ5111g1btmw5qLjamQ5MzCiBzkTtSMchsEmTSOIkJydCu3bt/E8//fT1p59++s2WZWW0F4GXvEklZLznbusRHQd10wdHx9u2c7RQ9+P2PbYdN+MhtMN5EAxA0NVDFrIjlSiy9Ulkh7532PEDLwlSgEmDWxlGlhdZ3iBCniBCvgJk5bRHnkA7hALFyAq0QZavACEPVg1YLsXXWadKBmGjTW8pNpETtDXXPGAacDMP6SpSxQu39STbfzIWmp4ejwfPjdCqVavuvfLKKx86cOAAvmdBFpxoAAJUcKlyvCug2cyKgT//+c9Dxo0bN7uwsLB3DHDHvYt+pOUVtwKdys64VS6p7oMboJFMH8wWg5stBgvZtQdRzSf/D8WObm1wiQsUbrCQUus9B5BaCFke5IAFDAa8OcgKtEZWbmfkKeiFPAV9kafoOGTldKwDCzaOAZN/UmUkVO1k+vOWqg9SzRcMECoqKjY98MADU2+//fbPOFc7Y3c3FsyMS63M0kJ/CZhqaorrY294pIMVExc4nXPOOW0XLFjwhz59+lxi2zYuk/QHojBShcBlnW1qEKEaI4ROyTJDRgO37RuA4BYgfI9qP5uAYke3JcvWFL1PwQuc18HjR5YvH1l5XZC31RDkbfdT5CkagJDHBwIKok6x8U08QKuaK6kYMEQfQMq47Yvb+ea2PfY9FY1Vz1PVD5mcYNmwLCv67bffvjhx4sS/vvnmm3h7gec9oAECrhKKldM9jHr1NxeAQI47EpCQiEUIBoPBpUuXXjh8+PBbvV5ve3Yyp4Ka9MTA9TX2ipeMIZ2TH0KnTJmAydLBAIRsAQhSeI2QLx/52p6OfN1GI0/R8fGth+T1MAQwQOZTsmWSnQepar+p+tHU+oinl+OZE/cvX758zlVXXfVKbW1trSJzYsbc3MiTh+YAEMhWAwYH9IkGJw4B/1x22WXd5s6de1enTp1Oj8Vizph4yTt4GdHYZBuiMvQkUE0I9jmvPM+dJyvHG5NsJcMme6H/d+CqIpOeG1rRAkaPTzaRk6WViBcyHhmA4BYgHES1n92QQR4ElYmzEYpFEQqUIF+nXyB/10uRldsJ1d0U/0MMDbsy1l0pq2SQJ+O8hYbOXGD1gWzRolsv11DE441ktBItntj5r6sP3NKK1Ud0ojtWH4oWYSqdzPLB4/HYu3fvXjVlypQ7nn/++e2U94A+2ohBAX33gvEgqKay4DmdWZEFCIltBoRQzquvvnrFOeec84dYLJbnsi3Xr6kAg+uKAS9mIooGdDvlRXR4gE8xHLpoOoqZUwwafMAxCJm2xQDtPvYaeJCnqB/ydR2FvO3OrAtoTJNXV0cWoSPQKZcJ7ZP+tjRvq2VZVW+99dZfL7jggr8jhOhrnXGgIp05kQTHZFRqZVbOMtmDQPqKvQb4Q1Iv09sMzt0M+OfKK6/sNW/evPtat27dL9nMirorCN7kVRluyCSGlKG9ASpvCG+FL0L9dL2yMiLkDVVoqjGqnqva4XlqDECo70GA0NjGwYHNFiDEpcSOIctfhHylFzhAwcrr6oAE1XxnvW1ujB6ExhBZhrStWvW6jaFQ0YnWBRCdkU59JKKlig+q57J68dHGQ4cObbjllltuevrpp7cwiZEIQGBjD8THbVQC0QjPmwNA4F3g1OB+hsLCwuCzzz577dlnnz0ZChBkrj+RK40YTlkecJXrX2bUaZ6z2ySq/1XGHpJjnm1fBAB49CHtyyaZyt3JA1Y8Iy9qX7ZyIfXYFTWo7KI7W2weBKtdw+ueeVtK9WXB45xiaF5bDFzojpAVcIIY/ceMQ57i/sjGwCF+GyhvjqiMMkSPiBYRMlDPAybs/BDNDdE8Zo04PWdV9ka2bcn2VTYPWWDAq1fUT5U+4r2nqxdVc4GlE+k/BghvvfXWPZdffvkjFRUVJPYAby3Q3gMCEIjnIPmgGBXjknjeXACCw2PKi0AAAv5NYhH8p5xySud//etfT7Vq1aorBCSIJqBq/z4Jeide5U0oFQBQKSqdftEGljeBVIZcpy1ZWV0l6Bbh030wMQgNPQgqflpWtgCE+EjtKPIU9kWB/tPrAhjtcOKCS5nBUtEpmec6c0Fm9Nz0QeUlkS0I3LTHvsPqIxZgZIo+4o0Vywu+d6GsrGzHRRddNObjjz/eRSVGomMPMj5zYgPwkwrmprkO9gInvNXAvQYabzUsX758wllnnXVjNBptcOQROglUwgsx5LyVsAj9qr6Homa63xBDSpdR0QbXzVu9iLwSbEAQ2zdWAUBooNu+iAdmi6EE2UzOEDX4bM4xCAINhUFCQW8UGDADeQqPS8QksMaQpw/o70T6ALLQcKMneHNFd26odDZUH4iC/XR0looGIjAk8qaQ8hBvC9Fr0KBFEd28Xm/0nXfeuf+8885bxNlawB4E+lrnjL17obkDBPpEAxuL4MQjjBs3rt+f/vSne4uLi3vKEieJVvAyI8tz5/EEBmqcGzCDyUwIqUekvKATFzI5RRNOpmR0aMUqW783Zb8AACAASURBVIjyUhk0Ge1aKkDw4lTLj09G3vZqD0JD+mYhQHCsA/Yk9EH+425FnuITHdHD05C3YqUNlWzesMYROo9VRhlaD08nQOYLVB/pruahtOLNe9FWLg+UqfSRigbsIki0iGHbwYmRjhw58t3MmTNvXrhw4QbGe0DHHtAnF8jWgtliUCl8wHORF4FsNZBgxUD//v0LlyxZMvGEE04YE/c0AKqvK8KbgBAgwQqWrvDKFIpKaYgAjWoVJAIWokkB6QdPEegqtVTxQKZsWjRAeGIy8rZTH3NsyIe6TIrNPwaBIxl2FHlbnYQCx05GVmGfejEJNCig56kK1LLzD2IkIYYdMg9ToY9E7dDjIrSRzXFdMCHSS6q4AJ7x5+luSJ9FOpX9npKN6BdffPHU2LFjF6xfvx7f2kjiDni3NjYb74EzPrD1bPqCbLAie8ujE4sQDAYD999//xmjRo2amZub20UViyALEuJNNAjKVE0KkbLgGXW2rEjoWfbI3J6iMciUnmhFJXqH9iCoxgDlgWg7gwdqZDxoqQCBvqxJtcXQogCCowk9yFd6PvL3uQkhXzGyrLrTDSKAIFrZ0rLIAwn0vKS34SAyrDL87FwULRKgIJw3t1mAQBtcESiXzX9WT7H0TpYHNKgT0ZsHenjv0d+Rv3HsQXV19c5nnnlmxs033/xubW0tyZrIBieyaZUz2nOQkMemt/vgHoi8CPiYIwlWdI48Dh8+vMM999xza69evS60bdvDEwzexAf3hCmYilVyMm3LDDuvXpHicNMHN3VBV1M6dNUpawCCiUFoKOs2srz5yN/n98jX+eK6fQaX6ycdWYTOBZ25qTsndTwAqn6wCxhdtz6kvKoPBEhB69KlF9N+bMuWLa9Mnjx5zvLly/cx8Qc4KJHEH2T0tc4imjY3D4Jj16kfDAxILELiNANCKLhkyZKzL7vssmk+n6+zytWkg7xFKJn+HuJBgIAW3VU7vcKQBUhBVhAiD4RQkDjxE7zVBaRekUeBt3pJIF2NmyUNQGgIEFi+NnDpZkMeBJVlwfEI+T1Q4IRZyCo8FiHq+CNPR6jmgmwFL9IjMgML0Qe8hY+OPiL9olfuIk8IrW9kixQdDwLPowDRIyr55elnqDdEBDTw9+FweNfzzz8/a+zYsW8hhPDRRvrmRnIpE/7NHms0HgTVfHTxnPUi0NkVE0mT8FbDGWec0fahhx6adswxx1wQDodJsiUXTTa8e0EEOGhjpSrjpiOiyQOdnG7aFBlgGehiJ2My7eq2z5bn9RNf99zSMymyWwxKHlHHHO2MuaxJ2WsXBWJOIiV/v6nO5U+Js49UTar9cJ7MNpU+4BlXF0ThvqLa8hOBlVS0D+UBRB+47Y/f749t3rz51euvv37We++9Ry5lwgCBgARyrJHOfeDgKrdtNvZ7zcmD4MhbnED0VdDsLY+JFMz33nvvmddcc80Cv99fgE80uBEq3ipAheRV+2qOhCjuQuBNbFW9dL9YdExPZtK+CnDIYgNUXgiIhwRKBxZ48bwjbF0yWpk8COpTDKwiwnkQYvEgxewGCPhWyAAKHH8H8paOQCiGdfwPiwSR3PNiElQG1K0+YucDzSvZPjuvHPlORx/JvIC8MfFowzPc6dZHvDHq8oD0G59cCIfDlY8++ujEm2+++b+CK53pa53plMoGIKQR6fC8CHRehMRWQ/v27QtWrlw5u3///ufXXapV/8NzHUEmCmRssknBQ9Y6ExXavmwsLGBg60wlHVT9SGfbPLra5dXo0C9a3l0M5Jijp30xQrH6OkqtKD3IDtWdYshugBA/+ljcHwWH/C9C+M4GAJhXzUkVWBDphFTOQ5mOEbnRZdt6qjHznuuAAPr9VNBBtGiRASfRIiYYDKL169e/NmzYsKn79++v5BxtJHkPmq33wJFJN0zOgHdoDwK5CppOv4y9CEEcvDh+/PjBf/nLXx7IyckpYb0IEERJBIQWbJ2VPG9SyiaJzHCrPBesoMs8CkQhQbcK2IkCoQFP6UHGIFNW9MqD5yWh6S0yeniLoeyi6S041XIxsih8AJOBLM2DIFRmHhQcMB15O45ACNVPl8/SSzQXeN5H1ui5XUjQeolnxEReNt2FCEQfsXqGp4foecujgQqIqBZzEH0kqkMF3tj38P81NTWHb7vttnGLFy9eE7+EicQfsGmV8UwjRxubjecgwa8MMPZuukAHKhKAQCdOom96DH7wwQe3DRky5AqcXVGFRGXCQiNQdmKr/ocOUiWsuvVAy7PloBOOVYIq+kL6o1rN8pQfD3iIlG9LjUGQeRBEq72EQUE/5EHIeg+CM2gbedufhQLH346Qr9AJWGQNnwiM8uaEauUsmhcqACGatzKAoDNHIfrI7dgguoAHLEj/VTpX9Fxn/LxFjsfjia5du3bZqaeeOicemEiONpL4A7K1wCZGMgBBh+lJlGVjEUiwIgYG+O9E4iR87HHGjBlDbrjhhr8UFRX1UOVFIAKhQrRJ9B38amNMPIhi4q1QwINwWVBXMeo001IBgiwPgox+dbzI4kRJvMHbNrLyujh3NXhLBtaLK9M1MDqyqeJDU7ZN9EBT6CXVoiFVNFbVg/MelJeXb124cOFtM2bM+IzaWiCBiRgU4L8xoqQBQh3qbGaf5rrF4Nhx5ofEIeCtBicfArnI6cQTTyxatGjR7wYPHoyzK2Lw4HySmWxuDRjthWhqWUl2okNWF7wxuqWdarUEpWdL3WKgPQiQLYZ69GwxpxioUXsCyN/rOuTrdiVCVoOrXeqThzpmq6NXUjUXSGeSndPQOZTKcm71CE8fuNHtmu2H1q5d+9SECRP+7/PPPy8XBCeS+AP6aGOzAwfEyKaS141Zl+wSJzpxkuNNmDNnzsnXXnvt9IKCgr7kjgaRGz0V3gOo+0u0n5nsRGffl7kckwVLOqseUb/oOlKlNEU8MHkQ1HkQHOVQz+ghZIe+bxlBiglhjG8zHHcrQv6SpBaAPCOUCXOB9grQc5B24+sAHpUBUI1ZpPeS1Ye0PNPj4elFnk4m71dWVm585JFHZt56662fcLwH9NZCs0yM1AB0qRiawc9p7wfOc0B+uLEIvXv3LnriiSduGDRo0FW2beeIxiUSGJ5gi9CqahKIhJV8LwpugkxU2kMhE36VEYaOQQSm2H5AadXQMNkJQ5UqMOUcc2yBpxjwFkPxE5ORp13DUwy8+VBPRlpCoiSWCHYMeQqOqUuclN9LChB480m0MqXnBguMRcaJZ8h5+kC26JF5GUT6AKoPVYsEev7LdA8UIIjGCfEgiPhC618eXyzLqlm7du3SX//61ws3bdok8x4QcEAHrhgPQhOACUhehMSxxz/+8Y8DJk6c+OdWrVr1E8UiQBAlZJwqA6yqg+4HROgbID/LSmoLRdW/dD6XKVvddnnKuKUChMQWAwYIgKN79WjXErcYkI0sfxEK9Lsdedr9NCUeBLfyCwUIsoVPKvSIzLjqji2Z8m49Cm7fw7EHZWVlGxYsWHD73Xff/aXgxsZmn/eggR1JhkkZ8i40FsHfqlWr3CeffHLMz3/+8z9Go9GMi7+ACG+ywAOC9CGeiqbmPYRWoj4agAADCPXpZ7XALQZnTelc4OTrNjopgOBmvkBkHFLGTdtkNU2AiaqOdPdDpZPS3b5lWfabb75599VXX/1UWVlZNbO9ILvSuVl6Dgi/M85IqgRR8Jy96VGUXdE/dOjQDkuXLr27e/fuPw6F8OkU82lpFDAAwQAEsMzbUSdI0bnl0UoqYzu4SVMwsygQCATQ1q1bPxgzZswfV69eTS5kIrc1snkP6JwHzRoc1MHj7PhAvAjkVINv0qRJQ6dPn74wEAjkk4BF1cpalgyksUiYTpQMGUM6vRfQ9lMRQGoAggEIEHlzytgx5G3/MxQYcJeTgpleWZM6VKtbcFuaBZtaHyRWmU20ndkY+ginVA6FQkdnzpx5w/z581fHkyLR4CBrvQfZBhDIeDBYwFCf50VwQEIgEAi+//77d/Tv3//SWCwmP78kclm4PNakqQMyunhT70e6bd8ABAMQwBMLByqWnIgCg+9DljdX+FpjGCtInzMFNED6muoy6eABToq0fv36F0477bS7QqEQzpbIAwdZF3uQAH+pZlIT1ifzIpDcCIkbH2fOnHny+PHjZxYVFR0D8SI04bhM0ymmgAEIBiCARQoDhMK+KHDyA8jy5oFfMwWbPwWw96C8vHzz4sWLp0+fPp0cayQJkdithWafNZHHsWzZYqC9IexNj9xjjwMGDCi+7777rhk6dOhvLMvKbyo3YfOfRs1vBAYgGIAAlloMEPK7ocApjyHLlw9+zRRs3hSIe2KOrl69+vGbbrrp0S+//PKIIikSe99Cs48/yKYtBnYsdF4E/Dd9kVMiDfPEiROPmzRp0oy2bdsOjMViDlgS5SBgxZ1NtiGbDuw9AaQdp9PUVoVO+3RZ1VTkjUl23hpadypoJaMNjz70WKHtN+BdZTUq++WfUHT7AYQ82YSR5ZLg69sFFS+ZhDxti0DHHOvLOL7N8RAKrfk9ilVuUYlc9jy3Y8jK7YSCP3oSWf4C4bh09YFs7rMyTv5ndYWbcqK5LdIHbueYSh+KxsTTBzr6CEor3jFyuh2Px2MfPHhw3fz582csWLDga2prgWwx4G0F/EPnPGj2eQ9YvmWbdmTzIuD/MTig4xESACEQCOQ8//zzo4cNG3ZjLBYr5Al1OiaIzsTWUTzp1MqiiZuKNlVjJM9Fk1q3D/bRGnT4ir+gyMadCHlaSGR6zEa+gb1Q8YM3I0+rhlcYqwCjcxdDuAyF1k5CsfKvsii+WSE9TrKkXihw8iPI8qV/iwE6F1TgWXdOQMunWx8SI60y9OnUR7htj8dTsXLlyvsvu+yyZaFQqIYBCAQc4G0F/DedUtkZApSemV4uWwGCM3842RXZexrwscf2jzzyyO19+/Y9NxwOa3kRRMxlhdetMLt5j2dM3U5qlbKCrBLYoCnZKkgG0FI5keyqWnTkmnkovHZzywEI0Rjyn9YPFd1/A/IU5YM8CPVpbiE7Uo7Cn09B0UOftpwjfxggFPdHgcH/i1A8SBEqw6J5R89RHbl2ow94q+9k69F9n9UjbvWK2/dYGqv0od/vtzdu3Lji2muv/fPq1av3C3Ie0IGJZHuBNGUAgo5gN3JZXnZF+lQDOe5ILnTyT5o0aeDUqVPnFRQUdIbc9igyZCrUy3oOktleSAVNWTBB1wlVgqoxqfqZKjAFXXk45WpCqPymRaj2nc+R5W0ZHgQ7EkU5I05BhXdfi6zcoBIgNDQCFkLRKhRaPx1F972NkAdj7Rbwwccc2wxFgRP/ipA3CB6wrhFNFzjW6Ueq9QGYWFRBnj5wVnvMViykbjeAAmdMrKys3DV79uxb5s+fvy4ODsg1zvT2AvYe0PctEFCQNeCArLIhtG5uZUigIu43fUcDHbBIbzUEli1bNnr48OG3WJYVpAWLdb1ChVVXOEUTWe365bNGRzFAmJvOfqholXIeRGOo8q6lqOrpd1oOQKgJo7zrhqOCqb/C2rYBy0H8tWMovHEeimz/eyInAER2mnUZnCip80jkP24KQlYdKALRihm0atVKiuvOBajhVNUL5RE9DqILdXQNpCykr255INPfcW9n7fLly+eNHj0aby1gQEBAAQsOaIDgiEU2bS0Qeci2LQZazrWOPQ4ePLj10qVL/9SzZ8+f08ceRcZJ5jZjhRAyKUQTVDYRePWKVgHJ7t/z+sEqPSitoMqIpzQTghtPziLLhSBSnlgwqh58DVXOe6HFbDHY1bWo8M4xKHfcCITCWLe5+Fh+FN36CAp9Mz/hbndRS/N6xY4if+/xyNdjbKLfornAymY9ZcTIK3ShwRJLpA94+oje3mNzBECBBa99tl6ZfoPQyo1AQOqV0YqnD/Gxxi1btvx7zJgxd65Zs+YQ5T1gAxOz5jpnFe2zHSA485CKR8AeBOxRINsLibwIOIHSXXfdNXTChAl35uXl9SDC5Qb5QwACbchpQ8gKLgRN00xmAQJrQIli4BlzVqGx9aqUihuAwCoXFeiRCTR4VWFZqPafH6KK6U8iu6qGu6JWTZxm9dy5mMlCxYtuRIFhgxGK1AcIIpo34LflQ7H9K1HtulvjNMtm9VG3KLQ8QRQ47o/IU3qh1gJRBex5AEFnLqgABq23dPSRSK5pvaGz2IAYcofSdt2trTwaQGjF67cOQMBtV1VVbV20aNGf7rjjDpwxkU6IRP+NtxWI94D2GmTV1kIC7DYrRafXWd6JBl6GxQRI6N+/f/HChQvHnnTSSVeT3Agio6hruMkkoFcZIqEWIX8RmtcjC+woJ8TYQsGTbBXEoy+kbZlSUdLDQiiybisqv+VBFN2+P/uPOsZs54rn1i/eiayOJQjF7HpucoiM1ylpD0I1u1HtR9egWPhw9p9kwAGKuZ1QYMBMhIpPTMRtqGRWBaR5gF5k8HXmgkq3iOaFygOg4zFQzj1OAYgegdDBjU4m3bFt++inn3765A033LBk/fr1OOcBL+6AlzExK2MPWgJAcOZcfKC0F4ENWKznTZgwYULfKVOm3NaxY8cfRSIRj0gZ8AIMRRMUioohAAAyUUT1sKsKlUKRTTjwqpPZs6WVjap9avKC8kWoFESizxZCsX2HUcVtj6LQqvVZ70Gww1GUc+4QVLzw9ygmuOZZZdQI7Sxko9Da/0GRg+8n9uTdGIXm8Y6NvK1OQoH+0xEKtk+AKt7cF30n84ixNIDyQAQweCBDZvzp+UXXKQOMIu8BmXuqMfAWSlCd5kYfyXQMoY3X643t3bv3o7lz5/5l0aJFGzmnFuj7FrI+MLGeLDSPieq6l7QPlD72yCZPSpxsKCgoCN53333DL7300ul+v7+Al4ZZNQmgAi+aLOy2AGTyiia7aGWioqgI1OgYdbdlWUXA0hMyJuU7tWFUdf8/UdVjK5EddbknryJipjyPxlDR3GtRcNRPGmwvyIwEjw+Wx4diu55FtevnZP9JBsuD/F0vQ75eExDy5iS4CZ3fuoBcZTzdgGu2Tsjc4Yktu8qnAYEKhEDpxcoirWdTrY8SgNeyUDgcrnzhhRdm3nTTTcsrKyvxfQt0OmU6pTKdFIneUsjK7QVHVjJFh6WxHzwvAp1AiXgQcIgy3m4I+P3+3P/+979TTjnllCtqa2sbRC2rJhlPmFlhhxhPnpFTgQV24tLtiBSWaDxu2udNcpXBh7q4WRmR7YWqlBaO5A+/vQ6VT3sMxb6vyNqZYEdjyNelDWr97B0ItS9C+H83hibBQ48XeWr3oOqPxiK75mBW50Ow/MUo0G8K8rQ7i6sDIHORBfu87UOV50sG/qF6RMfYutUHkPdY2dORxWT1EaEBrRuCwSD6+OOP/37mmWfODYfD1VQ6ZbydQLYZ6IRIWZlSWWR/WxJAIIAIew/wuHHAIjfDIs6+eNZZZ3V+9NFH53Xo0OFEkoZZREQVIBAhcnZC6SJt3uqABwhk7cuAmcpTQtrnGWqoy1G2MoC0TytPmRJsME6Phey9Zah80oMo9MnG7N1miMVQ7i/PQEULxqFYLY61gn3EsmgjjzcHhdb9AYX3rkDIcnUZKqwTTVrKRt7iAc41z3ZOJ5xHEtwb3mobIsvJrpLZucD2QzYAlfEVGX+2Tp7cQAEQq0+ERguQEwGik71er713797Pr7nmmlvefvvtXcxVzniy0BkTyWVMWZsUiUfvlgAQCDCgf9O5EUgqZjoWAXsSvHPmzDnjmmuumVZYWNidFXzZqlgWn6ACBVADLzL6qrbp+mmFotJ+olgMVX95ikfVR6ihF7k9ecqMa/BsG1U/+Dqq+Ns/stOVZttOWuWiv4xF/nMGIZwsicd/ophZGaBXXPVoanmRvf/fqPar2ciOVGStIzLQ6xrk63kditlYXfwAEHTmAm2oREZY5F3k6QoV0OB5CVXzDaqTSDmZd07luXOjD7iGS5HLg+epoPUdPtJYUVGx7dFHH5116623vhc/mUDnPcDeA+I54OU8cKaNSm829+ctBSCwIIFNw4yXQYnMivGtBn+3bt0KFi5cOPrMM8+83ufzFZF4BF03GW/SiFbYbt3xrJIX9ZFV+jLAoFJcqr5CJraMNrLJJXPdisbUQLl6PMjesheVXTsPRXcezL6cCLaNcs47GRXOuBrZrfIS6oxnMCBGhOaHJ1KGQl/NRpED72Wf9wVf0JTTDuUMuQ+hvN7ItqOJIFmRgVPNBYgrXTUXdOqQeSNV7dCAgTcudpuEBUEyvaECoTxwT3RbsvqIfj8ajZb/97//feiGG25Ytn379kpBYCLJd9CiAhNpHrUkgEBAAhkzfeMjeyV0Imhx1KhRXWbMmDGpV69eOIGSk0pN5QrUQf4ilxzPkEOACbuiV63waVRdTzAEt0zS5VkjLQIEKhejTJnRwEcECniKU6Ro2D56vF50dP6LqPL+lxDyZ1H6YHyuvCgfFd0+GgV/capzeoGmH0sH6MqO1IEvwYzt+Req/eZeZEePZpcXIRZG/p5XI3/fiQgvClglqXJfy0AEa1xVfJABN1FdKl6qVvmiOUfrPhUgEoF72cpepIt4c9ktD3BdHo8nsnXr1n/feeed85977rmdwFML5KbGrMyYKOSXbJWWhc9EpxroeIQGdzXceeedg3/3u9/9uaCgIJFAiTWmbieMisYqNC5yOfJcjaq2ZM9lRljm1hS5VXX6IvJ6pIIHlseDPEdr0fejZ6Pwhu3I8mbJnrqNUM7ZA1HhrN8iu3WBk/sg2U99gGEhK3QA1X51F4oe/Ch7gjztKPLkdUO5Q5egmLfE8R7ofiDeLd06aaAvM6TEmNJzUjR33fRBtShQeadSoQ/oMeoAEUKTioqKrQ888MDt06dPX6O4a4G9byFBeje0a47vtDQPgiNbcUaJciOQGx+dEw3x66JznnvuuUsvuOCCWxBCeaqjjyKvAD3JVatmGsXL3oMInWpS8xC6qH2ZcoKs5FXInx2PysXJggSV8uTRy5sTQLX/XI2OTF2C8FXQvLsKIHTOmDI49qB1ISqafU0i9oBntFhaicAmLQt0PThxUgzHImyYg+xweRZ4EWznOGNOvynI2/liFI3UIAuHJzK5IyDbMbI5RwNedgEA4QFEH6jaVxlqXj9E7+gCEN6YWUDDm0uqbRP2HV47lmVVvfrqq/NGjRr1AkIIX+OMAxHp2AM6MLHFbi0kZCxjlFrjdYT1IpB4BPpEAwYJ5NijE5vQu3fvkmXLlk0eMGDAL2OxWL0rAHVdeqrJCUHI0DK8SQNpn8cO1cROFQshXhPoCon1PvC8Efg7qzqEKmYtQ9UvvY9QJNZ8V8SOA9RG+dedh/InXoJiPq/y5kYR31SeGwwQPHYtCn17Hwpvf675H3m0LOTrcC4K9vsjinnykW0Tr3JDConkiges3c5VFrjL5i1kzogAoapet/oiVfqABkQsWKXHJKMBfubxeGJffvnlP0aPHn3Ppk2bcCpQcoyR/CbggGRMxLOpRZ1aaGAvUs3EZlKfLA0zCVisBxAwSBg5cmTXe++9d1bHjh1PikSwDME/KuElgq9a7asUgUzZp3LbQXfVIFv1yFZRqlWLbj9ERg9HNce+2YWOzHwKhT/9ttkCBJz0KefME1HxPdcju3UhOAkUb1UMkTWcOMkT3odqPr8dRQ991oyPPeJjjf1R8Lg/IFTYz4k9aIqP7lxQgTgV+BMBGt2xJ9MPkWeA9R6yAIfuo0wP4Gf4Gufdu3d/OnHixGkvv/zyDg44oHMesHctZHU6ZRmvW+IWQ8JWxf+gb30ksQjcUw0YJMyaNeu0cePG3Zmfn985Gs/ApzJSqucy46maqCAlzrlJrgFS5AQlqtrWmaCyyQ2tRyrI8THq9LleWQtfyeBFoZWfofI7n0CxQ80veRI+xujr1RG1fnAi8hzTEUXDP4BYFfB0TTd8HtjrR+joN6j6s1tQrHp3swQJlr/Q8Rx4OwxD0WhdHBp03vLmkmpVDjHM6Wxf5RXgAUaojKh0kuo5qw8gtJLxAIODysrKXQ8++OCfpk2b9j7nngUWHJCcB1l/GZOKpwYg/LBWFCVQqndXQ/fu3fMWLVo0+vTTTx/n8/kKRatylceATFDVZHH7XIWoVQoCqvRUhofXj3SskiDtQLwrHnyr25IVqOLuZ1VzJ7Oe2zbydmiNimaMQcFhQ1AkjHVe3YfHIxkPRApZxGtnhebzocieN1Dt1/OQHcI35TYn1WKjwDHjkL/nNQifWbDxyYUkAKdIFmXBvITmbue7CmRD9ZFKqCHzna5DFY/Fk08VDeh3IHM6EolUrFq16oEJEyYs27ZtW5UklTJ9jTN9asFhj4o22fi8Oc3idNBftdXAxiI4Nz8OHz68/ezZs3/ft2/fi+KBjPUXoxzlohJ6kUJSvccjisggpHKLQWR4aKPEMzRuDDmhgUjZ6ChzXl30+/jYoxWJoaOLX0FHH1nePIIWHXDQChX8/hco59KfoJiFtVmdPkuWNjzDw6sTb9F4UBSFd76IQlseRXbt95kf7ImPfvpykK/b5Q5AsJEfxWJ1pxZ06EbKE1pBjKLMsInqUbUj6rebOQcxvNBFhi44gdBeY0yhjRs3/mvq1Kn/u3z58v0MOOBlS6RTKbfYrYWEHk+H1W1mdfJAAt5iYC90SlwLjUHCDTfccOykSZP+0KVLl1N14xGaGX1aXHc9Ph+ywlFU9dDr6OhjK+q2G/DB/0z8RGPI06EVKrxxJMq5+MfIDmIj1zT75xgkWLEaFNn9TxTavKTOk4CviM7IDwYHRcjfbRTy9xqLbBRAsZheXFFGDst0KkEBn8+Hdu7c+eH8+fP/unDhwm8kRxox4/GkMVsLjPxkqNZrVCnnnWrAAIG+0Ik++pjYcpgyZcrgW265ZVZRUVGXpgIJbjwM6aAuBPWno13aYwFd0UD64XgSqmpR9fPvocoHXkGx/YczR5+MjgAAIABJREFULtMivsbZ17UtKpw6GgVxKmWfF8Wa+GZKD77MCYVRZN+bKPTNfShWuy/zroXGmRKDrVGgx6+Rr8vFyPbkJzwHENlQlcm2uaAaL/s8E3QSBgfl5eU7582bN23u3Lk43wH2FpBYA/I3Oa2Af2NvAQ0QEo4c3fFnU3kDEOq4KdpqIF4ENmjRSaYUCAR8s2bNOue66677c05OTj4JWlQJSFMrkHQZVdW46XYTs485Yw6tozHKebwe5IkhVPPGp6hizt9RdOcBhHwZkG3ROXwVQ/4Te6KiGVcj/5DeKBaOaHkO0qnEne0Grx/FDn2Car7+K4qVf5M5gYuxCPLkdkCBvjciX8dzUQzVgaqmmpPp5ENjzJFUtKGKa9BtAwcl1tTUHH344YdvnzZt2puhUIjkOmCPNZK7Fth8By1+ayGhq3WJn8XlabBEByziv+mjj/UyLebn5/ufffbZsT/5yU+u93q9ualcxfKQeTrrV/G2qZVZqhWJarz4uWPsAn4U2bAdld+1FIXwEciwfnY9SFvKMlhtWQhZeUGUM2wIKrj5l8jbvb02OFC2IykA5YFDN48Pxaq2odCmxSh64F1kR/Ftuk21JsGnEnzIU3ICCh53C/IUHY9i0bAWqKLJ0tRzwVnVJBFImYwMZIpe4vEAfxeNRqvffffdhy6//PIlR48epUEB7TkglzHRWwv03lyLDEpswNtUCkoW1CXLsijKj+C78MILS2fNmnVj7969h9u2HcwCOpghUBTA6Zi9Pi+yyypR1fPvOsmUIpt3IxSKNk5sQjz5kRX0I99xXVDer37mXMKESvKd1S+Ous/Ej5PG2uNFKHQYRfetROFdL6NY5WZkR0ONGJtgO1scnvzuyF86Avk6j0Qo0AbZMffgIBNpbfpURwHLsmo3bdq0fNq0afe/8sore+KZEumtBexNIOCATaVsPAeMIDUVnM9UeaYBgrOAjC952PwI9WIS8F7DpEmTBowfP35Shw4dhkSj0UaNzOIdmWxsApMTEo3dbmO1h1cmHpyVMBxFkfXbUM3rH6OaN9ei6Na9jrsfpekOBxsHIWJg0LcLyjl3CAqedzLy9SqtO6mAwUEGb9GQVa7lxCXEUOzoVic2IbL/HRSr3IJQLJw+oIDvUMCZHvO6IG+7nyBfh58jb1E/ZFt1wYiZTrdk5Lqp52JT6SOv1xvbt2/fZ4sXL54/f/78L0OhEPEY8DwH5kgjQMgMQGhIJNGFTmSroUEaZhyPUFJSErz11luHXn/99VPz8/O7pSJoMVMmOlH0AHlKeZGmpgEZEOlH3arYg1B1CEV2HEC1Kz9FNcs/QZGNu5AdjiALn3bAz91+bFTnEXCO4HmRf2AvlHPBj1DwzBOQt2s7hAI+FIvGGt1rkCwfnLTMXnzKIeQkU4oeXIUie1agaPkGhPDpAXzaIdkTD05q5BhCHj/y5PdC/g5nI2/7nyErrytCnhxnO0GWPlnEMlGmP7csdvtesjxw2y47B5qqH6LMirh/OCjx6NGj2x966KHZc+bMWX348OFaTmAi756FFp1KWSUTBiDwKSTaaqCPPhIvAp1IybdgwYJzr7322lk+ny+QjuNmskmCh0Kj93ROZFXd6V5F0Dkd6L1IVpmpJoDb586RPvzj9yH7UAWqffdLZ+shvGYTiu4rc0CC5cVGDwcNxFthslXWpSrAiAD/1AEDPBZvpzbIf0pflHf5T50ARE9BDopFogh7E2iZkvFARR+346bfg7TB9rGObl5kWV6EIkdR9PBaZ+shWrYW2TV762jhAAVMN9ahl+Bu3R/Ee+LcuIhPJrRF3pITkK/j+cjb9sfICrRGth126JqOuaiSNQh9kuUDZJ6p5moyfaDHKFpIqHRWMu3jd7FMRSKR0COPPDJt4sSJK6gLmOj4A/qeBRKUSOc8iE/GZHuTXe8bgCAHCI7Mx3+w1iI/xIuAwUGDOxtefPHFMWefffb/8/v9Rc598qxhaAQZSqdS0Ol+U/Yj3YoJ8zXhUcBgIBxB0Z0HUWTjThT6dJMTpxD7vgLFDlciVBtCdiiCcDpkLFKW34usgA9ZuUFkFecjb9siZxvBf1If5OvTGXlLWzsAw4kxYICBDv0JaKSDC3XfT7Y8jw8OULAwWMDTJ4rsmn0oVrEZRQ+vQ7HKTShWewihcDmyYzUIxUJ1XgZnNvocD4HlDTp5DFCgNfIU9EDekhORp7AP8uSWImQFnGuaMTDAHoNM2E5oDLAg41O65wJURlKtD7Bch8Ph8rfeeuvBSy655ClOrgMSc0AAgggcGIDAYaIBCGLJFuVHoLcaeMcf/d27dy969NFHrznppJN+5fP5ivCkcDNB2cmUzORyo6BkipWNoIaCoGTHQNjFRtPrtC9a6YhEQdVn0rYDFojXIGYjFIqgWFkFih48guzKWmTXhhEKxVMg5/iRJxhAqDDXAQeekgKEcCAk3qKI2YltBrLyZVdqZAwsj6B0gCp0dpUsogVkJctbcTvbNRhoxbcYLLxNgGMEIkecREt2pBKhaG0dSMBuFk8AIU8QWd48J5eB5S9xAAP2OjiOmDgwIMCIN04VP0XviGjmdi645QGPjrLvVOOBygyrQ3g6RZe2OuVZHYr7HYlEyj/99NNnrr766kd37dqF7xxnjzKSgESS84BNiJQgnS4/WkJ5AxDkXOYFLRIvAn09NNlmIEcgfeeff37pjBkzrj3++ON/gRDKdSNMOpOHrT+Zd2llQxtkN2NoynfcgDKZMoUo0kQZx+hh24dXycQJ5YRZ1zURd4/XgUdsFOsCqEmf2d+6oIYehxtwmEp5gvAhAbIIfTDdnL+tuh0aSlM5uxAOrX6IKeDRK5WyBxmDrL1UzUeIDKYKEIhkIBVjccMbDg+qv/rqq3/OmDHjkddee42cWKATImFwIIo7cKZbvB/mSKOAIQYgqCWV0u71thvIyQay3cCebPD/8pe/7D5z5szJPXv2/EkoFEpEronOUKsmP2Ri0is5unyqjAQUMIhWlLwxQJWvzhhU7dAGV6detbgQ+/+Dzmlg/CggwIIxiAxAeCAbkw5tkjUSqrbY8YrkhvCLlhUVL9iypC3ZPILKAkRmVXXxxgqpl5YZlbwQ0CmiczLAE9oP2Zh05YO06ff7Y1u2bHl3xowZ9/zjH//YFgo5rjn8Q59YoMEBe4UzAQgGHEgmkgEIKi1T99xN0CL2JnivvvrqvnPnzr27TZs2vcLhsFMPVAmwkycZgEAPk6dkRYF+tDFS9dtNvTIFxSpQ3fZVylMEplQioeKDyDA1Rx6wRgBi9HRc7hBa8YycLg94cuZWXln5UM0diIzrgD6IYab5pAIBOnTgbe2pABdNr1TQyu/324cOHdoyZcqUPz755JMb4ymS2a0FE5SoUmSA5wYgAIjEpH9jgxZpTwK91UD+9t5yyy2DJk+ePL24uLhXLIZPsDf8qBQerRR0lAm0XhgZfigFrRdSTmT4VYpHFXina3wgfdXlA8+4iWit076belX0VClytt8qsJBOWukAbR3Zho5Jp06dvqpAMI8HKgCg076bcdGAEALKkynj8Xjsw4cPb5k3b97MefPmrRWAA7K1QHIdsKmUE6KpO96WVt4ABDjHRUmU2PwI5GQDDRZ89913388uv/zymwoLC4/hIfZUTHyRotA1PKxCkdUrIp/bbRRo23S70BUQnNV1JaEeBkj7bngAVeyi9uk23Rg+KMDi8YzQWmUMIDyh+SArD+kvtC6ZfEFWwWTO8PiuIwuQMTXHueBWPiorKzc/++yz9910003vMFkSCSjgxR04t5fE2zRxB5BJFy9jAIIGsRSXOtFBi2yOBH9paWnu3LlzzxsxYsT4vLy8LuzEd6NIRO/wlJOugYAoJl6d9Hc8YCHrM10espKSjUmkhHn1qlbWEE+Fzh6vrG869cjAVKr5reqzjuGV8VbVjmi6QuWK0EwFXFhwRberAghsrINbQMCTBVG/dWkKmV884KGaC6KFjggQQPQeLoNPu1RVVe18/fXXF0+ZMuWNPXv24Is9ZNsKvDTKBhzo2bsmuzlFs5sZVZyNR8D/Ey8C2W4gXgQ6R4KvY8eO+X/961/Pv/DCC38fDAbb1GV2qx/MJjOwuoqGXcXrugJZpahSKhDjywMePBrwFLLK6KnqYaVIpMjdgBxWmfJoT8qI6MjyF0IrkUKW7RWz9UJnF69O3rsyPrDxCSyIlNFARlMeHVTlaVDDypYMIIjkiCcDOvXyYjd4MkDLkQwwsPyijbSsXhlPeQBBppd4/OR5F0V9xX3B4CAUCn3/yiuv/O8f/vCH1/bu3XuU8h7goEQSb0DfscAGJRpwAJ3oVDnjQdAnGrvVQMcksCcb2O0GX15eXs7jjz8+asSIETdZllXv9keVAZStGEUKUjR5VUYCssIiyp01qLTSV4EalQKRrRhVAEalBKEGQmUEIUYOuvJTgTDWCImUvgwgqIwpkTOoDMimEM/oiUANLU/0uHRkQGQ8IUaMZ8xZ3kJlQVSXrD43c4E3j0W8l9HUrT7QBdMyfcQDH/Hvql9//fX7fvOb3zxXVVVVw2wtsImQ6LgD55qz+LgNQNC3dcaD4IJmzhyPv0f/pjMtsjkS6C0HX25ubv7TTz99+VlnnXWN3+9vTU9O1epLplxZw8waD97qTaQ0oMpKZdBU9fAUhkhZydybOvWwNGTr5QEeFoyIDDXPAIhWkRAAo1oF0wZRZHxE7YuMKQEIvLmh4gErT7wxQmUcWo6lgYgH7PcyYCuiqwrwEtrxtgd4tFHxV5cGdPt0X1UAgDcneHVBAIFqrsg8mzSPcLlwOHzo7bfffvTKK698trq6mvYcyGIO6KBEZxgMSHCp9lvea8aD4J7nvEyLvHTMdFpmErjoKyoqyl22bNno00477epAINAWkitepnRYMCCa8DxlCiWBqn3VczL5dZUVOzbSTiqUFXTsKqXHPhet7JKhv8zwscZH1g5NP93xQ8AUz4Ws0z9In1SyJhujrH9u2iaGVCQjKlngva/bDxEQE9FBRT9I+1B5lM130aIlvq1w8P33339y9OjRy8rLy3HMAfEWkNgD+igj/tukUYYyDljOAAQgoTjFWNqxxx/pi524JxuGDBlSMnv27Mt//OMfj/H5fCXsRNJdfctWGzzAIFsNuVn5iRShSkGIWEDe4yk5lRuVVV4yr4RMBNg+8Mry+AQBDCKjSb+rWkFCwBZLK94YINsJsm0LVT8hgAXCB8JXyNyATm2ZVwRivHnbKDKDnYwsijwOqrmvAkUQ/rO0pwE6C9pF/BYBAnou4DKRSOTwBx988NTUqVOf/eyzzw4DTizIwIHDRqg8mHI/UMAAhOSlgfUkxK+iqxe4WG+LASGU8CT07du3ePHixWNPPfXU0dFoNAfqwuWhd9awqIyobLLyFAZP6cmMGVGuIqUmUr4iZaWzSlIpIhnbdQ0GbzWmGjNkFZ8MD1TG3K3B4HltZK5slfFU8UlHFnjyTxsqWV06cwHqERABM6gxhcxxEchkjbcKQIjmg44+4vUXAuRYOnm93poPP/xw2fjx45ds3LjxiCDmgJfrgBxnpMGAAQZJ2DgDEJIgXvxV0VYDfkyCFmUxCd4TTjihzSOPPHLjgAEDLrBtO0e03aBSpvQEZRU5O0x24kNXorKVIN0GxACKFApEWan6q0MrEchJRjRUBlim2FXgBcIDkXHi1Q0BInR/VbLFygGEV7o80OWvysPBghxV/RD+6vBAdy6Q8iraQsvxQC5U/lNFK1yPZVk1X3755avXXnvt/V988cX3TCIkUUAiDkzEH/b6ZvydAQhQRnLKGYCQBPGYV0XHH+kjkOw10Ylsi8cdd1ybBx544NeDBg26BG83yEACayBYY8ybsJBVMUTpqYy3yjjoGCOVoYQoRx5oYevlrbZ0lR5LOxktVStZCACAiq1IFng0gNbJggU374nekXkj2HdUNBfxALoqVskAdNyielRzAdK+bK6r5o/suWrbjMcL0ZYgZC7gMnhbYe3atS+OGzfuia+//hoKDtgsiSYgESqYgHIGIACIBCzC8ySQHAksSKDzJCS2G44//vji+fPn/2ro0KFXkMBFmRIUKXlWafBWMrwVgw5AUCk33DeeImYVjwPxqVwQPFqzAIjUnayRo+tlacSjId1XkZEnZXh8Y1exIqAiAggQY6/a+xYZRxUPWH7y+AjlpYwOEO+EzMCztGNlR/Q/j+YQA82TRREPaGDF0kok47JtPREPIHyQgS2RDPNkgB0TXS8LGET1koDE1atX/33SpEnPfPXVV7xtBdp7IEqhbLYWgMYKWswABCilYOWgIIEGCCSZkhOnMHjw4JK77rrr4tNPP/037BFINwYCosBgQ6sz+DwFrFLqPDBCtwkFJjygQysolZET9UNWbzK0EY1RpMAhBklEK56BYdtXxQrwlDvPkED4LeIFRBZUfKQNlY4cqdqWGUCZQVUBAogx5hlaFR1E8qKSZwgdoHLP8gJSNy2rGBzgo4zvvffe43fcccdLa9aswQGJJL6AToJEAIIBBzrMSbKsAQhJEpDzuggk4O9FV0STIEZnCwIfgXz88ccvHzZs2A04mZLsCKRsJSsyRNAhQwy3SBlB3lX1Q2X0eAaQp2hZUKNql/dcZbx5HgOIwVX1BUpHtn/sKltl1CH9UBksEd1SRQdV+43BA8icYucELccqOZLxAfquqP1k54EKeBCwwPJbBBowOLBtu3rlypULf/Ob3zxLHWWkvQX03Qr4ewIQSBIkOhmSwx6VLJvncAoYgACnlU5JmScBFLiYm5ub99hjj10ybNiw64LBYGsCEqAGg7dqSdZIyAwylDg8JedmTBBlxaMBz1hBFS87frcKV7XyS4aWkHdl7UMMIA3C3MiUjN86vHAjN8SIQcCGqgxLBwjteTIk2nKBtK8DolMlvzw9oNuP+LbCoRUrVjz829/+9sXq6uoqjYBEOhjRbCvoCp5GeQMQNIilWVR0uoF4EkieBAwYEnEI8b8dT0JeXl5w8eLFF40YMWIsvuAJgwQ3SjFVBklz/InispUdRAm6bTed7+kqRNEKP519FClyUTCZbl90jLmo7mTqcDsXaBCUTPu69OKVdzOGVAD1VPTdbT/wmKurq/HFS0vGjx//r6qqqlrmPgU6IRL2GJAkSPhv+iijAQepZiRTnwEI6SWwKEcCvd0gOgLpgIQOHTrkz5079+fnnXfeNUVFRT1jsVjKeKajHHXKqkiqqxR1jbGqfd3nIhepbj1uFWqyK9VUGSY3XhsVjXTkSlduVG3j5zrtQ+rTLaM7Jt3yuv1RlU9WBjwej33kyJHvVqxY8eiUKVP+vW/fPpI+WbStQLYUCDgwuQ5UTErh85QZmxT2KduqksUkYBAgi0sIxEFC7q233vrjUaNG3di6dete0Sg59gsnVbITG96SvGRTKuR0GHo3dGlKGrjpb6rfyRQjl+px6dbXlMC3KXjg8/nQ999/v+W55567f86cOR/s27ePpE8mwYiieAMMHkzMga6ApaC8AQgpICKgCp4nAb9GH38kWw7cI5AYSEycOHHgpEmT7mzfvn2PcDjsSaV7Xtd4psvIQetNF+CB1psuBatTL5RWAPl0VQRKK93KoYZTh1Y6fdAdV7r4AKkXSiud8RPPCv2O7FSK7HQMqcPv98cOHDiwdf78+X9asGDBuni8Ab2VQF/ZTG8pkGubcVUk9oBUawISdRmrWd4ABE2CuSwuureB5EnAXgQCFtgjkPQ9Dp4xY8b0njZt2o1dunT5EXtdtMu+mdcMBQwFDAXSQoE4yKneuXPnR7Nmzbr/qaee2hQ39LzbGOmjjBgMEHBAew/q4Za0dNpUmqCAAQiNKwyq0w30BU8keLHeEUjsSRg1alT3SZMmXdWvX7/hPp+vKJWehMYlh2nNUMBQIFspgMFBJBIp37Bhw/L58+cvfe6557ZRngM25oAEI9LeA3NaoYmFwwCExmWAypNAbzmwpxsSQMHv9/vOOeecDpMnTx510kknXR4IBArZXAmyLGuNOeSm7IcsY19LoQEeJ30Ukd1Kagw6ZAofGmOsojZaGg/ixxgrPv3002fvueee595888194XCY3UZgTytAkiA5It2UvGxJbRuA0Pjc5oEEcgMkfQSSPt3A3uHg/N+tW7eC+fPnX3Leeef9zufzBSMRPN8a55NKw+/GgKRS4bqpy02fVZzRpalueVn7vGyA0P6muh9QEJNOHuiMSacshKakDIQO7JFVVf2pfs7mwcB9xsGIkUik9o033vi/SZMmvbh9+/ZK6hgje+ESAQ1kO0F2WsGAg1QzUFGfAQiNTPB4czqeBHLSgQ1eTHy/YMGCc0aPHn1TYWFhaSwWw2Aj8aEVCGsIU6nYyEqVp9xYRZ4OxS5rv7FZzKOriAYQI6DTfx6/CW1EwXfp6gNulxf8ygYXprp9ery8ucDSk6aLDq1VgIutl2dM0zkXRONi5TOVesDr9cbKy8v3LFu27L6JEye+GU+bTLYP6FMK+G/yvfEcpErwUlyPAQgpJqhmdaq7G+hkSsSLwPMmeGfPnn3qFVdcMbZdu3YnWpYVYJMqQfqlq6wgK29d5aNTXtW+7nh4hhRKN5mR0x2TmxWk7B0VnSBjFJXhGT22rC4f3KyKdWisGq8beqnG6LZOKHiCtK8jV7qAOw5GQvv37//8mWeeWTJ16tQPBfEGxGNA0iaTmAPRrYxOV1Q8M8/TQwEDENJDV51aISCB5ErAXgSy9ZC4KhpvNxQXFweuv/76fqNHj778mGOO+bnf7693hwNEkbOrLd7qj1UyMsUkWkmrlB5dJ2QVKloxygwVr15ReTf91aULT2AgngiRIpcZJKgBVhkdHr1UtNI1PCLeQmgj6r+usZa1BR0vrxyEvpAyKj6oaCWbCxBaxS9cqt68efO/ly1b9uxDDz204ciRIyS3AfYOYG8B8R6Q/1mvgQlI1LEajVTWAIRGIrSiGdUFT9iTQJ9w4HoTcPDiz372s3Y33XTTRWecccZvc3JyClIVlwBZoblRZhDy0wZN1o90tw9dgUFoBRm3SvGLQAVR+KnuB8RYqMCdm3GTdyDts2WTaU/0LoSuOn3V6SNUxqHldNqmwRqp3+/3o5qamspVq1Y9du+99/7rnXfeOSAIRqQ9B7TXgI45MBcv6TIkzeUNQEgzgTWql4EEAhDowEVeimYnLiEvL883Y8aMs37961//T3FxcWcMEtwoLMgqWFUvq0xVqxle8hvR6ovdU5d5PHh8oJPMqPaheeOgAQOEVirjpUMb3spaZLhYHqna4a0oRe/w9tnZ91na6NBKRrNU1CsCYfR4VaDHrYzTwJcepwiIyvjGi+sQjYHwDAp4RQANByMeOXJk1xNPPPG3GTNmvF1VVUVvG7DBiPQxRhKQyHoNzN0KGgajMYoagNAYVIa3AQUJvBMO5Bik88zv93v/53/+Z9D111///0pLSwfjuASikFiFxzMI8C7LS7o1RrrKi9cL1SqKVtCsMqWVKMSNLKMChAZQo+yGLzwQpzJ6BICkmw+qfvCMqBsaqOSDfp4sv0Vt8UAodPzJzlEVKGP7zIJnlj6xWCy0d+/eNQ899NCDf/vb39aGw2E64JBNmUyfVDDgIFUC3Aj1GIDQCETWbEIHJMiOQjrPrrvuuj7jx4//Ve/evXFcQiG+xwG6Sqf7LVol0cYHosRkK3HR+zxDnkw9dDsqBU2vnkR8ZFdkqnGIwICKfqqVqgoQ0WNReVt0vDY6q20e8IDygO2/zIMgoyULOngyzAN1Mvqxc4W0L6uHlScIHURj5s1pGbjjyQpEfuLxBhWbNm369+LFi595+OGHv40fYeSdVGCBgQEHmsagqYsbgNDUHBC3zwMKJF8CnZqZBQl0IKMTq3Duuee2HT9+/Igzzjjj8oKCgs68y55UXgWe8oIqNJ0VGaQdVvmKVpmQ/vEUu2w1xVO6qnZSZSQgtIEYdojI67YlowHE8Kj4oAK1EB6oAJgIgEDAFLR9aB9YIEXLPE0rUd9EWz8y0CDjAa7P6/Wio0eP7lq1atWzCxcufH3FihUHmfwGJACRPanA5jigtxYSZIfIpSnTuBQwAKFx6a3TGg8gOHoiHrBIsi7KjkKSYEZv586dc6+//vohY8aMua60tHQgzpcgU9wqhccbiKi+VK30VMRTjQeqTEVjgwIdHiCgV6k8j4PIcLg1rjwDwcZsyAwNb3ULGb9KbljaqMqzRlslA7LyPBAsAoMqY6nqB8tvYvB5W1dQHusCTVFcjUg+efKAy2KvgWVZsd27d69bunTpww899NBnu3btwjcx0nEFbBAieUbfqUBftmQCElVClAHPDUDIACYoukB4RP+mQQJ9wkEUm5AACueff36n6dOnjx0wYMB5tm3nEeWk8iDwDAa9qhEFPvEMgmpFBlnlqFa4IiMsUoKy8qJVucjAqsYsUvRuecCTHxYM8P6XGUE3hlPWD5qnKiAnqkckgzx5UfFANOd0eUAMPysLMkBI7++zwFAGYiByyJuTvLmpAiXkOX7XsqyqL7744o277rpryWuvvbZbAQxE+Q1YrwEJSDQ5DjLYBhmAkMHMobqmikugtxwSYABvL3B+PH369CmaOXPm8J/97GdX4lMOtm372LscIKtFdlUkcgOrDAL7HrRt1sDJ6pGtmmTGFCIeumCFRydasUMAkgyw8fjCW9GSOmQeD8j4U8WHVNGAV48MdPCMOW+lD6WFrD5ZvW5BDU8WZIAQ4kGIew0i+JTCO++88/T06dOXf/vtt+XxmxhZbwF7eoHeUjAnFaCCk4HlDEDIQKZwusQCBEcHUj90bALxItDJldh0zbh8YOrUqf2vuOKK0d26dTtVdSsk1D2rchm7MaaQtlUrMZ6HgF7J8dyxOqtAlRiJwJOucVW1IzKOIlAiK0+vIgnooNtXbZWIVuMyGZGBFdV7KtqIPFc8YCny8vDFgJAIAAAgAElEQVToIAIfTTkXaJCpmnPs3MH0wLcwbt++/cO///3vy2bPnr0eIYQTH2FjT1/JTP/Npk3GngFe8iNzlFElqBn03ACEDGIGsCu8LQdy/wLxJGBAQGIU2OyL9QDEyJEjS8eOHTvslFNOuaS4uLhrLBbjyoRodUMbUVH/ZR4B1WpGZNhlxlu2WlSttogBYFdgMt7obGfw6mENMSmjWlHynst4IDN6sn6JQAQLFiDGU+Umlxlx1hMl+z9ZGZDxG8IXGWgQebrczAW2HbeySGjp9XrtI0eO7Pj4449fXLJkycqXX355T3xLgXeMkc6KSMADiTnAXWNjDhwRAeo5UywDKGAAQgYwQbMLMm8CiUdgAxhZDwINEnydO3fOmTBhwuArr7xyXJcuXU4MhUKIt+XAU8i8lTc9HpURU+2P0qsb3fYhngfZ9oJbwy0CIbThFxlXnZW+zCvC4wEEzEGAkIhmNK/Y9sn/qj7T8qLyGOhsTcmML0QGIHShx8iTAfY5yw+duUDAGO0F02mfR9tgMIh27tz5+dNPP/3AokWL1uzatauGOcJIH2WkAxTZQERRvIEBCJrKvqmLG4DQ1Bxw3z4PKJCtBgIQcJl6YCAek4C/I7dDkq0Iz9ChQ0vvueee3/bv3//8YDCYG41G690MKXPFyoCAyuiJjIlodSRT6CIjLCKzaMWqwxY3ip0HEIjSVxkjeoyq1SgNcmQAAUoHFe11ASEPVOgAOxHwUAERmtYsyFUBKR6tVHNDBAhFcgCVBR6IVXnXWNrgGxhra2ur169f/9rkyZMfW716NfYaEKMvAgW0RwF7BUjcAdlaYMGA8RzoKJUMKWsAQoYwwmU3RCccVKccCEBgwYPH7/fn3H///Wedc845F7dr126Az+fLY70JrFKGuDV1FDkPGPAUps42AGuIoIZT9J5Lfjmv8QCFrkGg6ekGFEGMsAqg0WPRlQEZyJGBOZHx1m1f5o1yw1sZCIbWBxmDqB03cwG/E4lEqg4cOPDlm2+++dKNN974djgcxl4Dsl3AbivQ/7O3MMriDQw4gApBhpUzACHDGOKyO6K4BBYokK0G9jhkvTse8F0Ov/rVr3pceeWV555wwgnnFhYWdscgwY1RcTke81ozpgDP7d2Mh5N1XY+fUEAVFRXbvvjiixVPP/30imeeeWYr5y4FNs8BuYGRd0WziTfIOkmpi4Q3n+ZPAcgpB/bCJ7K1wB6FJN97+/btW3DppZcef8UVV1zes2fP071eb5CXhVFFPtlecXMBHZDVnYwOsn171Xu6HgJefbz2U1GvivciLwTtAYHIQLL0J94OXn9VWwr0u5C+qmhCAygdz0MqaICzIcZisdrvvvtuFb6a+YUXXvhq48aNlVQgIi/5EQ0M6HTJ5pSCitnN/LkBCM2cgUz3VXEJJCaBZF/kZWGkvQnO8wEDBhROmTLlgmHDhl1VVFRUim+HZJWcSHFC9ud5RoQ2XrwVKWTPnC3DtqPqs+h9VbR5uoyiaGsCtyczXKkCJzKQIQMbyQBEmTGFyEBjTG9IP3hbABBPi4p2PBkVyQK+fbG8vHzPypUrl86dO/fVL7/8siIehEi2FHj5DIi3gPwm1zMTcIB/OyJI0dpsKTSG4DVCGwYgNAKRG7kJlqd0vgSy5cDe5SAKZExsSfj9ft/YsWP7jR8/fkzv3r1/jBAqUBkm0bhVSk8EGFKxeoOsrkVlZEZQl8ci0AMx9LptQcbj1sgl2xcdAKm7zw7pmwg8pWK1Dm2fB4ZFc0vH44DroMpXbt68+YNFixY9tWTJkg3hcJiAATaugAYJxHMATXzEAgUICUyZDKaAAQgZzJwkuqY6CknHJiS2FKgTDwQY0L+dkxGnnHJK68mTJ+O8CcNbt27dGwcxEqOWKgOuqwRldIKs0mRABjomWZ/dGhu37yUhN/VeTRUfkq0HSodk20kV3WQgVLcNN2Mi7+DfOAjx0KFDmz7++OPl99xzz8qPP/74EHXigAUDvNsX2RsYzRFGXSY24/IGIDRj5gG6rkrRzPMo8MAB7WHAQME/bty4XhdffPHZJ5xwws9LSkq6Y/Cgyp2QSsUJGDuoCNT4gCqjCukq9nT2AwpydMeYqvK6tNJpFwIQ0+GZ0OljqsviIEQMAg4fPoyDEP/90ksvvfXAAw9sQQiFqeOLPHBAexPo3Aa8rIhmSyHVjMvA+gxAyECmpLhLLI9JbgOy9cAmV2I9CnQmxnrP+vbtm3/ppZf2vvDCCy/o16/f8Ly8vPxwOKx92gFqINLlDk6XcdblI6Qfutsz0D645QGpH2KIIX2B0ADXo7M1AWmXHodO0CJ+T5X7Qbd9Ul4F7Hi0CgQCqKqq6uiGDRuWv/LKK6++8MILmzZu3HiUCULkHV+ktxNEgYi4ayTmINFNnfGZss2LAgYgNC9+JdNbnjfB0bWc66PZy5/qHYOMb0UkEizh+ITx48cPHD9+/PXdu3c/2bIsy81ph2QGZ941FGjJFMCnE2zbtrdt2/bJ4sWLH1q8ePG6eJwBnfCIPo3AehBojwG7reDgIBOI2PIkzACElsNzXvAiAQgEJMhiE9hARtbTYPXr16/NrFmzhg8dOvT8oqKiHpZl5YiSLLUcspuRGgqkjwJ4O8G27Zry8vKtq1evfm3atGnLN2zY8H3cmLNeAVEAIimHQQJ9OoEGBezJBHNSIX1szZiaDUDIGFY0WkdEAYy4A3SqZjpvAi+Qkb010vE6FBUVBcaMGdN71KhRw4499tjT8vPze3i9Xn9TAAU2W16jUZhpiHcssin60lT9yBQ+NAXN6e0Cehsn2b5gYBCNRsNHjx7d+s0337z/3HPPrXzqqac2lZeXk1sXaXAABQaio4sm3iBZhjXT9w1AaKaMS0G3dZIr0XkTaLCA4xPoXAqJrYmePXvmX3XVVb3POuuss/r163dmcXFxF9u2GwQypmAcWlXwctdrVZCCwk1lqFPQ9ZRU0dSAoTnTP54FMXrkyJGdGzZs+O/bb7/99tKlSzd99913JM6AvUMB/4+DE9kjizqpkskWQ0r4byppPhQwAKH58CpdPZUlVyKBjMTwk0ug6CyM9N80WHDK9u3bN+/iiy/GgYzn4UDGwsLCYhzISDwKkFVVUxt1NlgM0mcVs9yMKZWGzY2RpoP3UkEDx+rYNn1WX0o2N32WVUjzQKcfKt7qPIeOCdPb7/fjREdHvv76axyA+MZLL72EAxCrqGOLJPiQvkuBDkhktxJI0iOylWCSHukwrwWUNQChBTAZMEQiByxYIFsOdIwCL8kSu92Aj0oSsEBAhv/aa6/tN2HChNHHHHPM6cFgMA/fFska31QqajeGPduMIG2EdWirU1YlX1AjSLvjyd9NBUToEwKp6IMuDQjfsMcgftti1ebNm1ctWrRo2SOPPLIh7hUghp3OdsimReYlO2KPLdL3KNDeAhNnoBLuLH9uAEKWM1hzeFCgQDwJtEeBBgVszAIBFVZhYWHurbfeOmTEiBHnd+vWbWAgEOjg8Xg8xKOgY5jSaczd9EOH1iIPgq4h0S2faiNM8wDXrWtMeXRuTO8KT4bcyFWq+YCBQSwWi4VCoX3bt29f9/rrr782Z86czyoqKqrjAYi80wkiDwJ9QoFOdGSAgc6kbYFlDUBogUxXDFkVm0CfdJAFMtIggYCHxFbF4MGDS66++upBP/3pT8/p2rXribm5uR0ty5LGKIiUsI4xT4XLGdIe21eIAeF5PCD1yAwqa+xkfYf2kc5HQQMOCDiA0k5VF7Qe2hMB9Sjx6EDTWMYnXr95PBCBqfiphGh1dfXeHTt2fP6f//znzSeffHLtmjVrDsdPGNDGnk6XzJ5YYLcT6BMKxPNAPAQmCNHYAS4FDEAwgiGigAwosFsPshiFBnEJ8TwKzvc//elPS0aMGNH31FNPPb1Pnz6nlZSUdMHP3eRRgBg4drDsCpgobtYAQQySrrFkV/O85D+64ulm9c2jiRtvgFvvBAQEuaGDCmSw/NIx5Kr+6HohcB6DePbDnd9+++37H3744arXX39943/+8x8MDOiLkuh7EXhbC3QOA/I3HWMgOrpothNUTG2Bzw1AaIFM1xiyKncCz5vABjKyAIH2JjjAwu/3e7t27ZpzxhlndB45cuRPhw4delGrVq0wUMBHuRLd5bmzRYab9z1kBQlR7NB66NUrTfNkVvGQtnFbsnFAwI6KruyKWmSMVXwQrbhFtOOBEBGYEQFG1fh5csbyj51DEM8Bb97FgQEqKyvbuXr16n+9/PLL/3nvvfd27dixoyYcDtNggPxNgwUWOLAZEHleA0c8mL4YcKChFFtSUQMQWhK33Y8Vuu2Ay7HeBAIY6BgF+tgkHc/geCYGDRrU4Y477hg+ZMiQc9u2bdsVIZSDv8dxCm4NkWxFzPMi0KSCrERl3guVQRIZPZ1VvMxz4Ab0QAwgT5x4/dDx7LAASAUURIab5Vlj8ID1SPD6hvsV7xs2yjUHDx7c8dlnn6246667lq9du3YfFV/Axg2w1y6T7QW2HHsds9lOcK/3WvybBiC0eBEAEwDiTVB5FNh8CmxsQiKYEadvHjZsWOnVV1/940GDBp3ZsWPHPl6vtxWOUyArZNmqHLJFIFoF8wyqysip3OSy1SzU0wDxPNB3IojuK+AZTx4Y4Y2JF38gkyAdPsj6wN4VAfE8iMAGS2+Vx4AdnwpssPKD/49foISrikYikbK9e/d++/nnn//38ccf/2DlypV74mmRyekC9nplGgzwthuIpwAaZ8DzIoAVgSnYcihgAELL4XUqR6ryKLAZGXkxCqLkS3TgI27Hd/7557cfOXLkwIEDB57SpUuXEwoLC7v6fD4/2X5QrVqJ4VEZDNpw8AwblIC8S3RYAwepS2UEeXWIAIJu+27aVoEMHT7IvDYQPqp4wAOZMnqKPBWqd3A/MDiIRCLhioqKHTt37vxi3bp1H7/88svrXnvttf3x+AIMDNjYATrIUAQKZFcxmwBEyCQzZaQUMADBCEgyFIACBQwQyPYD+Z247Im6/IkFDQQsWH6/3z9o0KDCn/zkJ11PP/30ISeccMIZ7du3HxAMBh2gwAY16hg4dlXMWwHqBBCq9t1pQ6qzNcEaRtkYZWNiDTm0vzrty7witMDJ6CrzyvDACGvERZ4SXvsizwiUNmzbOLYAA4NQKBQ+cODAl59//vl7q1at+uzdd9/dsXbt2oowzhZWFwtAVv28GAM2BoFsH7C/6aOLBhgko9HMu/UoYACCEYhkKcDbeiDJkcgz2qNAxymwIIHnVWA9Cvi+B09JSUnRb3/720EjR468oEePHifl5eUV4RgF/IOVusoNTK8gaeOg2l6AEEvk2mc9FGxdKhAC8WrwPAii8bGGEmJg2bpUK2jVFgMPdEC3Y2SeBBUPRHzkjY8HNHgeGfwdAQbV1dXl27Zt+/Qf//jHq4899tjaw4cPl5eXl9NbADyPAcmAyN6sSAMFOskRnfmQjTUgQzQBiJBJa8pwKWAAghGMVFBAFp/gLPaoa6VFeRQIEGhwyoET+OjEIeA627dvn4NTOV9yySVn4GOSbdq06eTz+fJjsZifNhIiYyIDB7ytCwIsZC57XePEGvWEZrfr63ZIvRCAAGG4yEWv613RATUq2rI01+GBbMzJAETSB8uywtFo9OjBgwd3b9q06f0XX3zxPZwKef/+/TXUqQFeqmM64RENENjgQ8hNi+Z0AkS4TRkwBQxAAJPKFARSQLTtgF/HIID8JkCBbD/QngJepkb2O/I/ASD+0047re1VV13Vf9CgQT/q0qXLcYWFhRgstIpnpXO8CuyHZxzoMiIXs8x9LTOuPBqKAAIxmOQdUb0soBCtgtlgPJXR5D3neVhk9ILGC9BjYGkrAg6QLQS6bzSd2e95tOGVJ9/Fb1PEW1tlFRUVu3fu3Pn12rVrP1q6dOn6999//yCVChk3xQYd8o4vsmXItgGdy4B4DNg7E0yiI6ByMsX0KGAAgh69TGk4BWRAgfYosAGNBChAQQIp59SJcyp069at4MILLywdNGhQ3z59+pzYtWvXfoWFhd0DgUAu7j7ZhnCQhWVp5wxQ7cWr3OY8kMIzgroAgS3PAgsewBCxk2ek6T7S3hUaROnShvDADUDgGX8WLMnAlYo+LEDw+bBzC+G4gurKyspt27Zt2/Dtt99+vnbt2o2vvPLKnu3bt1fGcxcQdz8vaZEMHPBOI7AnExw2xPtugAFcH5mSLihgAIILoplXwBSAHo0UAQbR6QeeN4EGFo53Ijc314dvkxw4cGD7008/vf9JJ530o06dOp1YUFBQipU9HbMAHhGgIGRlK1rNisADD0CIPCJsHapy0FU+b3sBAjB0YgVk9amCFnUAgwocEOCCPQXxUwiosrJyz549ez7/5JNPPlq1atX6devW7ce3KVZXV5NTBnTQIRt8KIo5oLcS6PfpmAJZLgMaMACk0xQxFIBTwAAEOK1MyeQoIDvx4Ojj+BYECxZ4HgURQKABReIERLxu3Ibn1FNPLf3FL35x/PDhw88rLS09saSkpAR/H4lEElsQEFe8bP+bZ+ShRph+V/UO1CPA23KQARECRlTshtRLDC2pCzKmdJRVjYUGDHhcGEBalhUrKys7jEHB8uXL33jxxRe/+uSTT/bETx4QwywDBWywIQsaRPkL6EuUTGpkKPNMuZRTwACElJPUVCihgMijQAACffqBNfAioKDyJtAxDon6c3NzA+eff36X4cOHHz948OCT27Zt26eoqKiN3+/PRwgFMaggxiyVK3DaELF0ggT0uZUuyFaKbt1QgEDXywu0ZEGRW++Kqv+8bRPqO2yIa8Ph8NHy8vLvDx48+O2aNWs+efXVV7964403dlZXV4firn32XgNeemNePAEv6JCuiz2qKNs+MCcTVMw2z1NCAQMQUkJGU4kmBXjeBAISeGCBPvlAjknS3/HSO7PHI1mgQAImvYWFhTnnnHNO+xEjRvTp3bt339LS0mOKioq65ObmtvP7/Xler9eLjTf0Ainoyl5FM8hWBb1CZ+MCVPWrnrv1kui8p+oDGZ/K8wCph5Qh2wbRaDQaDoeramtrDxw+fHjnnj17Nm/atGnj66+//u2bb765v6KiAp9AIJeBEANOBw+yCY54aY/Zo42qbQTimSDdNXEGOsw1ZVNKAQMQUkpOU5lLCrjZfqCBAm38E+ma41sW5H82WRPtoSCBklZpaWnukCFDik488cSOPXr06NK3b9/eHTt27NWqVatjcnNz23u9XouciqCDHWWrZChNoKcU2LYci0Kd0HCzsqeBBlufqP8iAJMMQBCBKxVtZH0mgCAO8uzq6ur9ZWVlm/fu3btl48aNm3bs2LFzzZo1ez/77LPyPXv2VFOeAhoUiIABe8qA/l+W0MhsI0AnhinXZBQwAKHJSG8aZigAzaVAPAf4dZ5XgDX8LEBgj1Oy3olELAQ+EdGzZ09/u3btCo8//vgOgwYN6jFo0KDBpaWlfXC658LCwnzbti3sWRCBhXSsgHUlxy1g0G0HAiRS6QmQtYdBAU5aZFmWXVFRcbSysnLH7t27v127du2atWvXbv3qq6/2HThwoOK7777DSQ15FxyxeQfYtMbsNgIbi0AnNGK9ELy4ApPDIFUCZ+pJGQUMQEgZKU1FKaKAKk4BN5NY8cfbZEEBfXSSJFXiBTA2yNJIBUvSbZA+OeChc+fOBeedd163H/3oR8fg+IUOHTr0zs/Pb5ebm5vr9/s9oVDIG4vF0j63klmpp4JXvD39xgAApO90+x6Px/b7/XjLIFZVVYWPIR44cODAJhxH8NFHH21+4403tu/atasyHmBIHxPkxQGwOQjYYEKylYC7wnoQWK+D49yg0iqT/8kwDDBIhTCaOtJCgbQrsbT02lTaEigA9Sg4i3RJtkbyjN16oIMe2b+FXgUq2RNpN9izZ8/8kSNHdjv55JO7d+7cuUfbtm17FBYWts3NzS0MBAL5Xq83x7btgMfj8WCjhr0NjpXgJG6SMTZVsQ1uhaepPBG4XfLjWORoNGZZVigajdaEQqGj1dXVFRUVFQcPHjy4ddeuXVs/+eSTbS+//PL277777igOPKTyBuDX2VgCNiaABwbo70h54nXgvc87lsjmLjDAwK0gmvcajQIGIDQaqU1DLinAk1F6RU8MNfnNrvxpbwJ9lJIHEGhgwItRYE9W0MDEGZ7P5wv279+/4Nhjjy0cOHBgx+7du7dv3bp1x7Zt23YqKSlpk5eX19rv9+OfQq/XG7Asy4Nd4QQwyLYqXNKvWbxGgwDiGcBbN7Ztx6LRaCgcDleEQqFD1dXVhw4fPoxPGew+dOjQ3m3btu1ft27d3m+++aZi/fr1lZFIBAMCenXO5hPgpSyWJSjigQN6+4A9fcDGFjisjXeId/rAnEhoFhLaMjtpAELL5HtzHjXUs0Abb9bDgMfPpnhmMzqyYIH1KpBTEPR7uF7yf+LvVq1a+Y899tjcrl275nXs2LGkffv2rdq0aVPctWvXLh06dOhSXFzcLi8vr5Xf7y8JBAKFfr8/gEEDfcyS93dzYyLtBWD/xsAoVPfBQOBwdXV12ZEjRw7s27dvJw4i/P7774/s37+/bO/evYd37NhR9c0331SXlZXRNyISQ0zSENOeAtZzwG4D8IIRWWAgiiPgJTSSgQIDCJqb4Lbg/hqA0IKZ38yHDvUskHJs3AKJTeB5GHhggQcQWI8EASKsF4P2eDhl/H6/1apVK29JSYk3Pz/fGwwGi44//vg2nTp1atWpU6fWPXr06Nq2bVsMHtrGwUOBz+fLxdsVwWAQv++wDxtWOkgSAwndrYtUyQHtBSBBgvg3/uDbjWtra228LRCJRKrD4XBlVVUVBgF4a2Dn1q1bcRDhod27d5d99dVX39fW1pYfPXo0evjw4WhZWRmOLWANMTHC9Pf0ap7dSuCBANH2Au0hIPUTgMCLJ1BtH9CAIVXkNvUYCqSdAgYgpJ3EpoFGokAyngXWG0AbetrYc49Gxr0GbDnWg0F7FtitCd48TFyFnZOTExg8eHDxwIED23Xr1q24VatWBcXFxYWtWrVqXVRU1DY/P79Vbm5uUTAYzMMgwufz+T0ejy++fWHh3xiUxI/74f+d9olBxycx6BU9ARn4BAAFOPDfdiwWwz+OwYu7/+NfxyKRSCSMjX9tbS1OP4wNfFl5efnBsrKyQ0eOHKkoKyur3L59+5F169YdWLNmzZGamhqcfIgE/BEDTIsLL5iQ9hTwtg94QYfslgALJHjbBLTXgeclUIEC4ylopIlvmkkfBQxASB9tTc2NTwERSMA94cUtsIaaAAWIZ4D1PNDv8DwJPK8CKYf7R7fN6yttkMh7vpycHH9xcbG/sLDQl5ub68VHMzt27Bjs3r17QYcOHfKLiopy8/LyAnjbIicnx+fz+QKBQMDn9Xp9OGgS53WIgwcCJJx9fwwEMAiIRqPOP9FoNBIKhTAICNXU1ETC4XCoqqoqVF5eXr1v376j27Ztq9y7dy/ORBitrq6OVlRURI4cORKuqanB2wD4rgJiZOmx8Yws+Y5sFYiMM89bQIMD9m9RedbTQIABz0NBewJoAGACDht/rpsWG4ECBiA0ApFNE01GAShgoA01u/IXeQJ4MQiisrKtBx5IYbckCMChxyMbGyE4a4xF8130vWgVjL/H7+gE37EGlfUO0J4BnnEWbSXwtgNYjwHtDWC9BTwAwrZPAwP2b97/TSbwpmFDgVRSwACEVFLT1JXJFICCBdoYy4ADu+IXnZ6gAQANKojXQObFYJ/xgIPIO8KCBJo3buc9DzDwVtI84EAMMbsKpw20aPVOBx7Sxh4KGkTv8IAI2z9CN+MlyOTZbfqWFgq4VRRp6Yyp1FCgESngBjAQY8zGE7DGnmf8yRYED4CIvBYysCIDBrqeBh2yywylaF9etJXAggbRdgIPRLBl2S0J+n9i9NkjiKL+0iBBBBB0aGbKGgo0SwoYgNAs2WY6nSIKqFzurKEV/S/yNLAGnvU6sMCABiD0uwRwsKCA9igQkrDfQbYidMgpAggirwExtuxz1qDjcjwDzgIBupwIYPDaFG1x0GBAtqWiQyNT1lAgKyhgAEJWsNEMIkUU4M0HqKeBZ5ghwEHmJWC3FERt0MCBBREscKBJBZ3/ulsLrNGVeRBExpxn/OmybAyDqA26L+zfvP9F36VIxEw1hgLNhwJQBdF8RmR6aiiQWgqovAw8gyxaxbOAgQUHbF0yQCBrVwQSZGABQjUZUEhFLAIPWEAMv2prQ2b0RV4DCD1MGUOBrKaAAQhZzV4zuDRRIBlPA228aYAABRq8+ALVd8kCA5aMboECMdQqg856B0j7ycYMGDCQpglhqs1OChiAkJ18NaNqHApAvAs8QED3ThZHIPME8N5Ll+fALUBgPQJ0PbKYBch7PK+AiSFoHLk3rbQQChiA0EIYbYbZaBSQzSlVwGAyzyFeDZYI0PmvWnlDYxRYT0Cq/ucBj0ZjuGnIUCBbKQBVENk6fjMuQ4HGooBqrkEMPKQMFASo+gPxGvBW8ZD3RCchdAy9CrQ0Fl9NO4YCWUsBXSWRtYQwAzMUyBAKQLctcHch8xdSJpmhQwy1ysOgAwyS6at511DAUECDAulWHhpdMUUNBQwFNCiQzNx1+y4EDIiGkMy7GmQxRQ0FDAVSRQG3iiJV7Zt6DAUMBdJHgcaa38b4p4+HpmZDgSajQGMpkCYboGnYUMBQwFDAUMBQwFBAnwIGIOjTzLxhKGAoYChgKGAokPUUMAAh61lsBmgoYChgKGAoYCigTwEDEPRpZt4wFDAUMBQwFDAUyHoKGICQ9Sw2AzQUMBQwFDAUMBTQp4ABCPo0M28YChgKGAoYChgKZD0FDEDIehabARoKGAoYChgKGAroU8AABH2amTcMBQwFDAUMBQwFsp4CBiBkPYvNAA0FDAUMBQwFDAX0KWAAgj7NzKywKJ0AAACvSURBVBuGAoYChgKGAoYCWU8BAxCynsVmgIYChgKGAoYChgL6FDAAQZ9m5g1DAUMBQwFDAUOBrKeAAQhZz2IzQEMBQwFDAUMBQwF9ChiAoE8z84ahgKGAoYChgKFA1lPAAISsZ7EZoKGAoYChgKGAoYA+BQxA0KeZecNQwFDAUMBQwFAg6ylgAELWs9gM0FDAUMBQwFDAUECfAgYg6NPMvGEoYChgKGAoYCiQ9RT4/yoRr3RDX7zxAAAAAElFTkSuQmCC;" vertex="1" parent="1">
          <mxGeometry x="-1460" y="-1530" width="160" height="160" as="geometry" />
        </mxCell>
      </root>
    </mxGraphModel>
  </diagram>
</mxfile>
